<svg xmlns="http://www.w3.org/2000/svg" xmlns:xlink="http://www.w3.org/1999/xlink" viewBox="0 0 995.52 636.93"><defs><style>.cls-1{isolation:isolate;}.cls-2{fill:url(#Áåçûìÿííûé_ãðàäèåíò_269);}.cls-3{fill:#e8fdff;}.cls-4{fill:#6fe8df;}.cls-5{fill:#e8f9ff;}.cls-6{fill:url(#Áåçûìÿííûé_ãðàäèåíò_308);}.cls-7{fill:url(#Áåçûìÿííûé_ãðàäèåíò_269-2);}.cls-8{fill:url(#Áåçûìÿííûé_ãðàäèåíò_269-3);}.cls-9{fill:#4e63fe;}.cls-10{fill:url(#Áåçûìÿííûé_ãðàäèåíò_255);}.cls-11{fill:#8391ff;}.cls-12{fill:#ffe2e0;}.cls-13{fill:#b8ebf2;}.cls-14,.cls-15,.cls-17,.cls-38{opacity:0.59;}.cls-14{fill:url(#Áåçûìÿííûé_ãðàäèåíò_307);}.cls-15{fill:url(#Áåçûìÿííûé_ãðàäèåíò_306);}.cls-16{fill:url(#Áåçûìÿííûé_ãðàäèåíò_212);}.cls-17{fill:url(#Áåçûìÿííûé_ãðàäèåíò_307-2);}.cls-18{fill:url(#Áåçûìÿííûé_ãðàäèåíò_85);}.cls-19{fill:url(#Áåçûìÿííûé_ãðàäèåíò_108);}.cls-20{fill:url(#Áåçûìÿííûé_ãðàäèåíò_98);}.cls-21{fill:url(#Áåçûìÿííûé_ãðàäèåíò_85-2);}.cls-22{fill:#a6a7ff;}.cls-23{fill:#fff;}.cls-24{fill:#3141bd;}.cls-25{fill:#e0a682;}.cls-26{fill:#ee3b37;}.cls-27{fill:#fec29b;}.cls-28{fill:#29aba0;}.cls-29{fill:#4bccc2;}.cls-30{fill:#f95850;}.cls-31{fill:#c2d2ff;}.cls-32{fill:#4d55bf;}.cls-33{fill:#6772ff;}.cls-34{fill:#0f185c;}.cls-35{fill:#e0809b;}.cls-36{fill:#192580;}.cls-37{fill:#fe9eb9;}.cls-38{fill:url(#Áåçûìÿííûé_ãðàäèåíò_306-2);}.cls-39{fill:url(#Áåçûìÿííûé_ãðàäèåíò_133);}.cls-40{fill:url(#Áåçûìÿííûé_ãðàäèåíò_65);}.cls-41{fill:url(#Áåçûìÿííûé_ãðàäèåíò_242);}.cls-42{fill:url(#Áåçûìÿííûé_ãðàäèåíò_119);}.cls-43{fill:url(#Áåçûìÿííûé_ãðàäèåíò_65-2);}.cls-44{fill:url(#Áåçûìÿííûé_ãðàäèåíò_212-2);}.cls-45{fill:url(#Áåçûìÿííûé_ãðàäèåíò_65-3);}.cls-46{fill:#dedede;opacity:0.5;mix-blend-mode:multiply;}</style><linearGradient id="Áåçûìÿííûé_ãðàäèåíò_269" x1="28.42" y1="341.12" x2="309.92" y2="213.94" gradientTransform="translate(69.61 -43.71) rotate(-8.63)" gradientUnits="userSpaceOnUse"><stop offset="0" stop-color="#42bbd6"/><stop offset="0.34" stop-color="#58d1da"/><stop offset="0.71" stop-color="#69e2de"/><stop offset="0.98" stop-color="#6fe8df"/></linearGradient><linearGradient id="Áåçûìÿííûé_ãðàäèåíò_308" x1="-15.67" y1="375.34" x2="406.39" y2="375.34" gradientTransform="matrix(1, -0.03, 0.03, 1, 10.48, -10.91)" gradientUnits="userSpaceOnUse"><stop offset="0" stop-color="#f2b1b1"/><stop offset="0.26" stop-color="#f3b6b6"/><stop offset="0.55" stop-color="#f6c3c3"/><stop offset="0.85" stop-color="#fcd9d9"/><stop offset="0.98" stop-color="#ffe6e6"/></linearGradient><linearGradient id="Áåçûìÿííûé_ãðàäèåíò_269-2" x1="260.25" y1="262.95" x2="541.76" y2="135.77" gradientTransform="matrix(1, 0, 0, 1, 0, 0)" xlink:href="#Áåçûìÿííûé_ãðàäèåíò_269"/><linearGradient id="Áåçûìÿííûé_ãðàäèåíò_269-3" x1="569.44" y1="2.3" x2="850.93" y2="-124.88" gradientTransform="translate(-171.92 -1.61) rotate(20.42)" xlink:href="#Áåçûìÿííûé_ãðàäèåíò_269"/><linearGradient id="Áåçûìÿííûé_ãðàäèåíò_255" x1="812.88" y1="66.1" x2="1023.92" y2="32.34" gradientTransform="translate(-84.41 -48.5) rotate(11.65)" gradientUnits="userSpaceOnUse"><stop offset="0.01" stop-color="#f95c55"/><stop offset="0.67" stop-color="#fd8d88"/><stop offset="1" stop-color="#ffa19c"/></linearGradient><linearGradient id="Áåçûìÿííûé_ãðàäèåíò_307" x1="1417.98" y1="72.81" x2="1572.24" y2="72.81" gradientTransform="matrix(-1, 0, 0, 1, 2372.33, 0)" gradientUnits="userSpaceOnUse"><stop offset="0" stop-color="#b8ebf2"/><stop offset="0.59" stop-color="#e5f8fa"/><stop offset="1" stop-color="#fff"/></linearGradient><linearGradient id="Áåçûìÿííûé_ãðàäèåíò_306" x1="2225.91" y1="22.76" x2="2347.46" y2="22.76" gradientTransform="matrix(-1, 0, 0, 1, 2721.11, 0)" gradientUnits="userSpaceOnUse"><stop offset="0" stop-color="#fff"/><stop offset="0.41" stop-color="#e5f8fa"/><stop offset="1" stop-color="#b8ebf2"/></linearGradient><linearGradient id="Áåçûìÿííûé_ãðàäèåíò_212" x1="748.82" y1="515.4" x2="968.93" y2="515.4" gradientUnits="userSpaceOnUse"><stop offset="0" stop-color="#f2b1b1"/><stop offset="0.26" stop-color="#f4baba"/><stop offset="0.69" stop-color="#fad2d2"/><stop offset="0.98" stop-color="#ffe6e6"/></linearGradient><linearGradient id="Áåçûìÿííûé_ãðàäèåíò_307-2" x1="128.18" y1="86.09" x2="283.47" y2="86.09" gradientTransform="matrix(1, 0, 0, 1, 0, 0)" xlink:href="#Áåçûìÿííûé_ãðàäèåíò_307"/><linearGradient id="Áåçûìÿííûé_ãðàäèåíò_85" x1="258.17" y1="386.24" x2="771.7" y2="386.24" gradientUnits="userSpaceOnUse"><stop offset="0" stop-color="#6d60f0"/><stop offset="0.25" stop-color="#7366f2"/><stop offset="0.59" stop-color="#8478f7"/><stop offset="0.98" stop-color="#a094ff"/></linearGradient><linearGradient id="Áåçûìÿííûé_ãðàäèåíò_108" x1="287.53" y1="257.83" x2="742.33" y2="257.83" gradientUnits="userSpaceOnUse"><stop offset="0" stop-color="#9dccf5"/><stop offset="0.98" stop-color="#d9ecff"/></linearGradient><linearGradient id="Áåçûìÿííûé_ãðàäèåíò_98" x1="227.78" y1="592.11" x2="802.09" y2="592.11" gradientUnits="userSpaceOnUse"><stop offset="0" stop-color="#4136b0"/><stop offset="0.24" stop-color="#473cb4"/><stop offset="0.55" stop-color="#584ec1"/><stop offset="0.91" stop-color="#746ad5"/><stop offset="1" stop-color="#7c72db"/></linearGradient><linearGradient id="Áåçûìÿííûé_ãðàäèåíò_85-2" x1="227.82" y1="628.03" x2="802.04" y2="628.03" xlink:href="#Áåçûìÿííûé_ãðàäèåíò_85"/><linearGradient id="Áåçûìÿííûé_ãðàäèåíò_306-2" x1="3292.95" y1="28.05" x2="3424.91" y2="28.05" gradientTransform="translate(-2693.01)" xlink:href="#Áåçûìÿííûé_ãðàäèåíò_306"/><linearGradient id="Áåçûìÿííûé_ãðàäèåíò_133" x1="598.2" y1="472.48" x2="817.67" y2="472.48" gradientUnits="userSpaceOnUse"><stop offset="0" stop-color="#3351bd"/><stop offset="0.32" stop-color="#3755bf"/><stop offset="0.63" stop-color="#4260c6"/><stop offset="0.93" stop-color="#5673d1"/><stop offset="1" stop-color="#5b78d4"/></linearGradient><linearGradient id="Áåçûìÿííûé_ãðàäèåíò_65" x1="635.28" y1="472.49" x2="845.03" y2="472.49" gradientUnits="userSpaceOnUse"><stop offset="0" stop-color="#4597c4"/><stop offset="0.98" stop-color="#8bc6e8"/></linearGradient><linearGradient id="Áåçûìÿííûé_ãðàäèåíò_242" x1="491.26" y1="371.16" x2="710.6" y2="371.16" gradientUnits="userSpaceOnUse"><stop offset="0" stop-color="#28b5d4"/><stop offset="0.22" stop-color="#4ac8de"/><stop offset="0.57" stop-color="#7ae4eb"/><stop offset="0.83" stop-color="#99f6f4"/><stop offset="0.98" stop-color="#a4fcf7"/></linearGradient><linearGradient id="Áåçûìÿííûé_ãðàäèåíò_119" x1="491.26" y1="410.65" x2="710.6" y2="410.65" gradientUnits="userSpaceOnUse"><stop offset="0" stop-color="#4136b0"/><stop offset="0.19" stop-color="#483db6"/><stop offset="0.47" stop-color="#5c51c6"/><stop offset="0.81" stop-color="#7c72e0"/><stop offset="1" stop-color="#9288f2"/></linearGradient><linearGradient id="Áåçûìÿííûé_ãðàäèåíò_65-2" x1="564.44" y1="370.96" x2="687.99" y2="370.96" xlink:href="#Áåçûìÿííûé_ãðàäèåíò_65"/><linearGradient id="Áåçûìÿííûé_ãðàäèåíò_212-2" x1="662.07" y1="331.87" x2="693.84" y2="331.87" xlink:href="#Áåçûìÿííûé_ãðàäèåíò_212"/><linearGradient id="Áåçûìÿííûé_ãðàäèåíò_65-3" x1="510.73" y1="329.15" x2="637.51" y2="329.15" xlink:href="#Áåçûìÿííûé_ãðàäèåíò_65"/></defs><title>Ativo 1</title><g class="cls-1"><g id="Camada_2" data-name="Camada 2"><g id="Ñëîé_1" data-name="Ñëîé 1"><path class="cls-2" d="M264.3,367.68l-114.41-61a6.42,6.42,0,0,1-3-7.38C178.6,203,248.18,156.81,283.24,47.54A4.15,4.15,0,0,1,289.37,45l114.42,61a6.58,6.58,0,0,1,3.07,7.42C372.77,223.2,304.63,270.19,270.59,365.23A4.31,4.31,0,0,1,264.3,367.68Z"/><path class="cls-3" d="M284.1,92.75C257.45,163.66,209.19,207.19,179.85,272a25.79,25.79,0,0,1,3.18,1.43,26.62,26.62,0,0,1,11,36l44.58,23.77A26.68,26.68,0,0,1,271.94,321c30.61-67.79,73.22-106.51,103-179.7a24.23,24.23,0,0,1-3.13-1.41,26.63,26.63,0,0,1-11-36L316.25,80.1A26.57,26.57,0,0,1,284.1,92.75Z"/><path class="cls-4" d="M292.59,177.56c-18.67-10-40.73-5.07-49.26,10.93s-.29,37,18.39,47,40.74,5.07,49.28-10.94S311.28,187.51,292.59,177.56Z"/><path class="cls-4" d="M321.49,126.55c-7.46-4.33-16.78-2.2-20.83,4.78s-1.29,16.14,6.16,20.48,16.8,2.18,20.85-4.8S329,130.88,321.49,126.55Z"/><path class="cls-4" d="M249.1,262.36c-7.47-4.33-16.79-2.19-20.84,4.78s-1.29,16.15,6.17,20.48,16.79,2.19,20.84-4.8S256.55,266.69,249.1,262.36Z"/><path class="cls-5" d="M295.53,216.32c-3.6,6.75-10.53,9.84-15.79,7a3.89,3.89,0,0,1,3.66-6.87c1,.55,3.58-.67,5.26-3.82,1-1.92,2.29-5.41-.85-7.07-1.67-.9-4.8,1.94-7,4.16-2.94,3-9.1,9.31-16.21,5.53-5.76-3.08-7.59-11-4-17.61,2.17-4,5.37-6.91,8.78-7.84a8.35,8.35,0,0,1,6.66.91,3.89,3.89,0,1,1-4.09,6.62c-.06,0-.18-.11-.54,0-1.05.28-2.68,1.62-3.94,4-1.49,2.79-1.1,6,.85,7.07,1.38.74,3.41-.46,7-4.13,2.79-2.8,9.25-9.28,16.23-5.56C296.69,201.49,300,208,295.53,216.32Z"/><path class="cls-5" d="M267.41,201.34a3.9,3.9,0,0,1-5.27,1.6l-4.86-2.6a3.89,3.89,0,1,1,3.66-6.86l4.87,2.59A3.9,3.9,0,0,1,267.41,201.34Z"/><path class="cls-5" d="M300.4,218.92a3.89,3.89,0,0,1-5.26,1.61l-4.87-2.6a3.89,3.89,0,1,1,3.66-6.87l4.87,2.6A3.89,3.89,0,0,1,300.4,218.92Z"/><path class="cls-6" d="M224.72,305c-1.15-1.45-2.31-2.9-3.45-4.35L218.15,297c0-1.16,0-2,0-3.17,12.68-14.17,32.15-51.1,39.18-80.14a1.31,1.31,0,0,0-1.84-1.45c-28.27,14.86-40.89,58.45-44.51,73.57a1.2,1.2,0,0,1-2.11.4q-6.84-7.71-13.71-14.86a1.2,1.2,0,0,1-.14-1.56c10.45-13.85,36.11-63,32.29-82.55a1.3,1.3,0,0,0-2-.83c-23.33,17.47-33.72,60.83-36.68,75.66a1.19,1.19,0,0,1-2.06.51c-6.85-6.8-13.61-13.14-20.17-19a1.24,1.24,0,0,1-.35-1.39c9.28-22.37,26.18-62.15,23.07-78.61a1.31,1.31,0,0,0-2-.84c-20.09,15-26.36,57.5-27.95,72.16a1.18,1.18,0,0,1-2,.68q-7-5.87-13.43-10.94a1.23,1.23,0,0,1-.38-1.52c5.91-12,24.27-64.44,22.24-84.07a1.3,1.3,0,0,0-2.08-.89c-25.73,21.67-26.29,65-25.7,79.49a1.18,1.18,0,0,1-1.94.93c-6.41-4.85-12.21-9-17.19-12.55a1.29,1.29,0,0,1-.51-1.36c4.54-16.76,19.84-64,18.18-88.66a1.3,1.3,0,0,0-2.08-.94c-27.33,23.37-22.17,78.2-20.41,87.6l-1.19-.78-3.57-2.36-5.64-3.72-.19-.13c9.58-42.17-27.23-69-35.35-74.38a1.19,1.19,0,0,0-1.87.76c-2.72,20,22.54,47.29,36.7,73.28l-1.63-1.08a5.2,5.2,0,0,0-1-.5,1.26,1.26,0,0,1-.39-.23c-21.74-18.92-53-43.12-98.48-45.48a1.18,1.18,0,0,0-.84,2.08c27.1,26.13,73.39,42.56,99.12,46.38l.1.08,2.32,1.55,1.57,1a1.18,1.18,0,0,1-.66,2.21c-18.28-1.27-60.44-3-75.77,6.84a1.24,1.24,0,0,0,.25,2.16c20.68,9.27,59.21,5,81.57-6.83a1.24,1.24,0,0,1,1.27.08l.88.59c1.26.85,2.62,1.72,4,2.74,4.54,3.23,9.85,7.08,15.76,11.54a1.18,1.18,0,0,1-.83,2.16c-14.47-2.37-46.4-3.72-80.16,20.16a1.24,1.24,0,0,0,.41,2.15C70.13,249.94,126,234,140,226.62a1.24,1.24,0,0,1,1.35.16c4.31,3.42,8.83,7.13,13.5,11.12a1.18,1.18,0,0,1-.66,2.12c-12.75.37-50.61,3.49-79.57,26.43a1.26,1.26,0,0,0,.72,2.19c18.16,2.39,49.55-4.83,87.77-22.51a1.26,1.26,0,0,1,1.38.22c6.49,5.84,13.16,12.19,19.92,19a1.18,1.18,0,0,1-.7,2c-16.45.9-67.37,3.26-85.69,23.9a1.27,1.27,0,0,0,1.11,2c22.42-1.27,79.51-11.76,92-19.64a1.27,1.27,0,0,1,1.59.23q6.84,7.23,13.67,15a1.17,1.17,0,0,1-.84,2c-31.32-.32-73.3,10.76-89,26.37a1.26,1.26,0,0,0,.94,2.11c22.74.6,74.17-9,95.43-21.25a1.29,1.29,0,0,1,1.6.32l.23.27,3.51,4.19,3.4,4.34,6.86,8.75,2,2.74a1.17,1.17,0,0,1-1,1.89c-33.64-2.84-71.17,7.67-89.18,25.4a1.27,1.27,0,0,0,1.1,2.12c14.11-1.59,67.86-8.21,94.83-20a1.3,1.3,0,0,1,1.54.45c.24.34.49.68.72,1l3.23,4.68q4.25,6.06,8.3,12.3a1.16,1.16,0,0,1-.86,1.83C215.44,350.93,170,361.67,156.65,379a1.29,1.29,0,0,0,1.2,2c12.86-1.19,68.33-7.17,97.2-24.11a1.29,1.29,0,0,1,1.73.46q4.88,7.9,9.53,15.94,1.13,1.92,2.22,3.86a1.15,1.15,0,0,1-1,1.76c-19,.14-69.66,2.41-91.21,22.05a1.25,1.25,0,0,0,.51,2.07c21.43,7.27,75.16-2.16,96.42-14.67a1.3,1.3,0,0,1,1.76.55c4.42,8.26,8.62,16.59,12.66,24.89v0a1.15,1.15,0,0,1-1,1.68c-27.16.15-73.71,7.15-93.26,20.62a1.23,1.23,0,0,0,.31,2.13c14,6.15,71.74-.68,99-11a1.31,1.31,0,0,1,1.63.71c3.43,7.52,6.67,15,9.78,22.39a1.14,1.14,0,0,1-1,1.62c-21.64.83-73.37,4.23-91.74,18a1.24,1.24,0,0,0,.51,2.14c29.34,9.24,67.63-.07,95.49-10.63a1.31,1.31,0,0,1,1.65.76q4.38,10.89,8.3,21.38a1.15,1.15,0,0,1-1.36,1.54c-19-4.25-56-8.38-84.18,14a1.26,1.26,0,0,0,1,2.19c16.46-1.57,53.56,2.49,87.75-5.77a1.33,1.33,0,0,1,1.53.84c3.94,10.88,7.53,21.27,10.82,30.94,7.3,21.65,13.16,39.78,17.38,52.45,2.11,6.34,3.78,11.32,5,14.71.34,1,.63,1.88.88,2.6a3.11,3.11,0,0,0,3.79,1.82,2.64,2.64,0,0,0,2-3.37L361,593c-1.18-3.37-2.88-8.33-5-14.64-4.31-12.63-10.28-30.73-17.75-52.4-3.35-9.64-7-20-11-30.84a1.14,1.14,0,0,1,.73-1.53c.71-.21,1.43-.43,2.14-.66,9.5-3.05,53.8-6.18,101.75-27.11a1.23,1.23,0,0,0-.37-2.32C361.77,448.94,332.94,482.75,329,488a1.16,1.16,0,0,1-1.32.38c-.6-.2-1.52-.5-2.72-.86a1.32,1.32,0,0,1-.86-.8c-3.24-8.55-6.69-17.38-10.39-26.39a1.15,1.15,0,0,1,.61-1.52l1.79-.75c6.36-2.66,70.56-35,73.73-68.48a1.33,1.33,0,0,0-1.58-1.4c-47.78,10.92-72.14,57.08-75.06,62.94a1.13,1.13,0,0,1-1,.62l-1.14,0a1.33,1.33,0,0,1-1.24-.8c-3.49-8.21-7.16-16.55-11.05-24.94a1.14,1.14,0,0,1,.48-1.53c.29-.14.56-.29.83-.43l.13-.08c19.56-13.53,55.82-60.09,58.54-82.9a1.33,1.33,0,0,0-1.58-1.4c-24.52,4.93-57.31,68.23-61,75.4a1.12,1.12,0,0,1-1.1.61l-.51,0a1.34,1.34,0,0,1-1.13-.75c-.46-1-.92-1.93-1.4-2.9-4.45-9-9.09-18-14-27,.14-.12.29-.23.42-.35,12.89-11.56,63.25-60.74,61.14-85.14a1.32,1.32,0,0,0-1.88-1.08C289.05,324.59,275,378.93,275,378.93h-.35q-2.18-3.84-4.42-7.64-4.87-8.29-10-16.44a1.16,1.16,0,0,1,.22-1.55c14-11.08,48.12-56.9,51-82.84a1.31,1.31,0,0,0-1.89-1.27c-35.91,19.29-50.1,62.16-53.68,75.17a1.22,1.22,0,0,1-2.21.23q-4.14-6.27-8.45-12.35l-3.28-4.71-.92-1.27a1.19,1.19,0,0,1,0-1.45c14.38-18.48,43.75-71.46,43.81-88.66a1.32,1.32,0,0,0-1.75-1.22c-31.16,11.34-43.81,64.52-47.06,81.26a1.22,1.22,0,0,1-2.2.38l-2-2.75Z"/><path class="cls-7" d="M362.57,357.78l-104-77.47a6.43,6.43,0,0,1-1.85-7.75C302.56,182.13,378.28,146.87,429.34,44.1a4.15,4.15,0,0,1,6.44-1.57l104,77.47a6.57,6.57,0,0,1,1.92,7.79C491.5,231.2,417.07,267.44,369.16,356.29A4.32,4.32,0,0,1,362.57,357.78Z"/><path class="cls-3" d="M423.41,88.93c-37,66.1-91.24,101.9-130,161.58a26.07,26.07,0,0,1,2.93,1.89,26.61,26.61,0,0,1,5.44,37.26l40.51,30.19a26.68,26.68,0,0,1,34.82-7.07c40.44-62.43,88.38-94.32,128.83-162.21a24.39,24.39,0,0,1-2.89-1.86,26.63,26.63,0,0,1-5.46-37.27L457.09,81.25A26.58,26.58,0,0,1,423.41,88.93Z"/><path class="cls-4" d="M419.07,174.05c-17-12.66-39.51-11.12-50.34,3.41S362.88,214,379.86,226.7s39.52,11.12,50.36-3.42S436.06,186.7,419.07,174.05Z"/><path class="cls-4" d="M455.31,128c-6.74-5.4-16.27-4.68-21.32,1.61s-3.7,15.76,3,21.16,16.28,4.69,21.33-1.61S462,133.35,455.31,128Z"/><path class="cls-4" d="M363.35,251.36c-6.73-5.4-16.27-4.68-21.32,1.6s-3.7,15.77,3,21.17,16.27,4.69,21.32-1.61S370.07,256.76,363.35,251.36Z"/><path class="cls-5" d="M416.16,212.82c-4.57,6.13-11.88,8.14-16.66,4.58a3.9,3.9,0,1,1,4.65-6.25c.93.7,3.64-.12,5.77-3,1.3-1.74,3.07-5,.22-7.12-1.52-1.13-5,1.2-7.56,3.06-3.35,2.53-10.39,7.85-16.85,3-5.24-3.91-5.85-12-1.36-18,2.75-3.69,6.34-6,9.86-6.44a8.37,8.37,0,0,1,6.44,1.89,3.89,3.89,0,0,1-5,5.94c-.06-.05-.16-.14-.53-.09-1.09.12-2.9,1.2-4.5,3.35-1.89,2.54-2,5.8-.22,7.12,1.25.93,3.44.06,7.53-3,3.18-2.34,10.54-7.78,16.88-3.06C419.53,198.33,421.79,205.27,416.16,212.82Z"/><path class="cls-5" d="M390.61,193.78a3.9,3.9,0,0,1-5.45.79l-4.42-3.29a3.9,3.9,0,1,1,4.65-6.25l4.43,3.3A3.9,3.9,0,0,1,390.61,193.78Z"/><path class="cls-5" d="M420.59,216.12a3.9,3.9,0,0,1-5.45.79l-4.42-3.3a3.89,3.89,0,1,1,4.65-6.24l4.42,3.3A3.89,3.89,0,0,1,420.59,216.12Z"/><path class="cls-8" d="M423.75,323.78l-70.4-108.87a6.43,6.43,0,0,1,1-7.91c74.48-68.76,157.75-75.39,241.46-153.88a4.14,4.14,0,0,1,6.58.78l70.41,108.87a6.56,6.56,0,0,1-.92,8c-83.1,79.41-165.49,87.4-241.39,154A4.32,4.32,0,0,1,423.75,323.78Z"/><path class="cls-3" d="M574.57,93.06c-57.73,49-121.06,63.66-178.18,106.08a26.25,26.25,0,0,1,2.08,2.79,26.62,26.62,0,0,1-7.9,36.82L418,281.18a26.68,26.68,0,0,1,35.1,5.52c59.68-44.4,115.73-57.56,177.33-107.07a23.74,23.74,0,0,1-2.06-2.75A26.64,26.64,0,0,1,636.26,140L608.82,97.61A26.58,26.58,0,0,1,574.57,93.06Z"/><path class="cls-4" d="M540.81,171.32c-11.48-17.78-33.15-24.21-48.37-14.37s-18.25,32.25-6.75,50,33.15,24.21,48.39,14.37S552.32,189.1,540.81,171.32Z"/><path class="cls-4" d="M590.85,140.76c-4.43-7.41-13.61-10.07-20.54-5.94s-9,13.49-4.56,20.89,13.63,10.08,20.56,5.94S595.26,148.17,590.85,140.76Z"/><path class="cls-4" d="M461.61,224.33c-4.42-7.41-13.61-10.07-20.54-5.94s-9,13.49-4.55,20.9,13.62,10.07,20.55,5.93S466,231.73,461.61,224.33Z"/><path class="cls-5" d="M524.56,206.63c-6.42,4.15-14,3.49-17.22-1.52a3.89,3.89,0,1,1,6.54-4.23c.63,1,3.45,1.15,6.45-.78,1.83-1.19,4.62-3.62,2.69-6.6-1-1.6-5.14-.64-8.15.23-4,1.2-12.48,3.72-16.85-3-3.55-5.48-1.31-13.27,5-17.35,3.87-2.5,8.05-3.44,11.49-2.59a8.37,8.37,0,0,1,5.38,4,3.89,3.89,0,1,1-6.79,3.8c0-.06-.11-.18-.46-.27-1.07-.26-3.14.12-5.39,1.58-2.66,1.72-3.89,4.74-2.69,6.59.84,1.32,3.2,1.26,8.12-.21,3.79-1.1,12.59-3.62,16.88,3C532.77,194.23,532.46,201.52,524.56,206.63Z"/><path class="cls-5" d="M507.25,179.88a3.9,3.9,0,0,1-5.38-1.16l-3-4.63a3.89,3.89,0,1,1,6.54-4.23l3,4.64A3.89,3.89,0,0,1,507.25,179.88Z"/><path class="cls-5" d="M527.55,211.27a3.89,3.89,0,0,1-5.38-1.16l-3-4.63a3.89,3.89,0,0,1,6.54-4.23l3,4.64A3.89,3.89,0,0,1,527.55,211.27Z"/><path class="cls-9" d="M736.41,343.22A34.27,34.27,0,1,0,801.59,357Z"/><path class="cls-10" d="M909.19,173.39c-4.09,19.29-15.18,35.53-30.54,47.23-6.78,5.18-19.9,23.73-24.81,31.73L827.24,307l0,.06-94.09-19.92-2.46-60.89c-1.24-9.7-5.61-30.15-9.71-37.63a83.78,83.78,0,0,1-8.48-56.9c10-47.38,62.2-76.46,116.51-65S919.21,126,909.19,173.39Z"/><path class="cls-9" d="M761,279h26.21a16.52,16.52,0,0,1,16.52,16.52V356.7a16.52,16.52,0,0,1-16.52,16.52H761a16.52,16.52,0,0,1-16.52-16.52V295.54A16.51,16.51,0,0,1,761,279Z" transform="translate(294.72 1015.88) rotate(-78.05)"/><path class="cls-11" d="M835.74,324.05a14.83,14.83,0,0,1-17.57,11.43L730,316.81a14.83,14.83,0,0,1-11.44-17.57h0a14.82,14.82,0,0,1,17.57-11.43l88.19,18.66a14.84,14.84,0,0,1,11.43,17.58Z"/><path class="cls-11" d="M828.26,359.36a14.81,14.81,0,0,1-17.57,11.43l-88.18-18.66a14.82,14.82,0,0,1-11.43-17.57h0a14.83,14.83,0,0,1,17.57-11.44l88.18,18.67a14.82,14.82,0,0,1,11.43,17.57Z"/><path class="cls-12" d="M806.2,302.64l-10.77-2.28,23-108.82-30.42-6.44L765,293.92l-10.77-2.28,23-108.82-8.35-1.77c-10.54-2.23-17.1-13.56-14.62-25.25s13.06-19.37,23.6-17.14,17.1,13.55,14.63,25.24l-2.21,10.43,30.42,6.44L823,170.34c2.47-11.69,13.06-19.38,23.6-17.15s17.1,13.55,14.63,25.24-13.07,19.39-23.61,17.16l-8.34-1.77Zm25.32-119.59,8.34,1.77c4.6,1,9.34-2.92,10.55-8.67s-1.53-11.22-6.13-12.19-9.34,2.91-10.55,8.66Zm-55.89-33.62c-4.6-1-9.33,2.91-10.55,8.65s1.53,11.23,6.13,12.2l8.35,1.77,2.21-10.43C783,155.87,780.23,150.4,775.63,149.43Z"/><path class="cls-13" d="M823.11,348.88l2.54-3.69c.78-1,1.55-2.09,2.31-3.12-.05-.94-.09-1.63-.15-2.56-11-10.71-28.67-39.38-35.91-62.38a1.05,1.05,0,0,1,1.4-1.26c23.56,10.41,36.11,44.82,39.85,56.79a1,1,0,0,0,1.72.21c3.39-4.39,6.81-8.63,10.22-12.71a1,1,0,0,0,0-1.27c-9.17-10.57-32.51-48.74-30.51-64.69a1.05,1.05,0,0,1,1.58-.78c19.74,12.79,30.48,47.13,33.67,58.91a1,1,0,0,0,1.69.3c5.14-5.86,10.23-11.32,15.2-16.37a1,1,0,0,0,.2-1.14c-8.69-17.5-24.47-48.6-22.86-62a1.05,1.05,0,0,1,1.57-.79c17,10.95,24.36,44.85,26.44,56.57a1,1,0,0,0,1.65.44c3.53-3.41,7-6.59,10.22-9.54a1,1,0,0,0,.22-1.25c-5.42-9.33-23.06-50.56-22.5-66.47a1,1,0,0,1,1.63-.82c21.9,16,24.71,50.9,25,62.59a1,1,0,0,0,1.62.63c4.89-4.25,9.32-7.93,13.14-11a1,1,0,0,0,.34-1.12C898.88,249.06,884,211.87,884,191.91a1.05,1.05,0,0,1,1.63-.86c23.28,17.32,22.12,61.74,21.21,69.41l.92-.7,2.75-2.09,4.33-3.31.15-.11c-10-33.43,18.15-57.07,24.39-61.82a1,1,0,0,1,1.55.52c3.29,16-15.56,39.3-25.55,61l1.26-1a4.33,4.33,0,0,1,.75-.46,1.21,1.21,0,0,0,.3-.2c16.47-16.42,40.32-37.61,76.8-42a1,1,0,0,1,.78,1.63c-20.38,22.52-56.76,38.28-77.26,42.75a.27.27,0,0,1-.08.07c-.49.39-1.09.85-1.78,1.38l-1.2.93a1,1,0,0,0,.64,1.75c14.66-2,48.5-5.7,61.38,1.37a1,1,0,0,1-.09,1.74c-16.14,8.6-47.39,7.25-66-1a1,1,0,0,0-1,.14l-.67.52c-1,.75-2,1.52-3,2.42-3.48,2.85-7.55,6.24-12.06,10.15a1,1,0,0,0,.79,1.69c11.51-2.69,37.15-5.52,65.63,11.86a1,1,0,0,1-.21,1.75c-15.66,6.65-61.52-3.14-73.21-8.3a1,1,0,0,0-1.08.2c-3.28,3-6.72,6.22-10.26,9.69a1,1,0,0,0,.65,1.67c10.28-.4,40.93,0,65.5,16.93a1,1,0,0,1-.46,1.81c-14.49,2.91-40.16-1.19-71.89-13.34a1,1,0,0,0-1.1.26c-4.9,5.06-9.93,10.53-15,16.38a1,1,0,0,0,.68,1.61c13.29-.17,54.41-1.05,70.29,14.56a1,1,0,0,1-.78,1.7c-18.12.2-64.66-5.12-75.13-10.79a1,1,0,0,0-1.27.28Q842.06,328.28,837,335a.94.94,0,0,0,.79,1.55c25.2-2,59.6,4.65,73.09,16.36a1,1,0,0,1-.64,1.76c-18.28,1.72-60.21-3.2-78-11.89a1,1,0,0,0-1.27.34c-.06.07-.11.15-.17.23l-2.6,3.56-2.5,3.68L820.64,358l-1.46,2.32a.93.93,0,0,0,.93,1.46c26.93-4.12,57.72,2.29,73.18,15.58a1,1,0,0,1-.77,1.76c-11.44-.5-55.07-2.9-77.43-10.88a1.06,1.06,0,0,0-1.22.44l-.52.86L811,373.45c-2.06,3.4-4.06,6.86-6,10.35a.93.93,0,0,0,.79,1.43c27.3.1,64.47,6.26,76.16,19.46a1,1,0,0,1-.85,1.67c-10.43-.25-55.41-2-79.58-14.1a1,1,0,0,0-1.36.47q-3.49,6.63-6.8,13.35c-.54,1.07-1.06,2.15-1.58,3.23a.92.92,0,0,0,.88,1.36c15.32-.92,56.22-1.86,74.64,12.77a1,1,0,0,1-.3,1.7c-16.86,7-60.62,2.36-78.42-6.55a1.06,1.06,0,0,0-1.39.54c-3.11,6.9-6,13.83-8.83,20.73v0a.92.92,0,0,0,.91,1.29c21.88-1.36,59.73,1.74,76.21,11.52a1,1,0,0,1-.13,1.73c-11,5.72-57.79,3.36-80.3-3.42a1.06,1.06,0,0,0-1.28.66q-3.53,9.36-6.64,18.56a.92.92,0,0,0,.9,1.25c17.46-.52,59.29-.61,74.84,9.49a1,1,0,0,1-.3,1.75c-23.12,9-54.45,3.63-77.45-3.35a1.06,1.06,0,0,0-1.29.7q-2.94,9-5.52,17.67a.93.93,0,0,0,1.18,1.17c15.08-4.46,44.65-9.81,68.54,6.7a1,1,0,0,1-.68,1.82c-13.33-.37-43,4.93-71,.15a1,1,0,0,0-1.18.76c-2.58,9-4.9,17.53-7,25.49-4.7,17.84-8.42,32.75-11.13,43.19-1.35,5.22-2.43,9.31-3.18,12.11l-.57,2.14a2.51,2.51,0,0,1-2.95,1.67,2.12,2.12,0,0,1-1.79-2.6c.16-.59.35-1.31.58-2.13.76-2.78,1.86-6.86,3.24-12.06,2.78-10.4,6.6-25.3,11.43-43.16,2.17-7.94,4.55-16.47,7.18-25.43a.93.93,0,0,0-.67-1.19l-1.76-.41c-7.82-1.94-43.66-2-83.4-16.27a1,1,0,0,1,.17-1.89c55.31-15.55,80.37,10.08,83.86,14.07a.92.92,0,0,0,1.09.23c.47-.19,1.19-.48,2.14-.84a1,1,0,0,0,.65-.69c2.14-7.06,4.43-14.35,6.92-21.81a.92.92,0,0,0-.57-1.19l-1.49-.51c-5.26-1.79-58.71-24.3-63.09-51.1a1.07,1.07,0,0,1,1.2-1.21c39.05,6.18,61.19,42,63.86,46.57a.93.93,0,0,0,.85.44l.92,0a1.08,1.08,0,0,0,1-.72c2.36-6.8,4.86-13.72,7.53-20.68a.93.93,0,0,0-.47-1.21l-.69-.3-.11-.05c-16.49-9.83-48.22-45.33-51.66-63.54a1.07,1.07,0,0,1,1.2-1.22c20,2.63,49.86,51.8,53.19,57.37a.92.92,0,0,0,.93.43l.4-.05a1.08,1.08,0,0,0,.87-.66c.32-.81.64-1.61,1-2.41,3.09-7.48,6.33-15,9.8-22.47l-.36-.26c-11-8.61-54.24-45.44-53.88-65.2a1.07,1.07,0,0,1,1.46-1c40.58,18.39,54.9,61.37,54.9,61.37l.28,0c1-2.14,2.07-4.27,3.14-6.4q3.48-6.93,7.14-13.77a.94.94,0,0,0-.26-1.24c-11.85-8.15-41.85-43.18-45.55-63.91a1.05,1.05,0,0,1,1.45-1.12c30,13.56,43.73,47.31,47.32,57.58a1,1,0,0,0,1.79.06q3-5.26,6.13-10.4l2.39-4c.21-.36.44-.71.66-1.07a1,1,0,0,0-.06-1.17C798.55,351.6,772,310.55,771,296.7a1.06,1.06,0,0,1,1.34-1.07c25.71,7.43,38.8,49.55,42.33,62.85a1,1,0,0,0,1.79.18l1.49-2.32Q820.57,352.59,823.11,348.88Z"/><path class="cls-14" d="M953.94,77.15c3.57-16.06-16.5-48-54.18-13.91-10.49,6.7-17.75-8.63-32.47-7.42-17,1.4-24.92,16.38-34.56,13-15.54-5.47-35.75,7.71-32.24,15.24-3.22,8.38,23,16.51,47.31,12.29s38.15-5.64,53.28-1.41C919.3,100,950.65,92,953.94,77.15Z"/><path class="cls-15" d="M375.64,30.91c-9.2-18,15.64-38.88,30.24-27.82C425.6,18,430,5.61,440.5,4.63c16.66-1.54,20.6,22.67,31.12,14.94,8-5.9,20.6-3.09,23.23,7.73,4.35,17.9-33.75,7.22-54.35,12.88C403.81,50.28,383,45.4,375.64,30.91Z"/><path class="cls-16" d="M827.12,561.88c8,13.65,20.59,39.33,30.9,43,30.85.65,35.54-19.89,34.37-22.54-13.76-4.78-34.91-17.78-41.41-24.27-7.65-7.64-3.65-13.27,4.58-7.21,12.15,8.93,48.9,32.07,58.77,28.21,20-7.84,22.62-27,20.76-30-26.89,5.67-60.62-13.65-67.8-17.83-9.73-5.67-6.88-16.38,6.9-9.86,39.52,18.73,62.24,23.35,69.21,19.33s11.18-22.78,11.18-22.78-38.9-2.26-54.8-7.62c-13.45-4.53-7.29-12.29,2.51-10.72,10.22,1.63,51.5,6.87,59.22-1.66,11.47-12.68,4.85-27.53,7.42-37.65-7.29-3.71-42.39-37.61-52.69-31.42-40.21,27.28-33.68,43.64-47.61,58.91-7.79,8.54-13.78,1.25-9.92-6.17,20.54-39.52,37.2-57.12,36.81-57.52-5.33-5.45-19.21-8.92-27.37-3.31-20.25,18.09-28.53,54.75-33.06,64.24-3.41,7.14-7.68,2.95-7.27-2.45s8.5-54.64,25.76-64.41c-11.37-4.74-32.86,4-35.71,6.55-4.88,4.39-11.12,47.2-12,55.37s-5.7,14.14-10.07-.19c-5.11-16.74-1.5-36.13,12.29-41.93-20.23-1.73-46.71,19.25-43.4,31.67,0,0,3.88-2.38,6,2.91,3.72,9.37,14.44,24.74,14.57,28.09.17,4.3-10.39,2.43-14.73-3.16-6.72-8.62-6.09-16-9.12-17.72-2.09-1.19-16.36,15.85-11.68,30.47,7.31,28.57,35.12,18,47.14,13.93,6.2-2.12,8.43,2.12,1.67,5-14.93,6.31-30.64,16.13-30.17,33.3.45,16.64,12.52,27.87,24.86,34.62-5.4-7.84-7-19.72-3.33-27.41,3.2-6.68,7.55-10.17,7.28.65.14,3.17.07,16.14,1.26,27.29C800,612.34,827,618.43,840,610.73c-23.15-13.09-21.3-38.7-21.85-44.14C817.42,559,822.93,554.71,827.12,561.88Zm71.77-87c-.73-.57.38-3.15,8.05-11s19-18,19.72-17.48-9,12-16.65,19.86S899.63,475.44,898.89,474.87ZM808.75,513.1c-.9-.17-2.25-2.39-2.55-5.26-.43-4.12,2.19-7.69,4-3.57S811.09,513.56,808.75,513.1Zm42,9.86c2.88,2.25.4,3.62-1.59,3.23s-4.47-2-4.66-4.67S848,520.8,850.71,523Zm84.63-38.29c6.66-.08,14.88.91,14.76,2.25s-8.54,2.52-15.2,2.59-9-1-8.91-2.31S928.68,484.75,935.34,484.67ZM813.7,543c-1.32-2.11-3.77-9.59-1-8.93,2.57.59,2.73,3.15,4.35,6.45S815,545.13,813.7,543Zm22.75-2.74a49.16,49.16,0,0,1-8.34-7.08c-5.8-5.46.19-10.26,4.8-6a58.72,58.72,0,0,1,6.58,7C842.83,538.63,840.74,543,836.45,540.29Z"/><path class="cls-13" d="M195.35,544.08c-2.32,7-7.71,40.59-40.71,54.42,14.07,11.83,49.73,7.65,56.17-11.4,4.85-14.34,8.65-31.24,9.78-35.34,2.92-14.13,7.33-9,9.34.17,2.32,10.51-3.28,25.75-12.43,35.21,17.52-7.07,36.05-20,41.63-41.61,5.75-22.28-11-37.25-27.85-47.54-7.63-4.67-3.55-9.87,3.59-6.24,13.86,7,45.59,24.59,63.36-11.58,10.27-18.37-2.51-42.54-5.49-41.28-4.32,1.81-5.75,11.51-16.78,21.8-7.13,6.66-20.95,7.63-19.44,2.06,1.17-4.35,19.26-22.86,26.74-34.54,4.22-6.59,8.38-2.95,8.38-2.95,7.9-15.71-19-46.69-44.94-47.26,15.56,9.47,14.26,35.2,2.81,56.28-9.81,18.05-14.11,9.59-12.7-1.16s6.46-67.33,1.65-73.72c-2.8-3.73-27.15-18.09-42.85-13.51,18.73,15.12,14.06,80.35,13,87.43s-7.74,11.94-9.87,2.17c-2.83-13-2.2-61.84-22.16-88.21-8.56-8.43-27-5.85-35.36.5-.61.47,15,25.69,28.9,80,2.61,10.19-7.11,18.85-14.31,6.65-12.89-21.81.23-42.2-42-83.31-11.07-9.49-65.32,29.76-75.59,33.57.18,13.53-12.59,31.93-2,50,7.12,12.18,60.51,11.1,73.83,10.4,12.78-.67,18.17,10.28-.07,14.31-21.58,4.76-71.08,2.29-71.08,2.29s-.35,25,7.18,31.2,37.44,3.35,92.69-15.52c19.25-6.57,19.61,7.77,5.69,13.79C134.1,495.63,86,516.07,53.9,505c-3.25,3.72-5.78,29,17,42,11.22,6.39,64.31-18.6,82.25-28.54,12.16-6.74,15.49,1.14,3.58,10-10.11,7.54-40.57,21.53-59.28,25.83-2.26,3.28-2.56,30.67,36.36,34.11,14-3.31,37.63-35,51.72-51.63C193,528,198.59,534.35,195.35,544.08Zm-85-143.42c-7.25-11.31-16-27.53-14.92-28.17s12.24,14.2,19.5,25.51,7.87,14.83,6.77,15.47S117.56,412,110.3,400.66Zm113.88,63.42c3.46-5.11,5.68-.1,3.9,5.2-1.24,3.69-3.6,6.39-4.79,6.5C220.22,476.05,220.73,469.18,224.18,464.08Zm-48.24,17.68c-1,3.4-4.65,5.21-7.26,5.44s-5.31-1.9-1-4.43C171.78,480.34,177,478.36,175.94,481.76Zm-92-56c-.26,1.76-3.55,2.8-11.88,1.77S53.51,423.78,53.76,422s10.86-1.9,19.19-.87S84.18,424,83.93,425.74Zm120.64,84.6c3-4.07,4-7.37,7.4-7.79,3.72-.46-1.61,8.93-3.9,11.49S201.55,514.41,204.57,510.34Zm-26.23-11.27a91.09,91.09,0,0,1,10.37-8.24c7.09-5,13.16,2.13,4.24,8.42a73.89,73.89,0,0,1-12.6,8.05C174.15,510.21,172.84,504.25,178.34,499.07Z"/><path class="cls-17" d="M130.72,94.53c-11.76-18.67,20-40.26,38.64-28.81,25.2,15.47,30.8,2.61,44.24,1.6,21.28-1.6,26.32,23.48,39.76,15.47,10.27-6.11,26.32-3.2,29.68,8,5.55,18.53-43.12,7.47-69.44,13.34C166.72,114.59,140.17,109.54,130.72,94.53Z"/><path class="cls-18" d="M771.7,232.52V562.15H258.17V232.52c0-12.24,9.49-22.18,21.15-22.18H750.54a20.1,20.1,0,0,1,8,1.64,22.1,22.1,0,0,1,13.1,19A15,15,0,0,1,771.7,232.52Z"/><rect class="cls-5" x="287.53" y="242.15" width="454.8" height="290.24" rx="11.29"/><path class="cls-19" d="M742.33,273.52V253.44A11.28,11.28,0,0,0,731,242.15H298.82a11.29,11.29,0,0,0-11.29,11.29v20.08Z"/><path class="cls-20" d="M258.17,559.6,228.57,614c-2.72,5,1.88,10.58,8.72,10.58H792.58c6.83,0,11.43-5.58,8.71-10.58L771.7,559.6Z"/><path class="cls-21" d="M227.82,619.14H802a0,0,0,0,1,0,0v1.66a16.14,16.14,0,0,1-16.14,16.14H244a16.14,16.14,0,0,1-16.14-16.14v-1.66A0,0,0,0,1,227.82,619.14Z"/><path class="cls-22" d="M556.92,612.11c2.56,0,4.39-1.71,3.61-3.38L554,594.66a3.23,3.23,0,0,0-2.94-1.84H478.82a3.23,3.23,0,0,0-2.94,1.84l-6.54,14.07c-.78,1.67,1,3.38,3.61,3.38Z"/><path class="cls-22" d="M736.58,572.86H293.28a1.63,1.63,0,0,1-1.36-2.53l3-4.51a1.64,1.64,0,0,1,1.36-.73H733.62a1.67,1.67,0,0,1,1.37.73l3,4.51A1.64,1.64,0,0,1,736.58,572.86Z"/><path class="cls-22" d="M744.63,586.68H284.23a.93.93,0,0,1-.77-1.46l4-6a1,1,0,0,1,.78-.41H740.61a1,1,0,0,1,.78.41l4,6A.93.93,0,0,1,744.63,586.68Z"/><path class="cls-22" d="M575.08,600.48H752.43a1,1,0,0,0,.81-1.51l-3.87-5.88a1,1,0,0,0-.81-.44H571.81a1,1,0,0,0-.85,1.45l3.27,5.88A1,1,0,0,0,575.08,600.48Z"/><path class="cls-22" d="M454.83,600.48H277.48a1,1,0,0,1-.82-1.51l3.87-5.88a1,1,0,0,1,.82-.44H458.09a1,1,0,0,1,.86,1.45L455.68,600A1,1,0,0,1,454.83,600.48Z"/><rect class="cls-23" x="319.34" y="304.66" width="181.18" height="28.86" rx="1.72"/><path class="cls-24" d="M421,367.15c0,.44,0,.89,0,1.33v52.88H364.82v-53.1c0-.37,0-.74,0-1.11.25-6.41,2.71-20.24,14.28-23.11a8.1,8.1,0,0,1,7.23,1.33c1.76-3.21,4.47-4.31,7.85-4.48a29.6,29.6,0,0,1,6.14,1C412.11,345.15,421,355.41,421,367.15Z"/><path class="cls-25" d="M427.63,414.94V517.86H358.74L358.2,415a3.43,3.43,0,0,1,3.42-3.44l16.24,0a4.72,4.72,0,0,0,4.72-4.73V385.15h20.66V406.8a4.73,4.73,0,0,0,4.73,4.73l16.24,0A3.43,3.43,0,0,1,427.63,414.94Z"/><path class="cls-26" d="M427.63,413.72l-.2,110.56A10.55,10.55,0,0,1,417,534.81l-43.79.42a14.38,14.38,0,0,1-14.51-14.32l-.48-104.53a4.78,4.78,0,0,1,4.78-4.8h13.66a2.24,2.24,0,0,1,1.43.53,23.12,23.12,0,0,0,14.23,5.32h.61a23.11,23.11,0,0,0,14.88-5.37,2.25,2.25,0,0,1,1.43-.53h16.2A2.2,2.2,0,0,1,427.63,413.72Z"/><path class="cls-27" d="M414.9,380c-.83,3.23-2.68,5.63-4.37,5.8-2.69,9.52-9.57,16.3-17.63,16.3s-14.94-6.78-17.63-16.3c-1.69-.17-3.54-2.57-4.37-5.8-.93-3.66-.2-6.55,1.63-7a2.41,2.41,0,0,1,1.73.27c1.32-12.18,9.16-21.54,18.64-21.54s17.32,9.36,18.64,21.54a2.43,2.43,0,0,1,1.74-.27C415.1,373.46,415.83,376.35,414.9,380Z"/><path class="cls-24" d="M391.46,359.64s-1.58.82-3.82,2.17c-4.16,2.5-10.56,6.89-13.19,11.43-.07.11-.14.23-.19.33-8.2-7.1-6.83-13.66-5.74-17.75a7.49,7.49,0,0,1,.67-1.53s0-.05,0-.08c1.66-2.93,5.72-7.77,10.09-8.89a6.62,6.62,0,0,1,6.73,2,17.75,17.75,0,0,1,3.59,6.13A43.74,43.74,0,0,1,391.46,359.64Z"/><path class="cls-24" d="M411.53,373.16h-.19c-9.69-.06-19-4.89-23.7-11.35a15.9,15.9,0,0,1-2.82-6.29,12.1,12.1,0,0,1,.5-6.53,12.45,12.45,0,0,1,.73-1.65,9.33,9.33,0,0,1,8.1-5.09,15.54,15.54,0,0,1,6.14,1,26.89,26.89,0,0,1,11.38,8.46C419.32,361.2,420.13,373.16,411.53,373.16Z"/><path class="cls-26" d="M453.78,478.17,443.41,428c-2.2-9.82-9.75-16.84-21-16.52l-.12,45.63,7.87,19.23c.74,2.17-4.68,8.11-6.9,8.62l2,26.36s8.42-5,19.17-12.38C451.24,494.27,456.32,487.49,453.78,478.17Z"/><path class="cls-26" d="M331,482.41,342,428c2.2-9.82,9.75-16.84,21-16.52L363,457.1l-7.87,19.23c-.74,2.17,1.1,20.81,3.32,21.33L358,518.94s-10.7-3-14.72-5.19C333.93,508.67,328.42,495.11,331,482.41Z"/><path class="cls-28" d="M412.28,557l-36,.42c-9.86,0-26.7-8.53-25-22,.46-3.64,3-13.13,7.62-18.64l70.31.43c2.11,6.35,5.7,14.21,5.92,19.48C435.66,548.84,422.13,557,412.28,557Z"/><rect class="cls-9" x="346.42" y="468.25" width="94.23" height="64.32" rx="9.92"/><path class="cls-27" d="M329.87,550.83c14.1,7.6,69.22,25.57,90.53,27.82,4.31,1.27,8.81,2.72,13.32,4.15,14.66,4.66,29.54,9.07,39.14,6.23,6.85-5.31,6.05-13.12,1.92-17.38l-.22-.2-.16-.13-.22-.15-.37-.21a6.41,6.41,0,0,0-1.37-.55l-.21-.07c-6.55-1.75-21.75.73-36.84-.62l-.78-.07c-1.46-.15-6.3-2.12-7.63-2.73a604.66,604.66,0,0,1-77.68-43c-14.87-11.46-32.6-14.77-38.75-6.29C301.86,529.56,315.77,543.24,329.87,550.83Z"/><path class="cls-29" d="M310.55,517.6c6.15-8.48,23.88-5.17,38.75,6.29,30.95,19.9,49.57,26.45,78.07,38.42,0,0-2.43,14.2-6.1,20.21-31-5.69-77.3-24.09-91.4-31.68S301.85,529.56,310.55,517.6Z"/><path class="cls-5" d="M419,558c3,1.19,6.33,2.32,9.16,3.77a.8.8,0,0,1,.43.83c-.78,5.29-3.71,15.81-7,20.61a.85.85,0,0,1-.86.33c-3.69-.66-5.86-.92-9.78-1.88a.8.8,0,0,1-.54-1.18c3-5.22,6.24-14.42,7.41-21.84A.85.85,0,0,1,419,558Z"/><path class="cls-30" d="M472.86,589c-9.6,2.84-24.48-1.57-39.14-6.23a11.82,11.82,0,0,0,2.77-4.52,3.59,3.59,0,0,0,.14-.43,9.54,9.54,0,0,0,.11-4.57,12.37,12.37,0,0,0-1.35-3.56c15.09,1.35,30.29-1.13,36.83.62l.22.07a8.48,8.48,0,0,1,1.37.55l.36.21.23.15a1,1,0,0,1,.15.13l.23.2C478.91,575.91,479.71,583.72,472.86,589Z"/><path class="cls-26" d="M457.86,578.66a3.41,3.41,0,0,1-4.1,2.63l-17.27-3a3.59,3.59,0,0,0,.14-.43,9.54,9.54,0,0,0,.11-4.57l18.1,1.47a3.39,3.39,0,0,1,3.07,3A3,3,0,0,1,457.86,578.66Z"/><path class="cls-27" d="M455.93,550.83c-14.1,7.6-69.21,25.57-90.53,27.82-4.31,1.27-8.8,2.72-13.32,4.15-14.66,4.66-29.54,9.07-39.14,6.23-6.85-5.31-6.05-13.12-1.92-17.38l.23-.2c0-.05.1-.08.15-.13l.23-.15L312,571a6.41,6.41,0,0,1,1.37-.55l.22-.07c6.54-1.75,21.75.73,36.83-.62l.78-.07c1.46-.15,6.3-2.12,7.64-2.73a606,606,0,0,0,77.68-43c14.86-11.46,32.59-14.77,38.74-6.29C484,529.56,470,543.24,455.93,550.83Z"/><path class="cls-4" d="M475.26,517.6c-6.16-8.48-23.89-5.17-38.75,6.29-31,19.9-49.57,26.45-78.08,38.42,0,0,2.44,14.2,6.1,20.21,31-5.69,77.3-24.09,91.4-31.68S484,529.56,475.26,517.6Z"/><path class="cls-5" d="M366.83,558c-3,1.19-6.33,2.32-9.16,3.77a.8.8,0,0,0-.43.83c.78,5.29,3.72,15.81,7,20.61a.86.86,0,0,0,.86.33c3.69-.66,5.86-.92,9.78-1.88a.8.8,0,0,0,.54-1.18c-3-5.22-6.24-14.42-7.41-21.84A.85.85,0,0,0,366.83,558Z"/><path class="cls-30" d="M352.08,582.8c-14.65,4.66-29.53,9.07-39.14,6.23-6.85-5.31-6.05-13.12-1.92-17.38l.23-.2a1.12,1.12,0,0,1,.16-.13l.22-.15L312,571a8.48,8.48,0,0,1,1.37-.55l.22-.07c6.54-1.75,21.75.73,36.83-.62a12.37,12.37,0,0,0-1.35,3.56,9.54,9.54,0,0,0,.11,4.57,3.59,3.59,0,0,0,.14.43A11.94,11.94,0,0,0,352.08,582.8Z"/><path class="cls-26" d="M349.31,578.28l-17.26,3a3.42,3.42,0,0,1-4.11-2.63,3.3,3.3,0,0,1-.05-.94,3.39,3.39,0,0,1,3.07-3l18.1-1.47a9.54,9.54,0,0,0,.11,4.57A3.59,3.59,0,0,0,349.31,578.28Z"/><path class="cls-23" d="M420.72,411.52l-14.94,19a3.24,3.24,0,0,1-5.31-.31l-7.92-12.85c.2,0,.4,0,.6,0a22.39,22.39,0,0,0,15.08-5.81h12.49Z"/><path class="cls-23" d="M364.9,411.52l14.93,19a3.25,3.25,0,0,0,5.32-.31l7.91-12.85a5.82,5.82,0,0,1-.59,0,22.41,22.41,0,0,1-15.09-5.81H364.9Z"/><path class="cls-31" d="M432.77,480.13a4.77,4.77,0,1,1-4.77-4.77A4.76,4.76,0,0,1,432.77,480.13Z"/><path class="cls-32" d="M684.11,213.63l-41.12,0a1.27,1.27,0,0,1-.6-2.4l28.84-15.43a9.88,9.88,0,0,1,4.64-1.16l43,0Z"/><path class="cls-33" d="M718.85,194.64l-34.74,19,25.26-56.35a7.43,7.43,0,0,1,3.2-3.47l27.53-15.05a1.93,1.93,0,0,1,2.68,2.48Z"/><path class="cls-34" d="M439.15,196.56c15.89-24.74,22.94-55.56,22.93-74.9a4.63,4.63,0,0,1,2.44-4.09c4.41-2.37,6.53-4.74,6.75-8.82.25-4.81-4.6-9.32-4.6-16.18,0-7.28-2.52-15.53-6.59-16.75a.77.77,0,0,0-1,.76c.1,3.48,1.09,15.43-3.49,28.61l-40,92a16.63,16.63,0,0,0-1.31,5.14l-.08.87S438,198.33,439.15,196.56Z"/><path class="cls-26" d="M456.8,101.33c2.82,3.36,5.36,6.74,8.21,16,4.07-2.28,6.05-4.61,6.26-8.54.25-4.81-4.6-9.32-4.6-16.18,0-7.28-2.52-15.53-6.59-16.75a.77.77,0,0,0-1,.76A77.3,77.3,0,0,1,456.8,101.33Z"/><path class="cls-35" d="M630.49,141.4c8.24,1.55,14.52,34.46,19,46.3s-5.29,18-9.31,11.2c-8-13.47-17.75-38.83-20.57-46.15C617.82,148,621.47,139.71,630.49,141.4Z"/><path class="cls-27" d="M653.54,189.63c-2.94-1.48-12.86,0-10.95,5.74,1.27,3.86,3.47,10.46,9.69,11.46C657.32,207.64,658.67,192.22,653.54,189.63Z"/><path class="cls-25" d="M639,129.36l-11.27,16s-15.71-8.09-14.91-11.74S630,114.92,630,114.92Z"/><path class="cls-27" d="M651.14,125.66a1,1,0,0,0-1.43.4c-1.15,2.08-4.05,6.94-6.16,7.32-2.7.47-15.08-10.32-15.08-13.49s1.59-8.73,1.59-8.73-4.29-2.06-4-7.93c1-18.44,13.33-29.2,26.34-21.58,7.22,4.22,10.63,10.47,11.43,15.87s-1.43,11-2.23,13.48c-.6,1.93-5,11.61-6.82,15.48a1,1,0,0,1-1.46.46Z"/><path class="cls-36" d="M292.77,212.64H430.31c5.51-.56,7.61,1.4,13.81,2,11.79,1.07,92.58-5.35,121.48-8.72,14.7-1.72,49.71-11.1,58.62-14.66,14.09-5.64,16.35-11.27,17.47-20.86.84-7.08.77-27.69-9-34.38-10.71-7.33-25.1-9.46-34.95,5.07-10.71,15.78-21.42,24.8-28.19,28.18s-15.22,9.59-22.55,5.08-17.9-9.36-28.18-9.58c-13.25-.3-18,4.5-25.93,10.71-19.73,2.25-47.67,9.09-68.44,15.37a13.88,13.88,0,0,1-6.21.44c-29-4.7-60.1,1.14-77.83,8.88a4.65,4.65,0,0,1-4.73-.61c-3.93-3.1-6.94-4.1-10.77-2.66-4.51,1.69-3.39,7.32-10.15,8.45C309.16,206.24,293.89,205.88,292.77,212.64Z"/><path class="cls-30" d="M335.61,199.47c-3.9-3.06-6.91-4-10.71-2.61-4.51,1.69-3.39,7.32-10.15,8.45-5.59.93-20.86.57-22,7.33h28C325,205.45,335.61,199.47,335.61,199.47Z"/><path class="cls-37" d="M641.69,170.36c-.92,7.84-2.59,13-10.89,17.76a49.31,49.31,0,0,1-4.54,2.25c-.65.29-1.33.56-2,.85-2.32.93-6.4,2.25-11.43,3.71-1.38.41-2.85.83-4.36,1.26-14.11,4-33,8.54-42.83,9.69-4.72.54-16.7,3.59-20.51,2.32-4.16-13.72-3.34-27,1.25-34.71a.5.5,0,0,1,.64-.19c5.93,2.56,16.17-.87,22.56-4.06,6.77-3.38,17.47-12.41,28.19-28.19,9.86-14.53,24.24-12.4,34.94-5.08C642.46,142.67,642.53,163.28,641.69,170.36Z"/><path class="cls-27" d="M618,139.36c8.06-.47,12.47,7.19,11,16.42-2.4,15-1.72,33.69-1.54,43.23a7.89,7.89,0,0,0,6.46,7.58c15.16,2.83,31.66,3.55,43.84,6,6.55,1.34,20.9,4.81,20.92,15.15a1.28,1.28,0,0,1-1.24,1.29c-6.94,0-16.86-8.41-23.06-8-4,.27-38.73-1-54.59-2.64a8.39,8.39,0,0,1-7.51-7.55c-1.25-13.25-3.92-42.23-4.42-54.08C607.66,151.79,608.44,139.92,618,139.36Z"/><path class="cls-35" d="M631.55,164.8c-.22,10-.73,17.16-.75,23.32a52,52,0,0,1-6.58,3.1c-2.32.93-6.4,2.25-11.43,3.71-1.11-10.93-2.26-22.85-2.59-30.55-.21-5,.56-19.35,10.14-19.81C630.7,144.08,632,145.63,631.55,164.8Z"/><path class="cls-35" d="M624.22,191.22c-2.32.93-6.4,2.25-11.43,3.71-1.38.41-2.85.83-4.36,1.26-1.21-11.4-2.3-24.16-2.88-32.17-.95-13.05,3.94-20.79,14.43-16.51C627.7,150.66,624.93,190.93,624.22,191.22Z"/><path class="cls-37" d="M634.3,205.88a6.47,6.47,0,0,1-5.5-6.56c-.15-9.18.21-25.58.42-42.06.12-9-.84-18.39-11.2-17.9-9.59.46-10.36,12.43-10.15,17.47.52,12.17,3.32,42.41,4.52,55.11.32,3.37,1.66,6.51,5,7a125.25,125.25,0,0,0,15,1.48C633.66,217.08,634.72,209.26,634.3,205.88Z"/><path class="cls-26" d="M641.8,77.68c12.85-.22,22.53,7.3,23.17,16.5.61,9-8.65,10.11-17.74,10.16a13.34,13.34,0,0,0-13.17,11.29c-3.06,20.75-18.33,10.94-24.77,32.18-3.87,12.74-24.94,24.31-35.51,12.16-9.47-10.89-.42-23.34,5.81-28.54,10.58-8.84,23.26-.53,24.31-13.75C605.68,95.46,620.82,78,641.8,77.68Z"/><path class="cls-38" d="M729.74,36.9c10-19.57-17-42.21-32.83-30.2-21.41,16.22-26.17,2.74-37.59,1.68C641.24,6.7,637,33,625.54,24.6c-8.73-6.42-22.37-3.36-25.22,8.39-4.72,19.43,36.64,7.83,59,14C699.16,57.93,721.71,52.64,729.74,36.9Z"/><path class="cls-25" d="M168.35,472.16s-15.89-4.56-21.46-3.69c-3.87.6-17.11,7.28-15.66,9.64.93,1.51,15.84-1.06,19.21-.18,4.09,1.06,17,3.39,17,3.39Z"/><path class="cls-25" d="M228.73,422.24C227,414.16,221,404.66,221,404.66L237.51,391a70.72,70.72,0,0,0,21.69,29.84C260.25,421.68,239.51,420.32,228.73,422.24Z"/><path class="cls-27" d="M216,354.42c-13.28,2.31-17.32,12.13-16.74,21.17a183.1,183.1,0,0,0,3.27,22.67,1.66,1.66,0,0,0,2.37,1.09l1.47-.74a2.37,2.37,0,0,1,3.18,1.06l2.94,6a4.34,4.34,0,0,0,6.11,1.83c5.57-3.3,12.79-6.92,14.54-12.44,1.4-4.45,1.33-9.19,1.92-9.81,3.22-2,9.09-6.41,6.54-17.33C238.86,356.34,226.38,352.61,216,354.42Z"/><path class="cls-26" d="M199,371.74c.63,4.56,15.6-4.38,18,3.88.53,7.73,3,9.25,4.26,6.66,1.33-2.8,3.08-5.86,5.59-4.93,3.6,1.34,2.54,7.46-.51,10.56-2.42,10.89,6.64,21.55,17,23.68,8.23,1.68,17.2,6.09,21.05,19.18,4.35,14.78,5.61-18.74,1-25.73-7.5-11.35-11.57-6.92-12.51-12.89-4-25.8-10.79-35.48-27.14-39.08C216.15,351,196.76,355.37,199,371.74Z"/><path class="cls-27" d="M4.84,568.24l41.86,0,.18,0A2.84,2.84,0,0,0,49,566.71a7.74,7.74,0,0,0,.23-6.8,2.38,2.38,0,0,1,.82-2.74c31.2-23,58.66-41.2,71.1-57.46a2.23,2.23,0,0,1,3.51,0c10.84,13.51,69.47,72.44,90.88,72.81,23.32.4,34.51-36.63,34.51-36.63L207.81,519,122,473.75a8.5,8.5,0,0,0-10.15,1.67C97.44,490.66,52.49,539,41.3,547.12c-3.86,2.83-9.57,5.66-15.2,8-4.81,2.05-9.56,3.78-13.09,4.92l-.68.22c-4.39,1.4-11.19,2.6-11.48,5.4C.58,568.11,3.84,568.24,4.84,568.24Z"/><path class="cls-30" d="M50.34,540.14a1.64,1.64,0,0,1,.16-2.2c17.49-16.65,49.59-50.08,61.37-62.52A8.5,8.5,0,0,1,122,473.75L207.81,519l42.24,16.92s-11.19,37-34.51,36.63c-25.74-.43-77.92-56.31-90.88-71.93a2.24,2.24,0,0,0-3.51,0c-11.08,14.48-32.37,31.32-59.29,51a1.4,1.4,0,0,1-1.76-.08C57.38,549.12,52.79,543.29,50.34,540.14Z"/><path class="cls-24" d="M4.84,568.24l41.86,0,.18,0A4.42,4.42,0,0,0,49,566.71a7.74,7.74,0,0,0,.23-6.8c-11.15,1-20.71-.06-23.13-4.74-4.81,2.05-9.56,3.78-13.09,4.92l-.68.22c-4.39,1.4-11.19,2.6-11.48,5.4C.58,568.11,3.84,568.24,4.84,568.24Z"/><path class="cls-36" d="M197.87,518.31c11.75,10.48,31.12,21,47.61,26.09a2.3,2.3,0,0,0,2.85-1.43c8.31-23.72,10.54-69.26,12.38-83.57,1-7.79,6.3-23.64-2.4-34.77-5-6.39-12.79-8.73-20.78-7.33-7.38,1.3-13.91,6.75-18.38,12-5.27,6.19-20.91,32.64-20.91,37,0,3,2,8.1,3.39,11.35a9.82,9.82,0,0,1,.47,1.28,11,11,0,0,1,.21,5.26c-.06.33-.13.68-.21,1,0,.05,0,.1,0,.16-.41,2.31-1.24,11.4-2.24,19.89C199.22,510.39,198.56,515.24,197.87,518.31Z"/><path class="cls-34" d="M202.63,494.71l8.21,4a4.85,4.85,0,0,0,6-1.43c8.15-10.7,25-32.39,30.58-40.35,1.86-2.67-1.63-6.06-10.06-10.92-5.19-3-7.79-3.8-15.18,9.19-2.72,4.76-5.79,9.53-11.75,19.1A4.24,4.24,0,0,1,205.3,476l-.15-.06a10.89,10.89,0,0,1,.22,5.26C204.71,484.37,203.69,489.39,202.63,494.71Z"/><path class="cls-34" d="M202.88,502.26l9.49,3.26a5,5,0,0,0,6-1.43c10.57-11.93,28.6-35.86,34.1-42.68,6.66-8.26,5.6-13.06,1.07-14.12-10-2.36-35.63,24.25-41.59,33.82a4.25,4.25,0,0,1-5.09,1.72l-1.68-.63,0,.17C204.7,484.68,203.88,493.77,202.88,502.26Z"/><path class="cls-36" d="M258.3,423.31c-8.58-6.17-16.52,2.13-19.71,9.06C236,438,218.53,466.17,212,476.65a6.34,6.34,0,0,1-6.95,2.8l-38.64-9.77a1.15,1.15,0,0,0-1.4.8l-2.86,9.92a1.15,1.15,0,0,0,.66,1.39L211,502.05A6.35,6.35,0,0,0,218.3,500c8.67-11.39,34.18-45,39.47-53C264.16,437.43,266.2,429,258.3,423.31Z"/><path class="cls-9" d="M102.48,473.21h60.38a1.62,1.62,0,0,1,1.62,1.62v2.5a1.63,1.63,0,0,1-1.63,1.63H102.48a1.62,1.62,0,0,1-1.62-1.62v-2.5a1.62,1.62,0,0,1,1.62-1.62Z" transform="translate(54.18 964.04) rotate(-155.29)"/><rect class="cls-9" x="89.57" y="430.81" width="61.12" height="5.75" rx="1.66" transform="translate(563.72 509.44) rotate(115.17)"/><path class="cls-39" d="M817.67,405.27V539.7c0,10.14-9.33,18.37-20.83,18.37H619c-11.5,0-20.83-8.23-20.83-18.37V405.27c0-10.15,9.33-18.38,20.83-18.38H796.84C808.34,386.89,817.67,395.12,817.67,405.27Z"/><path class="cls-40" d="M819.83,449h-105a23.44,23.44,0,0,0-23.44,23.45h0a23.43,23.43,0,0,0,23.44,23.44h105a5.27,5.27,0,0,0,5.28-5.28V454.32A5.27,5.27,0,0,0,819.83,449Z"/><path class="cls-41" d="M491.26,312.38a12.91,12.91,0,0,1,12.63-13.18H698a12.92,12.92,0,0,1,12.64,13.18V429.94A12.92,12.92,0,0,1,698,443.12H503.89a12.91,12.91,0,0,1-12.63-13.18Z"/><rect class="cls-42" x="491.26" y="394.98" width="219.34" height="31.35"/><path class="cls-43" d="M567.74,361.76H690.55a3.26,3.26,0,0,1,3.29,3.2v12a3.25,3.25,0,0,1-3.29,3.2H567.74a3.26,3.26,0,0,1-3.3-3.2V365A3.26,3.26,0,0,1,567.74,361.76Z"/><path class="cls-44" d="M665.37,316h25.18a3.29,3.29,0,0,1,3.29,3.29v25.18a3.29,3.29,0,0,1-3.29,3.29H665.37a3.31,3.31,0,0,1-3.3-3.3V319.28A3.29,3.29,0,0,1,665.37,316Z"/><path class="cls-45" d="M514.32,325.57H633.93a3.59,3.59,0,0,1,0,7.17H514.32a3.59,3.59,0,1,1,0-7.17Z"/><path class="cls-46" d="M633,299.2H503.89a12.91,12.91,0,0,0-12.63,13.18V429.94a12.91,12.91,0,0,0,12.63,13.18Z"/></g></g></g></svg>