<svg xmlns="http://www.w3.org/2000/svg" width="180.8" height="223.115" viewBox="0 0 180.8 223.115">
  <g id="choices" transform="translate(-48.552)">
    <path id="Caminho_41" data-name="Caminho 41" d="M187.037,176.953H56.246a7.693,7.693,0,0,1-7.694-7.694V7.694A7.693,7.693,0,0,1,56.246,0H187.037a7.693,7.693,0,0,1,7.694,7.694V169.26A7.693,7.693,0,0,1,187.037,176.953Z" transform="translate(0)" fill="#f1f4fb"/>
    <path id="Caminho_42" data-name="Caminho 42" d="M296.846,263.895V230.344c-.4.14-.814.215-1.2.384a16.892,16.892,0,0,0-10.507-5.214q-.888-.089-1.758-.088a17.6,17.6,0,0,0-1.923.105v-40.5a17.331,17.331,0,0,0-17.31-17.311h0q-.871,0-1.759.088c-8.721.873-15.552,8.679-15.552,17.771v44.35l-9.4,9.4a26.759,26.759,0,0,0-7.171,25.208l1.657,7.042h57.233A7.694,7.694,0,0,0,296.846,263.895Z" transform="translate(-102.115 -94.635)" fill="#d5dced"/>
    <circle id="Elipse_3" data-name="Elipse 3" cx="11.541" cy="11.541" r="11.541" transform="translate(71.633 34.621)" fill="#b4e66e"/>
    <circle id="Elipse_4" data-name="Elipse 4" cx="11.541" cy="11.541" r="11.541" transform="translate(71.633 76.936)" fill="#dae169"/>
    <circle id="Elipse_5" data-name="Elipse 5" cx="11.541" cy="11.541" r="11.541" transform="translate(71.633 119.251)" fill="#ffdc64"/>
    <path id="Caminho_43" data-name="Caminho 43" d="M246.361,219.555H184.812a3.847,3.847,0,1,1,0-7.694h61.549a3.847,3.847,0,0,1,0,7.694Z" transform="translate(-74.711 -119.538)" fill="#7f8499"/>
    <path id="Caminho_44" data-name="Caminho 44" d="M230.974,184.245H184.812a3.847,3.847,0,1,1,0-7.694h46.162a3.847,3.847,0,0,1,0,7.694Z" transform="translate(-74.711 -99.615)" fill="#5b5d6e"/>
    <path id="Caminho_45" data-name="Caminho 45" d="M246.361,316.659H184.812a3.847,3.847,0,0,1,0-7.694h61.549a3.847,3.847,0,1,1,0,7.694Z" transform="translate(-74.711 -174.327)" fill="#7f8499"/>
    <path id="Caminho_46" data-name="Caminho 46" d="M230.974,281.348H184.812a3.847,3.847,0,0,1,0-7.694h46.162a3.847,3.847,0,0,1,0,7.694Z" transform="translate(-74.711 -154.404)" fill="#5b5d6e"/>
    <path id="Caminho_47" data-name="Caminho 47" d="M246.361,122.452H184.812a3.847,3.847,0,0,1,0-7.694h61.549a3.847,3.847,0,1,1,0,7.694Z" transform="translate(-74.711 -64.75)" fill="#7f8499"/>
    <path id="Caminho_48" data-name="Caminho 48" d="M230.974,87.141H184.812a3.847,3.847,0,1,1,0-7.694h46.162a3.847,3.847,0,1,1,0,7.694Z" transform="translate(-74.711 -44.826)" fill="#5b5d6e"/>
    <path id="Caminho_49" data-name="Caminho 49" d="M332.819,250.825a9.619,9.619,0,0,0-10.609,9.567v-3.3c0-5.031-3.62-9.614-8.626-10.116a9.619,9.619,0,0,0-10.608,9.567v-3.3c0-5.031-3.62-9.614-8.626-10.116a9.619,9.619,0,0,0-10.608,9.567V195a9.619,9.619,0,0,0-10.609-9.567c-5.005.5-8.625,5.085-8.625,10.116v47.536l-11.658,11.658a19.235,19.235,0,0,0-5.122,18.006l8.049,34.206a26.927,26.927,0,0,0,26.212,20.76h32.528a26.928,26.928,0,0,0,26.928-26.928V260.941C341.444,255.91,337.825,251.326,332.819,250.825Z" transform="translate(-112.092 -104.597)" fill="#f0c087"/>
    <g id="Grupo_5" data-name="Grupo 5" transform="translate(135.124 81.024)">
      <path id="Caminho_50" data-name="Caminho 50" d="M334.882,337.1a3.847,3.847,0,0,0,3.847-3.847v-14.9a9.583,9.583,0,0,0-7.694,9.372v5.529A3.846,3.846,0,0,0,334.882,337.1Z" transform="translate(-294.509 -260.649)" fill="#e6af78"/>
      <path id="Caminho_51" data-name="Caminho 51" d="M379.02,345.931a3.847,3.847,0,0,0,3.847-3.847v-14.9a9.583,9.583,0,0,0-7.694,9.372v5.529A3.847,3.847,0,0,0,379.02,345.931Z" transform="translate(-319.413 -265.63)" fill="#e6af78"/>
      <path id="Caminho_52" data-name="Caminho 52" d="M423.158,354.758A3.847,3.847,0,0,0,427,350.911v-14.9a9.583,9.583,0,0,0-7.694,9.372v5.529A3.846,3.846,0,0,0,423.158,354.758Z" transform="translate(-344.317 -270.611)" fill="#e6af78"/>
      <path id="Caminho_53" data-name="Caminho 53" d="M265.375,307.263l-8.919-37.905a12.412,12.412,0,0,1,3.305-11.619l4.747-4.747v9.636a3.847,3.847,0,0,0,7.694,0V185.933a10.058,10.058,0,0,0-7.694,9.924v47.537l-11.658,11.658a19.235,19.235,0,0,0-5.122,18.006l8.049,34.206a26.927,26.927,0,0,0,26.212,20.76h9.6A26.928,26.928,0,0,1,265.375,307.263Z" transform="translate(-247.217 -185.933)" fill="#e6af78"/>
    </g>
  </g>
</svg>
