<svg xmlns="http://www.w3.org/2000/svg" viewBox="0 0 470.77 294.94"><defs><style>.cls-1{isolation:isolate;}.cls-2,.cls-6{fill:#eac3fc;}.cls-2{fill-rule:evenodd;}.cls-2,.cls-5{opacity:0.55;}.cls-3{fill:#ffe1a7;}.cls-4{fill:#cc50f1;}.cls-7{fill:#9beaff;}.cls-8{fill:#7586a0;}.cls-9{fill:#8ea5ba;}.cls-10,.cls-16{fill:#d1d3d4;}.cls-10{opacity:0.5;mix-blend-mode:multiply;}.cls-11{fill:#f7f6f0;}.cls-12{fill:#dadae0;}.cls-13{fill:#979dfe;}.cls-14{fill:#0c1a55;}.cls-15{fill:#ffad8d;}.cls-17{fill:#ffcd21;}.cls-18{fill:#edf2f0;}.cls-19{fill:#f5f1f2;}.cls-20{fill:#2181f1;}.cls-21{fill:#fff;}.cls-22{fill:#ffd74e;}.cls-23{fill:#ffae36;}</style></defs><title>Ativo 1</title><g class="cls-1"><g id="Camada_2" data-name="Camada 2"><g id="Icons"><path class="cls-2" d="M65.52,91.46c-20.42,29.94-33.9,63.37-23.77,92.71,4,11.46,11.39,21.88,20,31.62s18.75,19,34.33,22.52c30.5,6.86,66.28-11.11,99.89-12.39,21.68-.82,41,5.36,60.43,10.14,25.3,6.2,52.66,10.18,81,7.73s57.8-12,77.18-28.43c20.9-17.74,27.52-40.86,28.2-62.2,1-32.65-9.86-63.93-28.32-91.88-13.52-20.48-33-40.33-64.06-47-12.19-2.64-25.52-3.09-38.81-3C273,11.36,233.76,15.59,195,22.29c-13.51,2.33-27.05,5-40,9.13-16.46,5.27-35.89,12.85-50.35,21.13C87,62.65,75,77.58,65.52,91.46Z"/><path class="cls-3" d="M381,128.87a190.2,190.2,0,0,0,9.52-20.08c-14.88-13.45-9.77-22.19-9.77-22.19,8.67,5.47,11.39,11.58,12,16.22,1.73-4.7,3.34-9.45,4.7-14.27-1.12,0-11,0-16.7-20.08,0,0,13.95.43,16.77,19.84a188.66,188.66,0,0,0,5-23.51c-19-10.29-15.63-20.4-15.63-20.4C399.48,49,402.38,56.82,403,61.4c.62-4.85,1.09-9.7,1.31-14.53-9.09-18.29-1-24.66-1-24.66,8.34,11.53,5.61,20,3.41,23.86C406.45,51,406,56,405.36,60.9c6.63-14,18.15-12.71,18.15-12.71-7.59,16-15.74,17.52-18.77,17.48-.46,3.08-1,6.14-1.65,9.21C413.35,62.58,424.32,67,424.32,67c-10.81,12.51-18.7,12.74-22.07,12-1.13,5-2.48,10-4,14.88,12-12.09,22.83-6,22.83-6-12.9,11.73-20.91,10.3-23.82,9.11A193.77,193.77,0,0,1,383,130C382.29,131.36,380.28,130.19,381,128.87Z"/><path class="cls-4" d="M402.24,99.26c-.77-.14-5.33-1.41-6-11.49,0,0,6.67,1.6,6.16,11.24q2-4,4.26-7.85c-1.5-1-4.13-3.75-3.72-11.72,0,0,5.4,2,5,9.72a92.75,92.75,0,0,1,7.74-10.44c-.41-2.08-.44-6.68,5.67-10.9,0,0,2.35,3.75-3.38,10.05a.73.73,0,0,1-.19.58c-1.66,1.86-3.21,3.82-4.71,5.83,1.93-1.4,5.59-2.83,11.33-.44,0,0-2.27,4.75-12.61,2.17a93,93,0,0,0-6.24,10c7.61-5.76,12.7-1.35,12.7-1.35-8.49,5.05-12.2,2.42-12.93,1.76-1.13,2.12-2.15,4.28-3.12,6.47,1.87-1.39,4.93-2.54,9.76-1.65,0,0-1.17,4.84-11.1,4.76a95.29,95.29,0,0,0-3.56,10.58c-.25.91-1.64.47-1.39-.43A97.16,97.16,0,0,1,402.24,99.26Z"/><path class="cls-4" d="M423.86,69.64a175,175,0,0,1-50.68,48.12l17.19,21.86a194.77,194.77,0,0,0,45.7-63.2A186.52,186.52,0,0,0,452.85,3.34,180.15,180.15,0,0,1,423.86,69.64Z"/><path class="cls-4" d="M436.64,168.54a62.59,62.59,0,0,1-24.21,6.14,58.53,58.53,0,0,1-23.34-3.53l-5.77,27.08a83.84,83.84,0,0,0,33.13-3.17,79.89,79.89,0,0,0,28-15c16-13.48,25.26-32.72,26.31-51.58C465.13,146.5,452.05,161.1,436.64,168.54Z"/><path class="cls-4" d="M367.19,81.07c-8.66,14-20.87,25.21-34.41,31.78l16.12,22.64a103.27,103.27,0,0,0,19.34-22.78A106.76,106.76,0,0,0,380,86.58c5.36-18,5.72-37,.93-54A91.1,91.1,0,0,1,367.19,81.07Z"/><g class="cls-5"><path class="cls-6" d="M391.4,94.68c-9.74,10.12-21.85,17.23-34.11,20.29l11.82,25.11a91.75,91.75,0,0,0,19.94-16.91A93.87,93.87,0,0,0,403,102.46c7.24-14.64,10.34-30.72,8.85-45.83A79,79,0,0,1,391.4,94.68Z"/></g><g class="cls-5"><path class="cls-6" d="M422.47,157.59a44.7,44.7,0,0,1-13.8,4.7,41.24,41.24,0,0,1-13.53,0,31.56,31.56,0,0,1-11.31-4.16L377.09,185A57.11,57.11,0,0,0,397.32,183a58.5,58.5,0,0,0,17-8,55.12,55.12,0,0,0,12.8-12.19A46,46,0,0,0,434.63,148,43,43,0,0,1,422.47,157.59Z"/></g><path class="cls-3" d="M433.78,124.23c-4.1,2.79-8.26,5.44-12.51,7.88s-8.54,4.76-12.89,6.89a55.14,55.14,0,0,1-12.49,4.73,22,22,0,0,1-5.59.52,14.89,14.89,0,0,1-4.7-1A10.86,10.86,0,0,1,382,141a6.34,6.34,0,0,1-1.66-2.57l-17.84,14a29.86,29.86,0,0,0,20,12.06,31.45,31.45,0,0,0,10.12-.18,38.32,38.32,0,0,0,8.81-2.82,71.26,71.26,0,0,0,14.08-8.9c4.14-3.19,8.16-6.54,12.08-10s7.69-7.1,11.36-10.83,7.22-7.59,10.61-11.59a235.37,235.37,0,0,0,18.82-25.22,220.14,220.14,0,0,1-22.55,20.49Q439.95,120.06,433.78,124.23Z"/><g class="cls-5"><path class="cls-6" d="M375.78,118.93l14.34,23.79a149.9,149.9,0,0,0,37-41.34A141.63,141.63,0,0,0,445.74,52C431,83.31,404.86,107.22,375.78,118.93Z"/></g><path class="cls-4" d="M450.42,76.49a104.22,104.22,0,0,1-18.72,23.82,101.13,101.13,0,0,1-24,16.94,88.4,88.4,0,0,1-26.78,8.62l7.68,26.62a112.54,112.54,0,0,0,30.83-18,117.65,117.65,0,0,0,23.07-25.35A113.85,113.85,0,0,0,456.86,79.2a100.45,100.45,0,0,0,4.53-31.85A97.05,97.05,0,0,1,450.42,76.49Z"/><path class="cls-3" d="M408.76,0c-2.24,8.82,4.92,14.09,4.92,14.09S416,5.59,408.76,0Z"/><path class="cls-3" d="M392.05,53.44c-3,8.6,3.7,14.45,3.7,14.45S398.82,59.61,392.05,53.44Z"/><path class="cls-3" d="M427.17,20.39c-3,8.6,3.7,14.45,3.7,14.45S433.93,26.56,427.17,20.39Z"/><path class="cls-7" d="M290.7,278.93c-35.87-18.85-34.5-56.43-97.09-23.77-55.22,28.82-42.36-27.3-78.51-17.43-16.25,4.43-62.83,54.57-63.26,55H363.93C334.18,284,312,290.1,290.7,278.93Z"/><g class="cls-5"><path class="cls-6" d="M80.55,198c-24.09-14.1-39.37-33.86-45.66-53.7,1.93,19.65,11.79,40.8,32.58,58.58,20.56,17.62,52,31.86,92,34.06q7.14-9.47,13.36-19.21C137.08,220.56,104.41,212.12,80.55,198Z"/></g><g class="cls-5"><path class="cls-6" d="M70.51,164.49C38.89,140.37,25,107.15,24.75,76.91c-2.94,29.83,5.59,63.88,34,92,27.72,27.72,75.28,49.52,135.58,44.91q5.66-10.18,10.37-20.52C150.13,203.32,101.47,188.46,70.51,164.49Z"/></g><g class="cls-5"><path class="cls-6" d="M55,111.3a431.47,431.47,0,0,0,68.86,49.77c24.83,14.71,51.31,27.18,75.82,39.34a299,299,0,0,0,25.74-20.47c-31.42-6.53-62.89-14.73-91.8-26.25A371.12,371.12,0,0,1,55,111.3Z"/></g><path class="cls-3" d="M212.57,157.84a272.59,272.59,0,0,0,25-19.73c-22.66-7.51-49-10.47-74.4-12.86C184.35,133.48,202.57,143.66,212.57,157.84Z"/><path class="cls-3" d="M79.67,226c-25.21-7.2-45.05-21.32-54.32-36.9,4.07,15.4,19,32.21,43.72,43.62,24.44,11.43,59.22,17,96.08,9.8q-1.89-8.48-3.79-16.95C135.12,233.45,104.74,233.45,79.67,226Z"/><path class="cls-3" d="M92.83,111.44c22.92,10.1,46,20.16,66.7,31.31,20.57,11.23,38.8,23.55,48.53,40a293.29,293.29,0,0,0,29.47-18.15c-18.65-13.77-43.71-22.16-68.94-30.24C143.17,126.42,117.41,118.89,92.83,111.44Z"/><path class="cls-3" d="M200.42,191.23c-2.67-1.12-5.34-2.23-8.06-3.28-5.31-2.24-10.85-4.32-16.11-6.65-5.5-2.15-10.72-4.54-16.08-6.87s-10.48-4.87-15.83-7.29a447.54,447.54,0,0,1-59-33.92c-2.26-1.58-4.42-3.23-6.62-4.84s-4.5-3.18-6.67-4.83c-4.4-3.24-8.34-6.77-12.52-10.13S51.41,106.56,47.66,103c-.93-.9-1.86-1.8-2.76-2.72S43,98.47,42,97.58c-1.89-1.77-3.74-3.57-5.52-5.41s-3.52-3.68-5.2-5.55c-.84-.94-1.66-1.89-2.47-2.84S27.1,82,26.26,81q-5.1-5.52-9.57-11.35c-2.86-3.93-6-7.66-8.83-11.55S2.41,50.28,0,46.26c2.07,4.17,4.36,8.31,6.87,12.38s5.3,8,7.82,12.12,5.47,8,8.53,12c.76,1,1.57,1.94,2.31,2.93s1.46,2,2.2,3c1.5,2,3,4,4.64,5.9s3.25,3.86,5,5.75c.84,1,1.73,1.88,2.57,2.84s1.63,1.94,2.46,2.9q5,5.76,10.61,11.24c3.73,3.63,7.2,7.43,11.12,11C66,130,68,131.8,70,133.53s3.85,3.57,5.84,5.32A581.93,581.93,0,0,0,127,177.76c4.59,2.94,8.76,6.07,13.38,8.91s8.81,5.88,13.37,8.66c4.28,2.93,8.85,5.67,13,8.54,2.19,1.39,4.28,2.81,6.32,4.22,1.05.71,2.1,1.4,3.05,2.11s2,1.42,2.76,2a307.62,307.62,0,0,0,29.65-17.5c-1.49-.71-2.8-1.24-4.15-1.82S201.77,191.77,200.42,191.23Z"/><path class="cls-3" d="M191.73,210.76c-2.89.37-5.79.67-8.69.87-5.81.5-11.52.59-17.23.6A197.81,197.81,0,0,1,133,209.08a170.07,170.07,0,0,1-55.71-20.2c-2-1.15-4-2.31-5.94-3.52s-3.66-2.51-5.46-3.8c-3.53-2.59-7.23-5.17-10.37-8-6.26-5.6-12.36-11.44-17-17.67-1.23-1.55-2.44-3.1-3.62-4.67a43,43,0,0,1-3.28-4.75q-3-4.83-5.62-9.72a66.54,66.54,0,0,1-4.45-9.89q-1.94-5-3.6-10,.91,5,2.06,10a63.05,63.05,0,0,0,2.86,10q1.86,5,4,10.05a37.9,37.9,0,0,0,2.46,5c.91,1.65,1.85,3.31,2.81,4.95,3.6,6.65,8.66,13.05,13.94,19.34,2.65,3.15,5.88,6.12,9,9.12q2.37,2.25,4.82,4.44c1.7,1.44,3.53,2.83,5.34,4.23,14.26,11.22,32.17,20.75,53.05,27.27a199.73,199.73,0,0,0,33.49,7.3c6,.69,12.05,1.29,18.42,1.46,3.13.13,6.37.16,9.67.1,1.63,0,3.27-.05,5-.14s3.34-.16,5.46-.34q5.28-10,9.73-20.2c-1.07.21-2.57.45-4,.67S193.18,210.58,191.73,210.76Z"/><path class="cls-3" d="M197.66,192.72a292.24,292.24,0,0,0,26.08-19.82c-42.28-10.51-85.62-23.12-123.43-40.89C132.72,154.28,168.21,172.85,197.66,192.72Z"/><path class="cls-4" d="M174.39,175.33a311,311,0,0,1-34.87-10.92c.12-33.23-16.12-36.8-16.12-36.8-2.92,16.71,1.48,26.88,6.42,32.84-7.61-3.17-15.14-6.53-22.49-10.28,1.3-1.29,12.14-13.48-5.93-42.88,0,0-14.87,17.5,5.56,42.7A311.59,311.59,0,0,1,73,129.7c8.5-34.72-7.49-41.94-7.49-41.94-8.31,20.55-2.06,32.83,2.87,38.66-6.57-4.68-13-9.54-19.06-14.69-12.15-31.6-28.79-28.9-28.79-28.9,4.78,23.1,18.06,29.26,25.17,30.91C51.87,119,58.4,124,65.07,128.81c-24.31-7.64-35.45,7.88-35.45,7.88,27.8,8.7,38.63.45,41.91-3.29,4.25,2.89,8.59,5.63,13,8.32-26.24-1.29-32.94,17.1-32.94,17.1,27.11.84,36.1-8.53,39-13.44,7.31,4.24,14.82,8.16,22.45,11.81-27.91,1.09-32.5,21.1-32.5,21.1,28.46-2.57,35.58-13.95,37.34-18.83a316.88,316.88,0,0,0,55.76,19.63C176,179.69,176.79,175.93,174.39,175.33Z"/><path class="cls-3" d="M14.39,48.59c-.31,8.45,7.14,11.89,7.14,11.89S22,52.29,14.39,48.59Z"/><path class="cls-3" d="M33.74,55.36c-.32,8.45,7.13,11.89,7.13,11.89S41.35,59.06,33.74,55.36Z"/><rect class="cls-8" x="198.31" y="247.11" width="86.43" height="47.83"/><path class="cls-9" d="M305.8,294.94H177.24a6.43,6.43,0,0,1-6.43-6.43h0a6.43,6.43,0,0,1,6.43-6.43H305.8a6.43,6.43,0,0,1,6.44,6.43h0A6.43,6.43,0,0,1,305.8,294.94Z"/><rect class="cls-10" x="198.31" y="247.11" width="86.43" height="13.51"/><rect class="cls-8" x="84.55" y="41" width="313.95" height="209.3" rx="8.36"/><rect class="cls-11" x="158.35" y="-12.7" width="166.34" height="293.84" transform="translate(375.74 -107.3) rotate(90)"/><rect class="cls-7" x="103.63" y="62.02" width="275.77" height="19.04" rx="7.4"/><path class="cls-12" d="M373.44,89H272.75c-2.83,0-5.12,2.74-5.12,6.12v82.44c0,3.37,2.29,6.11,5.12,6.11H373.44c2.89,0,5.23-2.74,5.23-6.11V95.11C378.67,91.73,376.33,89,373.44,89Z"/><rect class="cls-7" x="103.63" y="127.59" width="45.46" height="68.14" rx="7.88"/><path class="cls-11" d="M109.72,160.9v3.62h34.07V160.9Zm0,10.42h34.07v-3.63H109.72Zm0,6.79h34.07v-3.62H109.72Zm0,6.8h34.07v-3.63H109.72Zm0,6.79h16.64v-3.62H109.72Z"/><path class="cls-13" d="M120.27,71.54A5.28,5.28,0,1,1,115,66.26,5.28,5.28,0,0,1,120.27,71.54Z"/><rect class="cls-11" x="131.24" y="69.73" width="45.6" height="3.62"/><rect class="cls-11" x="190.08" y="69.73" width="45.6" height="3.62"/><rect class="cls-11" x="248.93" y="69.73" width="45.6" height="3.62"/><rect class="cls-11" x="307.77" y="69.73" width="45.6" height="3.62"/><rect class="cls-14" x="128.4" y="207.81" width="228.43" height="6.56"/><path class="cls-4" d="M195.8,203.44h18.58s-9.59-1.47-19.13-3.09C195.59,202.23,195.8,203.44,195.8,203.44Z"/><path class="cls-4" d="M254.45,190.32c-1.09-3.28-8.74-37.16-18.94-44.81S213.28,139,213.28,139s-2.55-2.18-14.2,1.1-17.49,7.28-23,14.2-20.4,47.36-20.4,51.74,17.85,7.29,58.66,3.28c0,0-1.46-2.19,0-5.83h7.28s3.65-16.4,4.74-22.22,5.1-2.92,8.38,4.37,7.65,18.94,10.93,20.4,48.09,0,48.09,0v-4S255.55,193.6,254.45,190.32Zm-78,6.2c-2.19-1.46,11.66-19.68,13.84-16,1.64,2.73,3.89,14.26,4.92,19.87C186.38,198.85,177.54,197.22,176.49,196.52Z"/><path class="cls-15" d="M204.9,101.79c-6.19,2.92-5.46,16.4-5.46,16.4a20,20,0,0,0,6.5,11.36l.06.06v10.44s4.55,3.28,9.11,0v-8.2l.39-.24a21.46,21.46,0,0,0,5.82-5.77h0c1.27-1.93,2-4,1.44-5.82a7.46,7.46,0,0,1-.23-.9c.13,2.13-.73,4.32-2.33,6.73h-.06a4.91,4.91,0,0,0,.69-1.09,12.79,12.79,0,0,0-.37-8.38,2.56,2.56,0,0,0-2.44-1.46,6.5,6.5,0,0,1,4.35.12c0,.4,0,1.08.06,2.23a9.29,9.29,0,0,1,.39-1.77.93.93,0,0,1-.28-.38c-.1-.28.06-.52.54-.51.43-1.56.73-3.47-.32-7C220.57,100.34,211.1,98.88,204.9,101.79Z"/><path class="cls-16" d="M295.65,208l-.36-3.1s13.63-2.38,16.47-2.2,2.05,5.3,2.05,5.3Z"/><path class="cls-15" d="M224.58,202c-1.82-.73-10.2,1.46-10.2,1.46s-2.19,4.37,0,5.83,4.37-2.55,6.19-2.19,5.83,4,6.56,3.28a1,1,0,0,0,0-1.46s1.09,1.1,1.09,0v-1.09s1.09,1.09,1.46,0S226.4,202.71,224.58,202Z"/><path class="cls-15" d="M302.69,199.24a10.13,10.13,0,0,0-4.47.61c-1.79.64-3.55,1.38-5.28,2.18-.61,2.09-.9,4.47,1.77,4.57,2.31.09,3.78-2.19,5.87-2.8,2.93-.87,6.79-.43,9.84-.59a5.65,5.65,0,0,0-4.4-3.55C304.77,199.49,303.71,199.31,302.69,199.24Z"/><path class="cls-14" d="M221.3,96.33c-10.2-4-14.57,0-19.31,1.09s-16.39,4.74-30.6-1.46-32.06-1.09-36.07,4.38-11.29,9.83-18.94,9.83-11.66,6.2-9.11,14.94,12.75,4.74,18.58,4.37,13.48,11.66,25.5,9.11,10.57-15.67,21.49-10.57,25.08,12,33.1,1.53l.06-.07s-2.92-3.64-4-13.11c0,0,6.19.72,10.2-2.55s2.92-4,6.92-1.46,3.28,2.18,3.28,2.18,0,.12,0,.49,0,1.08.06,2.23c0,.51.06,1.12.1,1.84h0c.13,2.13-.73,4.32-2.33,6.73a49.89,49.89,0,0,1-4.7,5.77l-.39.42s6.55,2.19,9.47-2.91,1.09-10.57,4-13.48S231.5,100.34,221.3,96.33Z"/><path class="cls-14" d="M228.66,97c-1-.73-1.91.91-.95,1.63a6.7,6.7,0,0,1,2.52,4.49c.17,1.19,2,.68,1.81-.5A8.49,8.49,0,0,0,228.66,97Z"/><path class="cls-14" d="M124.64,101.14c-1.38.89-2.1,2.21-1.62,3s2,.62,3.35-.27,2.09-2.21,1.62-2.95S126,100.25,124.64,101.14Z"/><path class="cls-14" d="M102.94,121.05c-.77-.44-2,.35-2.86,1.76s-.86,2.92-.1,3.36,2-.35,2.86-1.76S103.7,121.49,102.94,121.05Z"/><path class="cls-17" d="M206,138.24l-2.42.71s3.87,4,7.88,3.65a11,11,0,0,0,6.68-3.54l-3-.82C210.73,140.08,206,138.24,206,138.24Z"/><path class="cls-17" d="M209.88,141.5s-4.25,2.55-4.25,4.74-.36,6.56.73,6.19,4-3.64,4.37-5.46a25.36,25.36,0,0,0,0-5.47Z"/><path class="cls-17" d="M211.16,141.52l-.55.65s-.82,4.89.84,6.31,4.75,4.53,5.18,3.47-.17-5.42-1.32-6.88A25.39,25.39,0,0,0,211.16,141.52Z"/><rect class="cls-18" x="194.34" y="165.55" width="5.83" height="2.19" rx="0.6"/><path class="cls-19" d="M199.62,114.91a1.71,1.71,0,0,0-1.31.71,3.28,3.28,0,0,0-.51,1.46,28.63,28.63,0,0,0,0,5.78,3.92,3.92,0,0,0,.49,1.81c.73,1.23,2.09,1.17,3.35,1.17a4.5,4.5,0,0,0,.67-1.09,13.12,13.12,0,0,0-.36-8.38A2.54,2.54,0,0,0,199.62,114.91Z"/><path class="cls-4" d="M199.62,114.91a2.47,2.47,0,0,1,2.37,1.46,13.12,13.12,0,0,1,.36,8.38,4.5,4.5,0,0,1-.67,1.09h2.12a2.29,2.29,0,0,0,1.83-2.19c0-1.82,0-5.83-.66-7.65C204.51,114.75,201.41,114.19,199.62,114.91Z"/><path class="cls-15" d="M222.53,119.1a6.24,6.24,0,0,1-.1-1.84c-.05-1.15-.06-1.83-.06-2.23a6.5,6.5,0,0,0-4.35-.12,2.56,2.56,0,0,1,2.44,1.46,12.79,12.79,0,0,1,.37,8.38,4.91,4.91,0,0,1-.69,1.09h.06c1.6-2.41,2.46-4.6,2.33-6.73Z"/><path class="cls-4" d="M222.54,115.11l-.17-.08c0,.4,0,1.08.06,2.23a6.24,6.24,0,0,0,.1,1.84h0c.13,2.13-.73,4.32-2.33,6.73h2.13a2.32,2.32,0,0,0,1.88-2.19c0-1.82,0-5.83-.68-7.65A1.83,1.83,0,0,0,222.54,115.11Z"/><path class="cls-4" d="M199.84,118.92c-.59,0-1.06.73-1.06,1.64s.47,1.64,1.06,1.64,1.06-.74,1.06-1.64S200.42,118.92,199.84,118.92Z"/><path class="cls-19" d="M221.34,106.36a11.55,11.55,0,0,0-9-4.81c-7.17,0-13,7.67-13,17.12v.25h1.11c0-.08,0-.16,0-.25,0-8.65,5.32-15.66,11.88-15.66,4.07,0,9.33,2.79,10.43,12.26C222.6,114.07,223.48,110.9,221.34,106.36Z"/><path class="cls-4" d="M221.85,124.52a6,6,0,0,1-7.53,6.68l-.15.58a6.65,6.65,0,0,0,1.67.22,6.6,6.6,0,0,0,6.6-7.57Z"/><path class="cls-4" d="M214.18,130.27c-1,.28-1.57,1-1.39,1.66s1.11.92,2.06.64,1.58-1,1.39-1.65S215.14,130,214.18,130.27Z"/><path class="cls-20" d="M354.18,110.82c-.13.13,0,.58-.2.73-.5.43-1.44-.09-1.85-.35-1.4-.87-2.16-2.44-3.53-3.34-.37-.24-1.41-.54-.55-1a4.08,4.08,0,0,0-2.66-1.93c.06-2-.55-1.38-2.29-1.93-1.38-.44-2.93-1.86-5.1-2-.75,0-1.09-.8-1.54-1.29.66-.36,2.05,0,2.9-.06a13.62,13.62,0,0,1,2.49-.13,18.86,18.86,0,0,1,2,.16,40.15,40.15,0,0,0-43.15,2.14,10.62,10.62,0,0,1,3.6-.28c1,.11,3.65.61,3.62-.29s-.07-1.18-1.06-1.22-3.25-.09-1.36-1a7.51,7.51,0,0,1,4.64-.49c.72.14,2.53-.59,3.51-1s3.5-1.08,1.92.68-3.05,3.56-3.05,3.56-2.53,1.21.45.74c1.83-.29,3-.86,4.09-1.08-1.54-.31-2.74-.81-2.72-1.61,1.25-.42,2.85.45,4.16.34.71,0,1.36-.4,2.12-.41a14.85,14.85,0,0,1,3.78.66c.81.21,2.3.91,3,.15A12.58,12.58,0,0,0,325,98.43c-1.17-.75-3.76-.46-4.27-1.73a11.59,11.59,0,0,1,3.11-.34c1.77.18,3.54.39,5.3.58,2.07.22,4.93,0,6.83.94.62,1.16-.35.73-1.26.7a15.93,15.93,0,0,0-6.38.86c1.72.86-.31,2-.25,3.13a7.76,7.76,0,0,1-2.46.18c.69.38,1.48.53,2.18.89-1,.15-1.89.46-2.85.55l.08-.1c-.61-.46-2-.86-2.05-1.65.41,0,.57-.15.68-.51-.25,0-2,0-3.85-.15,1.73.57,3,.69,3,.45a6.72,6.72,0,0,1-.94,3.09c-1,1.88,6.31,3.13,6.45,3.65s.28,2.93,1.89,2.84,1.15-1.73,1.15-1.73l1.35-.63.2-1.86-1.18-.93,1.41-1.12s2.17,1.64,5,3.95l3.24-.85,4.2,4.45s.63,1.13-.12,1-6.3.24-6.3.24L338,115.59a16.87,16.87,0,0,0,2.55.28c.61-.07,2,.88,2,.88s2.13,1.29,1,1.57-5.59.71-5.59.71.35-1.29-.69-1.27-1.4,2.11-2.35,2.27-2.67-.55-2.92.22.08,2-.27,2.49a12.78,12.78,0,0,1-2.86,1.55l-1.36,5L325,125.6l-2.55.25-1.13.54-1.8-.86L315.36,127l.88,5.36,2.29,1.85,2.28-2.32,2.39,1.23-1.32,2.36-.12,1.12,3.48.38,1.12,2.38-1.52,1.3,2.05,1.29,2.22.24.38.82a6.08,6.08,0,0,1,3.26-2.06c1.49-.24,1.23.71,1,1.78,1.14.46,1-1.16,1.91-1.27.7-.08,1.25.7,1.89.9a4.61,4.61,0,0,0,1.34,0c1.72.08,3.35,1.65,4.57,2.76.46.42.74.92,1.35,1.16.44.17,1.14-.07,1.55.16a2.83,2.83,0,0,1,1,1.87c-.07,1-1.32,1.1-1.52,1.84s.76,1.44,1.56,1.37c.6,0,.75-.55,1.25-.56.19,0,.35-.08.55,0,.49.19.3.6.51.76.6.44,1.41.24,2.13.4,1.45.34,1.13,1.5,2.55,1.74.21,2.69-2.24,3.94-3,6.32a5.17,5.17,0,0,1-2.22,2.79,23.83,23.83,0,0,1-3.47,2.79,16.9,16.9,0,0,0-3.61,2.13c-1,.88-1.16,1.32-2.48,1.64-.64.16-1.2.1-1.49.68-.38.75.09,1-.79,1.56s-2.26,0-3.22.49c-.22.11-.22.41-.36.49-.3.17-.8,0-1.06.2s-.23.77-.34,1.05a2.93,2.93,0,0,1-.87,1.27,20.59,20.59,0,0,1-2.67,2.26,41.45,41.45,0,0,0,35-33.24c-.11-.49-.2-.91-.22-1.11a22.4,22.4,0,0,1,.66-6c.12-.42.25-.8.38-1.16a42,42,0,0,0-8.47-25.39C355.32,110.58,354.75,110.2,354.18,110.82Zm-14.56-4.88a.76.76,0,0,0,.89.85c.35,1.3-1.42.21-1.78,0-.7-.36-4.84-1.11-4.66-2,.13-.61,1.05-.24,1-1,0-.58-1.21-1.34-1.6-1.6-.76-.51-3.07-.69-3.44-1.51s.76-1.17,1.47-1.19c1.71,0,2.85,1.35,4.27,1.86,1.24,1,5.2,2.62,5.61,4.69A8,8,0,0,0,339.62,105.94Zm-9,29.46c-.13.36-.52.37-.82.11,0-.48.56-.27.9-.24Zm-1.7-2.65-1.49-.36c-.46-.24-1.83,0-1.64-.78a8.26,8.26,0,0,1,3.52.4c.58.26.86.8,1.43,1.09s.89.26,1.1.87C330.68,134.13,330,132.88,329,132.75Zm6.7,2.72c-.23.16-.35.66-.57.89-.13-.79-1-.81-1.31-1.37.22-.42.67-.24,1.07-.2l.52.12c.41.11,1.37.06,1.47.52C336.49,135.46,336,135.25,335.66,135.47Zm2.5.82c-.78.72-.41-.48-.39-.85l-.15.12C337.91,135.05,338.78,135.72,338.16,136.29Zm7-19.52c-.64-1.11.23-1.52.56-2.6l.38.18c-.45,1.89.77,2.46,2,3.52C347.11,117.79,345.75,117.75,345.18,116.77Z"/><path class="cls-20" d="M346.56,101.36,346,101A2.94,2.94,0,0,0,346.56,101.36Z"/><path class="cls-20" d="M329.11,158.86c-.8-.53-1.82-1-1.89-2-.05-.67.28-.94,0-1.63a3.66,3.66,0,0,0-1.06-1.38c-1-.91-2-1.11-.59-2,.49-.33,1-.18.87-.94s-.75-.71-.72-1.58a4.07,4.07,0,0,1,1.05-2.21c.44-.38.9-.17,1.34-.45.73-.46.71-1.65.92-2.63l-1.3-1.2-1.76-.2-2.67-2.14-1.13-1.86-2.55-.94-2-2.22-2.37-.26-5.8-2.9-.65-3.78-2.63-2.68-1.8-3-.66-.07,2.43,4.55.66,1.24-3.57-3.85-1.33-3.6-2.35-2.8L300,113l1.77-1.67-3-.06-.65-2-1.09-1-.89,1.17-.64-2.33-1.12.15a42.09,42.09,0,0,0-11.17,24.35c-2.5,22.9,13.64,43.45,36,45.89a40.46,40.46,0,0,0,7.37.13,2,2,0,0,1-.72-.63c-1.19-1.65.57-2.17,1.19-3.43.79-1.57.63-3.25,1.6-4.84s1.16-3.66,2.89-5.57c.26-.48,1-2,.68-2.6C331.91,159.86,329.88,159.38,329.11,158.86Z"/><path class="cls-21" d="M363.59,143.11c0,.2.11.62.22,1.11q.36-1.82.57-3.69a42.34,42.34,0,0,0,.25-4.62c-.13.36-.26.74-.38,1.16A22.4,22.4,0,0,0,363.59,143.11Z"/><path class="cls-21" d="M346.56,101.36A2.94,2.94,0,0,1,346,101c-.7-.46-1.42-.9-2.15-1.31a18.86,18.86,0,0,0-2-.16,13.62,13.62,0,0,0-2.49.13c-.85.1-2.24-.3-2.9.06.45.49.79,1.3,1.54,1.29,2.17.18,3.72,1.6,5.1,2,1.74.55,2.35,0,2.29,1.93a4.08,4.08,0,0,1,2.66,1.93c-.86.42.18.72.55,1,1.37.9,2.13,2.47,3.53,3.34.41.26,1.35.78,1.85.35.17-.15.07-.6.2-.73.57-.62,1.14-.24,2-.3A41.14,41.14,0,0,0,346.56,101.36Z"/><path class="cls-21" d="M330.78,133.1c-.57-.29-.85-.83-1.43-1.09a8.26,8.26,0,0,0-3.52-.4c-.19.82,1.18.54,1.64.78l1.49.36c1.07.13,1.72,1.38,2.92,1.22C331.67,133.36,331.31,133.37,330.78,133.1Z"/><path class="cls-21" d="M335.37,134.91l-.52-.12c-.4,0-.85-.22-1.07.2.35.56,1.18.58,1.31,1.37.22-.23.34-.73.57-.89s.83,0,1.18,0C336.74,135,335.78,135,335.37,134.91Z"/><path class="cls-21" d="M337.62,135.56l.15-.12c0,.37-.39,1.57.39.85C338.78,135.72,337.91,135.05,337.62,135.56Z"/><path class="cls-21" d="M329.84,135.51c.3.26.69.25.82-.11l.08-.13C330.4,135.24,329.88,135,329.84,135.51Z"/><path class="cls-21" d="M351.85,152.05c-.72-.16-1.53,0-2.13-.4-.21-.16,0-.57-.51-.76-.2-.08-.36,0-.55,0-.5,0-.65.51-1.25.56-.8.07-1.79-.53-1.56-1.37s1.45-.88,1.52-1.84a2.83,2.83,0,0,0-1-1.87c-.41-.23-1.11,0-1.55-.16-.61-.24-.89-.74-1.35-1.16-1.22-1.11-2.85-2.68-4.57-2.76a4.61,4.61,0,0,1-1.34,0c-.64-.2-1.19-1-1.89-.9-.88.11-.77,1.73-1.91,1.27.23-1.07.49-2-1-1.78a6.08,6.08,0,0,0-3.26,2.06l.33.72-.1.92-.66-.61c-.21,1-.19,2.17-.92,2.63-.44.28-.9.07-1.34.45a4.07,4.07,0,0,0-1.05,2.21c0,.87.64.92.72,1.58s-.38.61-.87.94c-1.39.92-.4,1.12.59,2a3.66,3.66,0,0,1,1.06,1.38c.25.69-.08,1,0,1.63.07,1,1.09,1.49,1.89,2s2.8,1,3.18,1.76c.28.59-.42,2.12-.68,2.6-1.73,1.91-1.91,3.95-2.89,5.57s-.81,3.27-1.6,4.84c-.62,1.26-2.38,1.78-1.19,3.43a2,2,0,0,0,.72.63c.73-.06,1.45-.13,2.17-.23a20.59,20.59,0,0,0,2.67-2.26,2.93,2.93,0,0,0,.87-1.27c.11-.28.12-.87.34-1.05s.76,0,1.06-.2c.14-.08.14-.38.36-.49,1-.46,2.29.08,3.22-.49s.41-.81.79-1.56c.29-.58.85-.52,1.49-.68,1.32-.32,1.53-.76,2.48-1.64a16.9,16.9,0,0,1,3.61-2.13,23.83,23.83,0,0,0,3.47-2.79,5.17,5.17,0,0,0,2.22-2.79c.76-2.38,3.21-3.63,3-6.32C353,153.55,353.3,152.39,351.85,152.05Z"/><path class="cls-21" d="M341.35,108.64l-3.24.85c-2.83-2.31-5-3.95-5-3.95l-1.41,1.12,1.18.93-.2,1.86-1.35.63s.45,1.64-1.15,1.73-1.74-2.32-1.89-2.84-7.45-1.77-6.45-3.65a6.72,6.72,0,0,0,.94-3.09c0,.24-1.26.12-3-.45a25.48,25.48,0,0,1-2.72-.37c-1.1.22-2.26.79-4.09,1.08-3,.47-.45-.74-.45-.74s1.46-1.81,3.05-3.56-.95-1.1-1.92-.68-2.79,1.16-3.51,1a7.51,7.51,0,0,0-4.64.49c-1.89.92.36,1,1.36,1s1,.31,1.06,1.22-2.64.4-3.62.29a10.62,10.62,0,0,0-3.6.28,41.21,41.21,0,0,0-6.31,5.5l1.12-.15.64,2.33.89-1.17,1.09,1,.65,2,3,.06L300,113l-.44,5.25,2.35,2.8,1.33,3.6,3.57,3.85-.66-1.24-2.43-4.55.66.07,1.8,3,2.63,2.68.65,3.78,5.8,2.9,2.37.26,2,2.22,2.55.94,1.13,1.86,2.67,2.14,1.76.2,1.3,1.2a2.7,2.7,0,0,1,.37-1l.06-.08-.38-.82-2.22-.24-2.05-1.29,1.52-1.3-1.12-2.38-3.48-.38.12-1.12,1.32-2.36-2.39-1.23-2.28,2.32-2.29-1.85-.88-5.36,4.11-1.42,1.8.86,1.13-.54,2.55-.25,2.5,3.71,1.36-5a12.78,12.78,0,0,0,2.86-1.55c.35-.49,0-1.72.27-2.49s2,0,2.92-.22,1.31-2.25,2.35-2.27.69,1.27.69,1.27,4.43-.44,5.59-.71-1-1.57-1-1.57-1.36-1-2-.88a16.87,16.87,0,0,1-2.55-.28l1.12-1.21s5.56-.32,6.3-.24.12-1,.12-1Z"/><path class="cls-21" d="M329.43,143a2.7,2.7,0,0,0-.37,1l.66.61.1-.92-.33-.72Z"/><path class="cls-21" d="M346.12,114.35l-.38-.18c-.33,1.08-1.2,1.49-.56,2.6s1.93,1,2.9,1.1C346.89,116.81,345.67,116.24,346.12,114.35Z"/><path class="cls-21" d="M341.38,106c-.41-2.07-4.37-3.68-5.61-4.69-1.42-.51-2.56-1.9-4.27-1.86-.71,0-1.89.29-1.47,1.19s2.68,1,3.44,1.51c.39.26,1.57,1,1.6,1.6.05.79-.87.42-1,1-.18.88,4,1.63,4.66,2,.36.19,2.13,1.28,1.78,0a.76.76,0,0,1-.89-.85A8,8,0,0,1,341.38,106Z"/><path class="cls-21" d="M329.12,96.94c-1.76-.19-3.53-.4-5.3-.58a11.59,11.59,0,0,0-3.11.34c.51,1.27,3.1,1,4.27,1.73a12.58,12.58,0,0,1,2.43,2.11c-.7.76-2.19.06-3-.15a14.85,14.85,0,0,0-3.78-.66c-.76,0-1.41.36-2.12.41-1.31.11-2.91-.76-4.16-.34,0,.8,1.18,1.3,2.72,1.61a3.77,3.77,0,0,1,2.13.16l.59.21c1.88.15,3.6.15,3.85.15-.11.36-.27.53-.68.51.06.79,1.44,1.19,2.05,1.65l-.08.1c1-.09,1.89-.4,2.85-.55-.7-.36-1.49-.51-2.18-.89a7.76,7.76,0,0,0,2.46-.18c-.06-1.11,2-2.27.25-3.13a15.93,15.93,0,0,1,6.38-.86c.91,0,1.88.46,1.26-.7C334.05,97,331.19,97.16,329.12,96.94Z"/><path class="cls-21" d="M317.07,101.41a25.48,25.48,0,0,0,2.72.37l-.59-.21A3.77,3.77,0,0,0,317.07,101.41Z"/><rect class="cls-22" x="269.24" y="100.09" width="53.07" height="29.52"/><path class="cls-21" d="M281.89,103.41h-9.34a.94.94,0,0,0,0,1.87h9.34A.94.94,0,0,0,281.89,103.41Z"/><path class="cls-21" d="M297.4,103.41h-5.33a.94.94,0,0,0,0,1.87h5.33A.94.94,0,0,0,297.4,103.41Z"/><path class="cls-21" d="M286,106.36H272.55a.94.94,0,0,0,0,1.87H286A.94.94,0,0,0,286,106.36Z"/><path class="cls-21" d="M297.4,106.36h-5.33a.94.94,0,0,0,0,1.87h5.33A.94.94,0,0,0,297.4,106.36Z"/><path class="cls-21" d="M283.29,109.31H272.55a.93.93,0,0,0,0,1.86h10.74A.93.93,0,0,0,283.29,109.31Z"/><path class="cls-21" d="M297.4,109.31h-3.3a.93.93,0,0,0,0,1.86h3.3A.93.93,0,0,0,297.4,109.31Z"/><path class="cls-21" d="M297.4,124.26h-3.3a.94.94,0,0,0,0,1.87h3.3A.94.94,0,0,0,297.4,124.26Z"/><path class="cls-21" d="M310,127s0,0,0,0h.41s0,0,0,0V121.3H310Z"/><path class="cls-21" d="M314.83,127s0,0,0,0h.4s0,0,0,0V121.3h-.42Z"/><path class="cls-21" d="M311.92,127s0,0,0,0h.4s0,0,0,0V121.3h-.42Z"/><path class="cls-21" d="M312.53,127s0,0,0,0h.4s0,0,0,0V121.3h-.42Z"/><path class="cls-21" d="M314.08,127s0,0,0,0h.4s0,0,0,0V121.3h-.42Z"/><path class="cls-21" d="M310.67,127s0,0,0,0h.83s0,0,0,0V121.3h-.85Z"/><path class="cls-21" d="M313.07,127s0,0,0,0h.82s0,0,0,0V121.3h-.84Z"/><path class="cls-21" d="M317.22,127s0,0,0,0h.41s0,0,0,0V121.3h-.43Z"/><path class="cls-21" d="M316.45,127s0,0,0,0h.4s0,0,0,0V121.3h-.42Z"/><path class="cls-21" d="M315.46,127s0,0,0,0h.83s0,0,0,0V121.3h-.85Z"/><rect class="cls-6" x="259.2" y="106.54" width="53.07" height="29.52"/><path class="cls-21" d="M271.85,109.85h-9.34a.94.94,0,0,0,0,1.87h9.34A.94.94,0,0,0,271.85,109.85Z"/><path class="cls-21" d="M287.36,109.85H282a.94.94,0,0,0,0,1.87h5.33A.94.94,0,0,0,287.36,109.85Z"/><path class="cls-21" d="M276,112.8H262.51a.94.94,0,0,0,0,1.87H276A.94.94,0,0,0,276,112.8Z"/><path class="cls-21" d="M287.36,112.8H282a.94.94,0,0,0,0,1.87h5.33A.94.94,0,0,0,287.36,112.8Z"/><path class="cls-21" d="M273.25,115.75H262.51a.94.94,0,0,0,0,1.87h10.74A.94.94,0,0,0,273.25,115.75Z"/><path class="cls-21" d="M287.36,115.75h-3.3a.94.94,0,0,0,0,1.87h3.3A.94.94,0,0,0,287.36,115.75Z"/><path class="cls-21" d="M287.36,130.7h-3.3a.94.94,0,0,0,0,1.87h3.3A.94.94,0,0,0,287.36,130.7Z"/><path class="cls-21" d="M300,133.42s0,0,0,0h.41s0,0,0,0v-5.68H300Z"/><path class="cls-21" d="M304.79,133.42s0,0,0,0h.4s0,0,0,0v-5.68h-.42Z"/><path class="cls-21" d="M301.88,133.42s0,0,0,0h.4s0,0,0,0v-5.68h-.42Z"/><path class="cls-21" d="M302.49,133.42s0,0,0,0h.4s0,0,0,0v-5.68h-.42Z"/><path class="cls-21" d="M304,133.42s0,0,0,0h.4s0,0,0,0v-5.68H304Z"/><path class="cls-21" d="M300.64,133.42v0h.83s0,0,0,0v-5.68h-.84Z"/><path class="cls-21" d="M303,133.42s0,0,0,0h.82s0,0,0,0v-5.68H303Z"/><path class="cls-21" d="M307.18,133.42s0,0,0,0h.41s0,0,0,0v-5.68h-.43Z"/><path class="cls-21" d="M306.41,133.42s0,0,0,0h.4s0,0,0,0v-5.68h-.42Z"/><path class="cls-21" d="M305.42,133.42s0,0,0,0h.83s0,0,0,0v-5.68h-.85Z"/><path class="cls-7" d="M343.77,146.81,289.82,123s-9.5-3.41-12-1.77c-2.35,3.29,3.24,7.33,3.24,7.33l59.52,26.31,2.32,3.77,2.68,1.19,1-8.2.17.08L357,145.4l-3.87-1.71Z"/><path class="cls-16" d="M306.65,139.05s10.91,29.11,12.53,29.33,3-1.9,3-1.9l-4-22.32S313.15,138.75,306.65,139.05Z"/><path class="cls-21" d="M294.61,128.63a1.2,1.2,0,1,0,.61,1.58A1.21,1.21,0,0,0,294.61,128.63Z"/><path class="cls-21" d="M289.46,126.36a1.2,1.2,0,1,0,.62,1.58A1.19,1.19,0,0,0,289.46,126.36Z"/><path class="cls-21" d="M284.06,124a1.2,1.2,0,1,0,.61,1.58A1.2,1.2,0,0,0,284.06,124Z"/><path class="cls-21" d="M299.75,130.9a1.2,1.2,0,1,0,.61,1.59A1.2,1.2,0,0,0,299.75,130.9Z"/><path class="cls-21" d="M305.64,133.51a1.2,1.2,0,1,0,.61,1.58A1.19,1.19,0,0,0,305.64,133.51Z"/><path class="cls-21" d="M311,135.88a1.2,1.2,0,1,0,.62,1.58A1.2,1.2,0,0,0,311,135.88Z"/><path class="cls-21" d="M316.91,138.49a1.2,1.2,0,1,0,.61,1.58A1.2,1.2,0,0,0,316.91,138.49Z"/><path class="cls-21" d="M323.19,141.26a1.2,1.2,0,1,0,.61,1.59A1.21,1.21,0,0,0,323.19,141.26Z"/><path class="cls-21" d="M329.09,143.87a1.2,1.2,0,1,0,.61,1.58A1.2,1.2,0,0,0,329.09,143.87Z"/><path class="cls-21" d="M334.46,146.24a1.2,1.2,0,1,0,.61,1.59A1.21,1.21,0,0,0,334.46,146.24Z"/><path class="cls-23" d="M329.83,93.21c-.14,4.8,1.46,12,6.71,22.6,5.24-10.65,6.84-17.8,6.7-22.6C343,84.66,330.08,84.66,329.83,93.21Zm6.71,4.59a4,4,0,1,1,4-4A4,4,0,0,1,336.54,97.8Z"/><g class="cls-5"><path class="cls-6" d="M328.47,259.45c-20.05-22.81-11.05-35.25-11.05-35.25,11.45,9,15.2,18.07,16,25.14,3-6.41,5.92-12.9,8.49-19.51-3.95-.72-16.64-5.23-21.81-33.84,0,0,20.27,2.86,22.79,31.13a289.39,289.39,0,0,0,10.49-33.92c-26.79-18.81-20.27-33.64-20.27-33.64,16.2,8,20.92,18.4,22.05,25.76,1.51-7.09,2.83-14.19,3.74-21.31a2.93,2.93,0,0,1,1.2-2.07c-19.28-22.36-10.44-34.55-10.44-34.55,19.19,15.13,16.89,30.3,15.05,36.09a3.21,3.21,0,0,1,.06.78A282.7,282.7,0,0,1,355.39,208c17-15.34,32.34-7.13,32.34-7.13-17.34,16.5-29.17,16.79-34.83,15.4-2.73,8.37-5.9,16.6-9.35,24.71,21.28-19.24,38.17-7.38,38.17-7.38-23.58,17.54-35.94,11.85-39.15,9.72a300.8,300.8,0,0,1-27.05,49.27c-2.13,3.12-7.11,0-5-3.11A294.46,294.46,0,0,0,328.47,259.45Z"/><path class="cls-6" d="M272.54,219.19s5.78-.68,10,9.57a.93.93,0,0,1,.57.55c1.27,3,2.73,5.89,4.26,8.78-.57-3.05-.19-8.15,5.89-13.58,0,0,4.37,5.31-4.56,16.05a123.29,123.29,0,0,0,8.32,12.87c-2.54-12.15,5.58-15.69,5.58-15.69,1.19,12.8-4,15.7-5.23,16.19,1.88,2.51,3.87,4.91,5.92,7.27-.59-3-.23-7.21,3.56-12.4,0,0,5.09,4.07-.62,15.71a123.49,123.49,0,0,0,10.55,10.06c.94.8-.37,2.19-1.3,1.4a125.83,125.83,0,0,1-16.42-16.85c-.61.83-4.7,5.48-17.07.71,0,0,5.68-7,16.84-1-2.44-3-4.76-6.15-6.91-9.38-2,1.24-6.79,2.78-16-2.14,0,0,5.47-5.22,14.37-.47a121.25,121.25,0,0,1-8-14.92C279.57,231.26,274.1,228.73,272.54,219.19Z"/><path class="cls-6" d="M366.17,115.88s-5.62-11.19,2.8-21C374.53,106.56,366.17,115.88,366.17,115.88Z"/><path class="cls-6" d="M289.82,178.23S279.09,171.8,281,159C291.89,165.89,289.82,178.23,289.82,178.23Z"/><path class="cls-6" d="M325,186s-11.58-4.73-11.67-17.64C325.21,173.43,325,186,325,186Z"/><path class="cls-6" d="M340.65,140.78s-10-7.51-6.84-20C344,128.71,340.65,140.78,340.65,140.78Z"/></g><path class="cls-4" d="M315.27,290.51a237.38,237.38,0,0,0,20.53-18.78c-10.8-22.89-.75-30.59-.75-30.59,7.41,10.58,7.65,19,6.17,24.72,4.22-4.64,8.34-9.39,12.2-14.35-1.32-.47-12.73-5.38-9.75-31.49,0,0,15.9,7.28,9.94,31.25a240,240,0,0,0,16.91-25c-17.07-21.21-8.37-31.35-8.37-31.35,12.36,11.5,12,22,10.5,27.6,3-5.35,5.86-10.77,8.4-16.29C379.24,180.54,391.59,177,391.59,177c4.15,17.48-3,26-7.39,29.45-2.58,5.66-5.47,11.2-8.53,16.66,14.31-13.11,27-6,27-6-16.37,15-26.51,12.77-30,11.25-2,3.36-4.11,6.66-6.28,9.93,17.69-9.35,28.24,1.17,28.24,1.17-18.43,9.33-27.65,5.77-31.21,3.3-3.67,5.28-7.58,10.41-11.67,15.39,19.6-8.26,29.23,4.07,29.23,4.07-20.46,7.4-29,1.85-31.83-.94a242.21,242.21,0,0,1-32.13,31.53C315.58,294,313.81,291.7,315.27,290.51Z"/></g></g></g></svg>