<svg xmlns="http://www.w3.org/2000/svg" viewBox="0 0 826.96 604.62"><defs><style>.cls-1{fill:#0fbc9b;}.cls-2{fill:#216ef4;}.cls-3{fill:#10a084;}.cls-4{fill:#ffadae;}.cls-5{fill:#095ed8;}.cls-6{fill:#0458bc;}.cls-7{fill:#54238e;}.cls-8{fill:#6737c3;}.cls-9{fill:#d1e0f2;}.cls-10{fill:#fff;}.cls-11{fill:#552cb7;}.cls-12{fill:#341751;}.cls-13{fill:#67c5ff;}.cls-14{fill:#b3cdfa;}.cls-15{fill:#ecf3ff;}.cls-16{fill:#c8c8ee;}.cls-17{fill:#93a5eb;}.cls-18{fill:#12302a;}.cls-19{fill:#734cd3;}.cls-20{fill:#8362d3;}.cls-21{fill:#3082f9;}.cls-22{fill:#ffd000;}.cls-23{fill:#ffb700;}.cls-24{fill:#5fa0ff;}.cls-25{fill:#ffcd69;}.cls-26{fill:#fda900;}.cls-27{fill:#e29dff;}</style></defs><title>Ativo 1</title><g id="Camada_2" data-name="Camada 2"><g id="Ñëîé_1" data-name="Ñëîé 1"><path class="cls-1" d="M211.47,182.36v.24A36.08,36.08,0,0,1,211,188h0c-.19,1.28-.43,2.58-.72,3.91-.44,2-1,4.09-1.57,6.12a161.1,161.1,0,0,1-7.37,19.87H181.17a19.83,19.83,0,0,0,.3-2,44.06,44.06,0,0,0-1.88-17.75q-.3-1-.6-2a122.3,122.3,0,0,1-4.08-19.55c-.81-7.13-.5-13.51,2.18-16.19s5.4-6.3,8.3-8.7h0c3.2-2.65,6.53-3.72,9.94-.05,3.72,4,7.92,8.4,11.13,13.87a36.12,36.12,0,0,1,4.87,14.36A21.68,21.68,0,0,1,211.47,182.36Z"/><path class="cls-2" d="M503.33,315.2a1,1,0,0,1-.17-2s1.59-.27,4.37-.85a1,1,0,1,1,.42,1.95c-2.83.6-4.39.86-4.46.88Z"/><path class="cls-2" d="M516.31,312.33a1,1,0,0,1-.24-2c2.78-.7,5.64-1.47,8.47-2.28a1,1,0,0,1,1.24.68,1,1,0,0,1-.69,1.24c-2.85.82-5.72,1.59-8.53,2.3Zm16.94-4.85a1,1,0,0,1-.31-2c2.78-.89,5.58-1.83,8.33-2.8a1,1,0,0,1,.66,1.89c-2.76,1-5.58,1.92-8.38,2.81A.79.79,0,0,1,533.25,307.48Zm16.61-5.86a1,1,0,0,1-.93-.64,1,1,0,0,1,.57-1.29c2.73-1.06,5.47-2.16,8.14-3.29a1,1,0,0,1,.78,1.84c-2.69,1.14-5.45,2.25-8.2,3.31A.92.92,0,0,1,549.86,301.62Zm16.23-6.86a1,1,0,0,1-.91-.58,1,1,0,0,1,.49-1.33c2.67-1.23,5.33-2.51,7.91-3.8a1,1,0,1,1,.89,1.79c-2.59,1.3-5.27,2.59-8,3.83A1.06,1.06,0,0,1,566.09,294.76Zm15.73-7.9a1,1,0,0,1-.48-1.88c2.59-1.41,5.15-2.88,7.62-4.35a1,1,0,0,1,1,1.72c-2.49,1.48-5.07,3-7.68,4.38A.91.91,0,0,1,581.82,286.86Zm15.13-9a1,1,0,0,1-.84-.46,1,1,0,0,1,.29-1.38c2.46-1.6,4.9-3.26,7.25-4.93a1,1,0,0,1,1.16,1.63c-2.37,1.69-4.83,3.36-7.32,5A1,1,0,0,1,597,277.84Zm14.34-10.21a1,1,0,0,1-.61-1.79c2.31-1.8,4.59-3.67,6.77-5.54a1,1,0,1,1,1.31,1.51c-2.21,1.9-4.52,3.78-6.85,5.61A1,1,0,0,1,611.29,267.63Zm13.35-11.47a1,1,0,0,1-.72-.31,1,1,0,0,1,0-1.42c2.13-2,4.22-4.1,6.19-6.18a1,1,0,1,1,1.45,1.38c-2,2.1-4.1,4.21-6.26,6.26A1,1,0,0,1,624.64,256.16Zm12.11-12.77a1,1,0,0,1-.76-1.65c1.89-2.23,3.73-4.53,5.46-6.82a1,1,0,1,1,1.6,1.2c-1.75,2.33-3.62,4.65-5.54,6.92A1,1,0,0,1,636.75,243.39Z"/><path class="cls-2" d="M647.31,229.37a.94.94,0,0,1-.55-.17,1,1,0,0,1-.28-1.38c.81-1.23,1.62-2.49,2.41-3.76a1,1,0,1,1,1.7,1.05c-.8,1.29-1.62,2.57-2.45,3.82A1,1,0,0,1,647.31,229.37Z"/><path class="cls-3" d="M190.6,219.29l-3.72-1.38-5.41-2a44.06,44.06,0,0,0-1.88-17.75c-3.5-11.25-8-32.25-2.5-37.75,2.61-2.61,5.4-6.3,8.3-8.7-4.54,25.61,3.1,59.07,4.86,66.2C190.47,218.81,190.6,219.29,190.6,219.29Z"/><path class="cls-4" d="M328.87,563.87c-2.13,3.29-4.37,7.25-3.22,11.08.94,3.15,4,5.18,4.85,8.34,1,3.56-.95,7.51.07,11.07a8.32,8.32,0,0,0,4.91,5.16,22.35,22.35,0,0,0,7,1.31,2.1,2.1,0,0,0,1.24-.16,2.14,2.14,0,0,0,.73-.84c1.65-2.81,2-6.27,2.08-9.6a17.21,17.21,0,0,0-.88-6.56c-1-2.51-2.93-4.44-4-6.89-1.28-2.89-1.28-6.26-2.41-9.21-1-2.68-3.22-5-5.9-5.32s-2.71.25-4.42,1.62Z"/><path class="cls-5" d="M348.51,449s-1.29,57.07-7.73,107.36l-16,.66s-12.64-88-10.69-105.17S348.51,449,348.51,449Z"/><path class="cls-6" d="M325.8,555.2a49.94,49.94,0,0,0,13.77,0A2.12,2.12,0,0,1,342,557.3c0,2.93-.42,7.63-2.41,9.86-3,3.38-12.24,1.82-13.84.19-1.08-1.1-1.92-6.42-2.36-9.79A2.12,2.12,0,0,1,325.8,555.2Z"/><path class="cls-4" d="M409.3,575.38c.05,2.3-1.94,4.1-2.69,6.27a8.47,8.47,0,0,0-.37,3.13,10.14,10.14,0,0,0,2.07,6.05,12,12,0,0,0,6,3.56c2.26.68,4.6,1.06,6.82,1.85,3.14,1.12,5.93,3,9,4.42s6.57,2.21,9.69,1a2.74,2.74,0,0,0,1.3-.9,3,3,0,0,0,.41-1.18c.15-.71.29-1.42.44-2.13a5.75,5.75,0,0,0,.16-2.33c-.39-1.85-2.38-2.82-4.09-3.62a22.5,22.5,0,0,1-5.18-3.17c-3.28-2.79-5.23-6.88-8.45-9.74a15.89,15.89,0,0,0-14.94-3.19Z"/><path class="cls-7" d="M366,457.5H348a13,13,0,0,1-13-13v-7.07h51.08A20.09,20.09,0,0,1,366,457.5Z"/><path class="cls-2" d="M438.14,468.74q-8.47,51.39-12.28,103.41a8.32,8.32,0,0,1-1,4.1c-1.59,2.33-5,2.37-7.75,1.64s-5.49-2-8.25-1.42a190.07,190.07,0,0,0-.92-47.6c-.66-4.55-1.49-9.08-2.32-13.6-1.18-6.34-2.36-12.68-3.12-19.08a147.85,147.85,0,0,1-.94-21.66c.11-4,.78-8.27-.78-12.07-1.8-4.4-6.38-6.94-10-9.66-1.48-1.11-3-2.24-4.49-3.31a40.72,40.72,0,0,0-6-3.6,100.39,100.39,0,0,0-15.55-5.59,48.66,48.66,0,0,0-17.13-1.93c-1.09,0-2.18,0-3.25-.11-6.44-.4-12.5-2.2-17.73-7.61a26.36,26.36,0,0,1-2.29-1.47c-2.85-2.07-4.76-4.84-4.42-8.33a12.36,12.36,0,0,1,2.56-5.86c8.5-11.89,23.62-16.53,38-19.71l0-.19.31.12,1.37-.3c-.05.26-.1.53-.16.79q24.38,9.63,48.06,20.93C421.12,422,433,428.46,437.69,439.9,441.37,448.92,439.72,459.12,438.14,468.74Z"/><path class="cls-8" d="M409.27,292.26l113.86-.34c3.28,0,4.83,2.4,3.47,5.38l-34.74,76.1-125.73.37,34.74-76.1A10.07,10.07,0,0,1,409.27,292.26Z"/><path class="cls-9" d="M413.73,298l99.52-.35c3.45,0,5.08,2.39,3.65,5.36L487,365l-112,.4,29.86-62A10.71,10.71,0,0,1,413.73,298Z"/><path class="cls-10" d="M498.88,300.45l-73,.09a3.93,3.93,0,0,0-3.67,2l-29.7,62.4,78,.69,29.7-62.4C500.85,301.86,500.34,300.47,498.88,300.45Z"/><path class="cls-9" d="M441.7,320.23c-2.33,5.16-8.66,9.38-14.14,9.44s-8-4.08-5.69-9.24,8.66-9.38,14.14-9.43S444,315.08,441.7,320.23Z"/><path class="cls-2" d="M458,315.11l-4.3.05a.27.27,0,0,1-.26-.41.77.77,0,0,1,.63-.42l4.3-.05a.26.26,0,0,1,.25.41A.75.75,0,0,1,458,315.11Z"/><path class="cls-2" d="M481.1,314.88l-20.5.21a.27.27,0,0,1-.25-.42.76.76,0,0,1,.63-.41l20.5-.21c.24,0,.35.18.25.41A.78.78,0,0,1,481.1,314.88Z"/><path class="cls-2" d="M471.5,320.83,451,321c-.25,0-.36-.18-.26-.41a.8.8,0,0,1,.63-.42l20.5-.2c.24,0,.36.18.25.41A.77.77,0,0,1,471.5,320.83Z"/><path class="cls-2" d="M465.89,336.44l-48.94.5c-.24,0-.35-.19-.25-.42a.77.77,0,0,1,.63-.41l48.93-.5a.27.27,0,0,1,.26.41A.77.77,0,0,1,465.89,336.44Z"/><path class="cls-2" d="M474.41,336.35l-5.44.06c-.24,0-.35-.18-.25-.41a.76.76,0,0,1,.63-.42l5.44-.06c.24,0,.35.18.25.41A.76.76,0,0,1,474.41,336.35Z"/><path class="cls-2" d="M430,342.68l-15.73.15c-.24,0-.36-.18-.25-.41a.76.76,0,0,1,.63-.41l15.72-.16c.24,0,.36.18.25.41A.77.77,0,0,1,430,342.68Z"/><path class="cls-2" d="M462.63,342.34l-27.92.29a.27.27,0,0,1-.26-.41.77.77,0,0,1,.63-.42l27.92-.29c.25,0,.36.19.26.42A.79.79,0,0,1,462.63,342.34Z"/><path class="cls-2" d="M442.89,348.37l-31.26.32a.26.26,0,0,1-.25-.41.75.75,0,0,1,.63-.42l31.26-.32a.26.26,0,0,1,.25.41A.75.75,0,0,1,442.89,348.37Z"/><path class="cls-11" d="M346.06,359.53H479A12.47,12.47,0,0,1,491.49,372v1.13a0,0,0,0,1,0,0H346.06a0,0,0,0,1,0,0v-13.6A0,0,0,0,1,346.06,359.53Z"/><path class="cls-12" d="M396.51,249.48a5.53,5.53,0,0,1-1.93-.34,6.63,6.63,0,0,1-4-4.91,14,14,0,0,1,5.06-13.76,6.14,6.14,0,0,1,10.16,3.73A14,14,0,0,1,400.78,248,7.33,7.33,0,0,1,396.51,249.48ZM400,231a5.45,5.45,0,0,0-3.11,1.14,12,12,0,0,0-4.28,11.66,4.17,4.17,0,0,0,7.05,2.59,11.15,11.15,0,0,0,3.76-5.24h0a11.08,11.08,0,0,0,.52-6.42,4.65,4.65,0,0,0-2.71-3.51A3.39,3.39,0,0,0,400,231Z"/><path class="cls-4" d="M371.34,258.91s-7.25,15.23,0,27.12l-35.45-8.25s9.88-11.12,9-20.87S371.34,258.91,371.34,258.91Z"/><circle class="cls-4" cx="363.18" cy="235.29" r="32.35" transform="translate(49.76 533.66) rotate(-76.53)"/><path class="cls-13" d="M103.45,581.44h63.27a18.61,18.61,0,0,1,18.61,18.61v.78a0,0,0,0,1,0,0H84.84a0,0,0,0,1,0,0v-.78A18.61,18.61,0,0,1,103.45,581.44Z"/><path class="cls-12" d="M439.34,373h30.75s-.68-5.92-14.23-10.27S439.34,373,439.34,373Z"/><path class="cls-4" d="M436,358.59a57.44,57.44,0,0,0,8.8-.4l1.49-.19c7.08-2.34,14.08-1.34,18.28,4.63.55.73,1.06,1.47,1.51,2.19.87,1.38,2.61,3.69,2.63,5.34-4.5.7-8.84-1.19-13.29-1.61A19.81,19.81,0,0,0,444.93,370c-2.9,1.39-8.78.81-11.93.93C433,371,430.47,358.69,436,358.59Z"/><path class="cls-10" d="M364.05,265.24c6.7,3.62,14.14,4.1,21.62,4.37,1,0,1-1.47,0-1.5-7.21-.26-14.39-.67-20.87-4.17-.84-.45-1.6.84-.75,1.3Z"/><path class="cls-14" d="M799.48,116.2V224.39a1.28,1.28,0,0,1-1.28,1.29H593.14a1.29,1.29,0,0,1-1.29-1.29V116.2a1.28,1.28,0,0,1,1.29-1.28H798.2A1.28,1.28,0,0,1,799.48,116.2Z"/><path class="cls-15" d="M785.72,144.88V161a3.45,3.45,0,0,1-3.45,3.45H764.64v-23h17.63A3.44,3.44,0,0,1,785.72,144.88Z"/><rect class="cls-15" x="661.8" y="185.58" width="125.54" height="17.33" rx="2.04"/><path class="cls-15" d="M653,177.65a28.62,28.62,0,0,1-50.21,0Z"/><circle class="cls-2" cx="742.1" cy="260.92" r="10.57"/><path class="cls-2" d="M470,56.56a4.72,4.72,0,1,1-4.72-4.72A4.72,4.72,0,0,1,470,56.56Z"/><path class="cls-2" d="M578.56,190.21a7.18,7.18,0,1,1,7.17-7.17A7.18,7.18,0,0,1,578.56,190.21Zm0-13.63A6.46,6.46,0,1,0,585,183,6.47,6.47,0,0,0,578.56,176.58Z"/><path class="cls-2" d="M809.15,86.76A17.82,17.82,0,1,1,827,68.94,17.84,17.84,0,0,1,809.15,86.76Zm0-33.83a16,16,0,1,0,16,16A16,16,0,0,0,809.15,52.93Z"/><circle class="cls-2" cx="809.15" cy="68.94" r="10.12" transform="translate(511.87 824.66) rotate(-73.4)"/><path class="cls-16" d="M764.64,114.92v60.37a2.36,2.36,0,0,1-2.35,2.36H591.85V116.2a1.28,1.28,0,0,1,1.29-1.28Z"/><path class="cls-17" d="M677.48,144.88V161a3.46,3.46,0,0,0,3.45,3.45h83.71v10.86a2.36,2.36,0,0,1-2.35,2.36H653a28.61,28.61,0,1,0-50.21,0h-11V116.2a1.28,1.28,0,0,1,1.29-1.28h171.5v26.51H680.93A3.45,3.45,0,0,0,677.48,144.88Z"/><rect class="cls-9" x="499.7" y="68.94" width="256.94" height="101.35" rx="2.35"/><path class="cls-8" d="M615,391H161.5V373.13H615ZM163.5,389H613V375.13H163.5Z"/><rect class="cls-10" x="600" y="88.8" width="134" height="23" rx="2.26"/><polygon class="cls-8" points="731.22 564.69 726.77 579.73 720.67 600.32 690.67 600.32 682.48 574.55 679.65 565.65 679.34 564.69 731.22 564.69"/><rect class="cls-10" x="580.59" y="132.95" width="155.42" height="17.33" rx="2.19"/><path class="cls-10" d="M575.31,110.3a28.36,28.36,0,0,1-1.93,10.34c-.09.25-.19.5-.3.74a28.24,28.24,0,0,1-4.5,7.36,30.27,30.27,0,0,1-3.64,3.61,28.67,28.67,0,0,1-28.06,4.83,28.17,28.17,0,0,1-5.15-2.5,28.61,28.61,0,0,1-.45-48.47,27.22,27.22,0,0,1,3.88-2.08l.48-.21.44-.17a22.07,22.07,0,0,1,2.11-.76l.23-.07.06,0,.72-.2c.11,0,.22-.06.33-.09l.69-.17c.4-.1.79-.18,1.19-.25l.76-.13L543,82c.51-.08,1-.13,1.56-.16.31,0,.62-.05.94-.06s.83,0,1.25,0,1,0,1.47,0,1,.06,1.45.11h0c.43,0,.86.1,1.28.16a2.14,2.14,0,0,1,.35.06c.32,0,.64.1,1,.17a25.94,25.94,0,0,1,3.15.8c.36.11.73.24,1.09.37l.16.06c.29.1.58.22.87.34l.5.21c.24.1.49.21.73.33l.73.35c.59.29,1.17.6,1.73.94.28.16.55.33.82.5a19.51,19.51,0,0,1,1.63,1.11l.64.48a2.43,2.43,0,0,1,.25.2l.64.53q.52.42,1,.9l.66.64c.21.19.41.4.61.62l.51.55c.23.24.45.5.66.76s.4.48.59.73.4.51.59.78a18.4,18.4,0,0,1,1.12,1.65c.17.26.33.53.49.8s.33.56.48.85a3.9,3.9,0,0,1,.19.35c.13.24.25.48.37.73,0,.07.07.14.1.22q.24.48.45,1c.06.12.11.25.16.38.15.35.28.7.41,1s.32.89.45,1.33.26.88.38,1.32.19.78.27,1.17q.08.3.12.6c.05.22.09.45.12.67s0,.2.05.3,0,.06,0,.09h0c.08.49.14,1,.18,1.48s.09.92.11,1.38v0C575.3,109.32,575.31,109.81,575.31,110.3Z"/><path class="cls-8" d="M804.84,604.16a2,2,0,1,1,0-4h12.5a2,2,0,0,1,0,4Z"/><path class="cls-8" d="M663.09,604.24a2,2,0,1,1,0-4l129.41-.07h0a2,2,0,0,1,0,4l-129.41.07Z"/><path class="cls-8" d="M2,604.62a2,2,0,0,1,0-4l449.67-.25h0a2,2,0,1,1,0,4L2,604.62Z"/><path class="cls-8" d="M614.35,599.13a1,1,0,0,1-.93-.64l-81.77-207.1a1,1,0,0,1,1.86-.74l81.77,207.11a1,1,0,0,1-.56,1.3A1.16,1.16,0,0,1,614.35,599.13Z"/><path class="cls-8" d="M635.8,601.82a1.5,1.5,0,0,1-1.4-1L551.62,391.22a1.51,1.51,0,0,1,.85-2,1.49,1.49,0,0,1,1.94.85l82.78,209.65a1.5,1.5,0,0,1-.84,2A1.52,1.52,0,0,1,635.8,601.82Z"/><rect class="cls-8" x="570.34" y="374.13" width="43.64" height="15.86"/><path class="cls-8" d="M191,599.13a1.27,1.27,0,0,1-.37-.07,1,1,0,0,1-.56-1.3l81.77-207.11a1,1,0,0,1,1.3-.56,1,1,0,0,1,.56,1.3l-81.77,207.1A1,1,0,0,1,191,599.13Z"/><path class="cls-8" d="M169.57,601.82a1.49,1.49,0,0,1-1.4-2.05L251,390.12a1.5,1.5,0,1,1,2.79,1.1L171,600.87A1.49,1.49,0,0,1,169.57,601.82Z"/><path class="cls-8" d="M482.34,604.35a2,2,0,0,1,0-4l157.25-.09h0a2,2,0,0,1,0,4l-157.25.09Z"/><path class="cls-1" d="M706.35,328.53s9.66,1.55,10.33-21.62a1,1,0,0,0-1-1l-6.94.6s9.71-9.76.3-41.68l-4.56,3.92a.26.26,0,0,1-.41-.27l2.88-9.32s-4.63-9.86-12.7-16.43Z"/><path class="cls-18" d="M734.86,463.92s-10.15-38,34.86-64.33Z"/><path class="cls-18" d="M706.18,328.55S694,280,694.2,242.74c0,0,6.55,13.24,9.57,35.58a.25.25,0,0,0,.45.11l3-4.16a.19.19,0,0,1,.34.07C708.47,279.41,716.73,327.35,706.18,328.55Z"/><path class="cls-18" d="M710.74,564.62a.6.6,0,0,1-.6-.56c-4.3-70.72-18.84-108.37-30.29-127.51-12.37-20.69-23.86-24.74-24-24.78a.59.59,0,0,1-.38-.76.6.6,0,0,1,.75-.38c.49.16,11.94,4.16,24.53,25.14C692.33,455,707,492.87,711.34,564a.59.59,0,0,1-.56.63Z"/><path class="cls-18" d="M703.17,564.62a.61.61,0,0,1-.6-.59c-1.18-80.25-15.12-136.74-15.27-137.3a.6.6,0,0,1,.44-.72.59.59,0,0,1,.72.43c.14.57,14.13,57.17,15.31,137.57a.6.6,0,0,1-.59.61Z"/><path class="cls-18" d="M715.58,566.61h0A.59.59,0,0,1,715,566c2.82-66.67,19.18-103.41,19.34-103.77a.62.62,0,0,1,.8-.3.6.6,0,0,1,.29.8c-.16.36-16.42,36.91-19.24,103.32A.6.6,0,0,1,715.58,566.61Z"/><path class="cls-18" d="M706.49,566.61h0a.59.59,0,0,1-.56-.62c5.27-107.42,16.72-116.41,17.2-116.74a.6.6,0,0,1,.69,1c-.5.38-11.52,10.19-16.7,115.81A.6.6,0,0,1,706.49,566.61Z"/><path class="cls-18" d="M701.18,566.61h-.08a.6.6,0,0,1-.51-.68c9.44-68.86,5.35-236.61,5.31-238.3a.59.59,0,0,1,.58-.61h0a.6.6,0,0,1,.6.58c0,1.69,4.14,169.53-5.32,238.5A.59.59,0,0,1,701.18,566.61Z"/><path class="cls-18" d="M695.53,566.61h0a.6.6,0,0,1-.59-.61c1.4-79.13,19.53-129.66,34.49-158.11C745.65,377,761.81,364.68,762,364.56a.6.6,0,1,1,.72,1c-.16.12-16.15,12.33-32.26,43-14.88,28.33-32.91,78.65-34.3,157.5A.6.6,0,0,1,695.53,566.61Z"/><path class="cls-18" d="M710.74,566.61a.6.6,0,0,1-.58-.45c-9.87-38.3,4.18-157.12,4.32-158.32a.6.6,0,0,1,1.19.15c-.15,1.19-14.17,119.79-4.35,157.88a.59.59,0,0,1-.43.72A.39.39,0,0,1,710.74,566.61Z"/><path class="cls-1" d="M656.06,411.78c.6-.44,12.74-12.44-16.24-30.93a.41.41,0,0,0-.61.46l1,3.15a.92.92,0,0,1-1.55.89,41.86,41.86,0,0,1-6.19-9.72,22,22,0,0,0-13.74-11.51.8.8,0,0,0-1,1l1.1,3.85a.26.26,0,0,1-.45.23l-5.49-6.49a1.34,1.34,0,0,0-.77-.46A183.25,183.25,0,0,0,579.28,359Z"/><path class="cls-18" d="M656.06,411.78S625,399.8,579.28,359c0,0,12.47-.2,36.52,21.39a1.12,1.12,0,0,0,1.87-.84v-2.68a.26.26,0,0,1,.38-.23C621.74,378.78,650.89,396.4,656.06,411.78Z"/><path class="cls-1" d="M687.4,427.34s17.08,2.29,6.43-41.68c0,0-7.62-22.41-9.11-21.66S687.4,427.34,687.4,427.34Z"/><path class="cls-18" d="M687.4,427.34a569.6,569.6,0,0,1-10.6-71.91S705.58,403,687.4,427.34Z"/><path class="cls-1" d="M715.48,408.48S685,403,738.93,368.14,715.48,408.48,715.48,408.48Z"/><path class="cls-18" d="M723.75,450.31s-19.35-5.76,2.69-20.1l1.19,8.74Z"/><path class="cls-1" d="M723.75,450.31s-15.83-7.19,6.13-20.85l2.45,2.8a.86.86,0,0,0,1.5-.47l.68-6a107.23,107.23,0,0,1,28.94-10.49.42.42,0,0,1,.35.74Z"/><path class="cls-1" d="M761.93,365.77s-16-14.95,27.9-40.92a1.7,1.7,0,0,1,2.57,1.46v7.5l3.44-2.39s-5-9.79,31.12-18.3Z"/><path class="cls-18" d="M762,365.7s22.51-37.25,64.93-52.58C827,313.12,778.76,361.72,762,365.7Z"/><path class="cls-13" d="M389.17,93.73c-25,0-45.18,22.8-45.18,50.93h90.36C434.35,116.53,414.12,93.73,389.17,93.73Z"/><rect class="cls-10" x="338.27" y="135.83" width="103.53" height="2.33"/><rect class="cls-10" x="339.14" y="138.85" width="103.53" height="2.33"/><path class="cls-13" d="M440.75,139.5H337.44a1,1,0,0,1,0-2H440.75a1,1,0,0,1,0,2Z"/><path class="cls-10" d="M167.84,590.74H135.09a4.74,4.74,0,0,1,4.74-4.74H163.1a4.75,4.75,0,0,1,4.74,4.74Z"/><path class="cls-19" d="M679.34,563.69H731.2a2,2,0,0,1,2,2v3.84a1.17,1.17,0,0,1-1.17,1.17H678.55a1.17,1.17,0,0,1-1.17-1.17v-3.84A2,2,0,0,1,679.34,563.69Z"/><path class="cls-2" d="M215.86,219.29a22.63,22.63,0,0,1-.12,2.34,20.74,20.74,0,0,1-.72,3.72,21.1,21.1,0,0,1-1.18,3.23,22.36,22.36,0,0,1-42.11-4.15,19.63,19.63,0,0,1-.38-2l-.08-.61a.86.86,0,0,1,0-.16,20.14,20.14,0,0,1-.13-2.34Z"/><rect class="cls-2" x="184.17" y="239.41" width="18.73" height="2.08"/><path class="cls-20" d="M144.34,245.17a2,2,0,0,1,0-4l103.13-.06h0a2,2,0,1,1,0,4l-103.13.06Z"/><rect class="cls-21" x="169.49" y="216.15" width="48.09" height="5.48" rx="0.77"/><path class="cls-7" d="M297.11,556.37a1.5,1.5,0,0,1-1.5-1.48L295,463.51a1.5,1.5,0,0,1,1.49-1.5h0a1.49,1.49,0,0,1,1.5,1.48l.64,91.38a1.5,1.5,0,0,1-1.49,1.5Z"/><path class="cls-7" d="M303.47,556.37a.51.51,0,0,1-.5-.5l-1-97.25a.5.5,0,0,1,.49-.51h0a.51.51,0,0,1,.5.5l1,97.25a.49.49,0,0,1-.49.51Z"/><path class="cls-7" d="M355.69,594.12a1,1,0,0,1-.93-.63,57.53,57.53,0,0,0-106.47-2,1,1,0,0,1-1.83-.79,59.52,59.52,0,0,1,110.16,2,1,1,0,0,1-.57,1.3A1.13,1.13,0,0,1,355.69,594.12Z"/><path class="cls-7" d="M348.14,593.56a.38.38,0,0,1-.35-.24,50,50,0,0,0-92.52-1.72.38.38,0,0,1-.49.2.39.39,0,0,1-.2-.5,50.74,50.74,0,0,1,93.91,1.75.37.37,0,0,1-.22.48A.31.31,0,0,1,348.14,593.56Z"/><path class="cls-7" d="M250.24,595.43a5.11,5.11,0,1,1-5.1-5.1A5.1,5.1,0,0,1,250.24,595.43Z"/><path class="cls-22" d="M434.81,360.29l-.37,7.84c.22,6.74-7.85,4.38-7.85,4.38-9.23-1.3-18.58-1.59-27.84-2.67-6.27-.73-12.95-2.16-17.5-6.88-5.21-5.41-6.85-13.37-8.69-20.32-.91-3.45-1.43-7.59-2.94-10.8a18.25,18.25,0,0,0-.47,3.76c0,.52-.06,1-.11,1.53-.31,3.36-.25,6.7-.69,10.06s-1.11,6.9-1.35,10.39c-.59,8.57,1.4,16.87,3.29,25.16.78,3.42,1.16,7,1.84,10.49.12.61.45,4.89,1,5.19C352,387.47,326.34,409,326.34,409l-6.62-5-32.88-25c0-20.93,14.25-73.7,23.75-88.33s21.36-15,27.52-14.49,15.51,5.44,15.51,5.44A61.27,61.27,0,0,1,375.74,286c16.4,9.36,19.65,33,19.65,33,.26,2.48.48,5,.8,7.44.5,3.94,2.39,7.74,3.45,11.56,1.13,4.13,4.43,6.49,8.08,8.43,3.34,1.78,6.9,3.07,10.14,5,1.41.85,3,2.54,4.64,2.79s3.39-.56,5-.07a18.42,18.42,0,0,1,4.46,2.28,9.73,9.73,0,0,1,1.81,1.38A3.41,3.41,0,0,1,434.81,360.29Z"/><path class="cls-7" d="M362,595.33a5.1,5.1,0,1,1-5.1-5.1A5.11,5.11,0,0,1,362,595.33Z"/><ellipse class="cls-7" cx="294.77" cy="456.29" rx="15.98" ry="7.28"/><path class="cls-12" d="M507.59,348.83c0,13.4,1.67,23.8,24.26,24.26,21.11.43,24.27-10.86,24.27-24.26Z"/><path class="cls-23" d="M373.15,398.42C352,387.47,326.34,409,326.34,409l-6.62-5c-1-5.69.17-13.43,12.62-16.58,20.75-5.25,19.75-15,27-25.92s3-37.35,3-37.35l2.75,2.08,3.13,2.94.93,6.44c0,.52-.06,1-.11,1.53-.31,3.36-.25,6.7-.69,10.06s-1.11,6.9-1.35,10.39c-.59,8.57,1.4,16.87,3.29,25.16.78,3.42,1.16,7,1.84,10.49C372.25,393.84,372.58,398.12,373.15,398.42Z"/><rect class="cls-12" x="518.54" y="368.84" width="26.62" height="4.26"/><rect class="cls-12" x="507.59" y="345.41" width="48.53" height="4"/><rect class="cls-10" x="506.51" y="346.91" width="50.51" height="1.92"/><rect class="cls-12" x="504.59" y="348.78" width="54.61" height="0.69"/><path class="cls-12" d="M553,350.52V353h7a.76.76,0,0,1,.53,1.29l-10.23,10.23,1.74,1.74.42-.43,1.16-1.15L555.3,363l2-2,2.13-2.14c.69-.68,1.38-1.37,2.06-2.06s1.2-1.19,1.79-1.79l1.32-1.32c.22-.21.46-.42.66-.65a2.74,2.74,0,0,0,.52-1.12,1.1,1.1,0,0,0-.18-1,1,1,0,0,0-.8-.38Z"/><path class="cls-12" d="M342.26,197.7a21.86,21.86,0,0,1-15.34,20.68,14.84,14.84,0,0,0-2.66.89,4.7,4.7,0,0,0-.73.46l-.19.16a7.24,7.24,0,0,0-1.56,2.19c-5.68,10.82-4.54,23.75-4,35.95.14,3.3.22,6.61.25,9.91,0,2,0,3.93,0,5.89-.19,24.7-3,49.37-5.81,73.94-1,8.35-1.92,16.74-4,24.88q-8.29-7.26-16.45-14.68c-1-.87-1.95-1.76-2.92-2.66q-1.95-1.76-3.89-3.56c-.66-.59-1.32-1.2-2-1.82q-4.71-4.33-9.38-8.74c9.28-23.22,11.32-48.59,13.25-73.52,1.12-14.33,2.23-28.71,1.47-43.06-.23-4.52-.66-9.07-.17-13.58,1.36-12.46,10.65-24,22.85-26.91S337.77,186,342.26,197.7Z"/><path class="cls-10" d="M282.91,349.93c1.69-8.73,9.56-49.7,12-67.39-1.72,13.78-7.39,58.29-10,69.21C284.23,351.16,283.57,350.55,282.91,349.93Z"/><path class="cls-10" d="M294.93,282.47c.18-1.41.31-2.49.4-3.17C295.23,280.24,295.09,281.3,294.93,282.47Z"/><path class="cls-10" d="M295.42,278.51a2.05,2.05,0,0,1,0,.28Z"/><path class="cls-12" d="M342.43,197.35c-7.6-20-35.13-22.63-49.71-8.89-8.31,7.83-10.73,19.69-9.73,30.69,1.3,14.2,8.63,27.28,7.42,41.77-.08,1,1.42,1,1.5,0,1.83-21.86-15.17-43.05-3.48-64.44,10.66-19.52,44-21.13,52.55,1.27.34.89,1.79.51,1.45-.4Z"/><path class="cls-12" d="M385.57,230.82c13.05-15.91-9.59-38.63-25.83-27-.78.55,0,1.85.76,1.29,14.74-10.55,36.05,10,24,24.65-.61.74.44,1.81,1.06,1.06Z"/><path class="cls-12" d="M328,225.55c-10.09,16.46,1.45,33.51,19.39,36.06.94.13,1.35-1.32.4-1.45-16.9-2.4-28.13-18.13-18.5-33.85.51-.83-.79-1.58-1.29-.76Z"/><path class="cls-12" d="M318.6,297.17a535.26,535.26,0,0,1-6.47,67.09c-.15.94,1.3,1.35,1.45.39a539.25,539.25,0,0,0,6.52-67.48c0-1-1.47-1-1.5,0Z"/><path class="cls-24" d="M351.48,397.54c14.54,9.49,31.63,13.75,47.1,21.38,7.24,3.57,14.77,7.38,21,12.63,3.6,3,6.9,6.8,8.27,11.41,1.55,5.23.56,10.69-.21,16-5.46,37.64-12.06,75.34-9.44,113.53.06.95,1.56,1,1.5,0-1.44-20.92-.18-41.85,2.24-62.64,1.21-10.37,2.69-20.7,4.23-31,1.42-9.51,3.87-19.42,4-29.06.23-15.92-15.33-24.14-27.66-30.51-16.36-8.46-34.76-12.85-50.25-23-.81-.53-1.56.77-.76,1.3Z"/><path class="cls-10" d="M324,220l-.67-.09c-7.46-.59-9.21,14.07-9.28,18.74-.09,5.84,1.11,11.64,2,17.39q1,6,1.91,11.92c0,2,0,3.93,0,5.89-1.89-10.39-3.79-20.85-4.56-31.27-.46-6.16.64-25.27,10.77-23.31l.05,0C324.67,219.4,324.47,220.07,324,220Z"/><path class="cls-10" d="M297.72,306.42l-6,51.55c-1-.87-1.95-1.76-2.92-2.66Z"/><path class="cls-25" d="M352.28,202.09c-12.81,5.44-22.36,26.47-22.36,26.47s-.22.74-.5-.48a6.79,6.79,0,0,0-3.87-4.8c-2.84-1.37-2.21-3.39-2.21-3.39a4.87,4.87,0,0,1,1.75-2.56c1.25-.75,10.42-11.5,13.42-17.41s5.5-4.09,6.33-3.51a.57.57,0,0,1,.2.27c.43,1-.18,3.82,3.63,3.95l.32,0C352.89,200.83,352.28,202.09,352.28,202.09Z"/><path class="cls-12" d="M331.17,225.34a25.49,25.49,0,0,0-1.48,4c-.19.68-.35,1.36-.48,2a33.16,33.16,0,0,0,.88,18.92,23.56,23.56,0,0,0,1.35,2.82,16,16,0,0,0,1.75,2.92c8.22,10.8,32.93,12.94,37.74-2.57a10.35,10.35,0,0,0,.37-4c-.24-2.26-1.26-4.35-1.74-6.57s-.3-4.84,1.42-6.31c2.57-2.21,6.62-.53,9.86-1.54s5-4.36,5.64-7.6c2-9.42-3.06-19.73-11.47-24.43s-19.46-3.8-27.38,1.69c-7.19,5-12.1,13.33-16.46,20.69Z"/><path class="cls-26" d="M349,200.65a102.16,102.16,0,0,0-14.65,16.09c-1.67,2.75-8.79,6.54-.67-3A86.44,86.44,0,0,0,345,196.68c.43,1-.18,3.82,3.63,3.95Z"/><path class="cls-12" d="M404.34,241.27c-.24-.09-24.23-8.53-32.69-3.92a4.79,4.79,0,0,0-2.54,3.2l-1.94-.45a6.72,6.72,0,0,1,3.52-4.5c9.24-5,33.3,3.42,34.32,3.78Z"/><path class="cls-10" d="M394.66,322.58c2,7.2,3.18,16.17,8.25,22,5.38,6.21,20.66,5,20.8,15a.75.75,0,0,0,1.5,0c-.1-7.08-7-9.41-12.73-11.18-6.2-1.92-9.86-5.38-12.13-11.46-1.79-4.79-2.9-9.86-4.25-14.78a.75.75,0,0,0-1.44.4Z"/><path class="cls-10" d="M423.82,354.8a9.23,9.23,0,0,1,9.61,4.29c1.89,3.2,1.19,6.57-.11,9.82-.36.89,1.09,1.28,1.45.4,1.69-4.24,2-8.68-1-12.41a10.86,10.86,0,0,0-10.31-3.54c-.95.15-.55,1.6.4,1.44Z"/><path class="cls-10" d="M370.86,336.5c-.9-6-3.58-11.55-3.82-17.63,0-1-1.54-1-1.5,0,.25,6.22,2.95,11.93,3.88,18,.14,1,1.59.55,1.44-.4Z"/><path class="cls-10" d="M328.78,408.94c14.2-9.48,30.92-17.55,47.24-7.68,1.24.76,2.37-1.19,1.13-1.94-17-10.27-34.61-2.27-49.51,7.68-1.19.8-.07,2.75,1.14,1.94Z"/><path class="cls-8" d="M348.74,457.48l-77.92-1.76a31.38,31.38,0,0,1-27.44-17.31c-5.48-11-8.53-26.84,1.58-45.67a32.44,32.44,0,0,1,26.58-17c13.58-.83,32.78,2,48.21,19.69C346.67,426.33,348.74,457.48,348.74,457.48Z"/><path class="cls-10" d="M368.19,327.18a65.4,65.4,0,0,0-7.39-3.83c-.87-.39-1.64.9-.75,1.29a68.92,68.92,0,0,1,7.39,3.83.75.75,0,0,0,.75-1.29Z"/><path class="cls-2" d="M558.84,102.66l-4.62,25.75L540,129.91s6.76-11.87,0-23.75c0,0-10.87-1.67-8.68-20a28.23,28.23,0,0,1,4.36-2.29q1.25-.53,2.55-.93l.23-.07a27.31,27.31,0,0,1,6.09-1.13C551.58,89.46,558.84,102.66,558.84,102.66Z"/><path class="cls-10" d="M334.76,275.23c13,4.55,25,8.93,39,8.89a.75.75,0,0,0,0-1.5c-13.8,0-25.74-4.35-38.58-8.84-.92-.32-1.31,1.13-.4,1.45Z"/><path class="cls-27" d="M560.84,90.66v10.76a13.5,13.5,0,0,1-27,0V90.66a13.36,13.36,0,0,1,1.8-6.74q1.25-.53,2.55-.93l.23-.07a28.64,28.64,0,0,1,21,1.78A13.4,13.4,0,0,1,560.84,90.66Z"/><path class="cls-27" d="M568.58,128.74a30.27,30.27,0,0,1-3.64,3.61,28.67,28.67,0,0,1-28.06,4.83,28.17,28.17,0,0,1-5.15-2.5,18.8,18.8,0,0,1,3.14-4.16c.39-.39.8-.77,1.23-1.13a18.76,18.76,0,0,1,12.12-4.4h9.07A18.76,18.76,0,0,1,568.58,128.74Z"/><rect class="cls-27" x="550.67" y="108.66" width="8.17" height="22"/><path class="cls-2" d="M575.31,110.3a28.36,28.36,0,0,1-1.93,10.34c-.09.25-.19.5-.3.74a28.24,28.24,0,0,1-4.5,7.36,30.27,30.27,0,0,1-3.64,3.61,21.84,21.84,0,0,1-2.46-1.63,19.19,19.19,0,0,1-5.41-5.73,9.71,9.71,0,0,1-1.12-3c-1-5.36,2.83-10.69,2.07-16.09a5.15,5.15,0,0,0-.83-2.3,6.11,6.11,0,0,0-1.51-1.36c-3.08-2.18-6.34-4.06-9.31-6.42a21.72,21.72,0,0,1-7-8.91,13.53,13.53,0,0,1-.9-3.94l.06,0,.72-.2c.11,0,.22-.06.33-.09l.69-.17c.4-.1.79-.18,1.19-.25l.76-.13L543,82c.51-.08,1-.13,1.56-.16.31,0,.62-.05.94-.06s.83,0,1.25,0,1,0,1.47,0,1,.06,1.45.11h0c.43,0,.86.1,1.28.16a2.14,2.14,0,0,1,.35.06c.32,0,.64.1,1,.17a25.94,25.94,0,0,1,3.15.8c.36.11.73.24,1.09.37l.16.06c.29.1.58.22.87.34l.5.21c.24.1.49.21.73.33l.73.35c.59.29,1.17.6,1.73.94.28.16.55.33.82.5a19.51,19.51,0,0,1,1.63,1.11l.64.48a2.43,2.43,0,0,1,.25.2l.64.53q.52.42,1,.9l.66.64c.21.19.41.4.61.62l.51.55c.23.24.45.5.66.76s.4.48.59.73.4.51.59.78a18.4,18.4,0,0,1,1.12,1.65c.17.26.33.53.49.8s.33.56.48.85a3.9,3.9,0,0,1,.19.35c.13.24.25.48.37.73,0,.07.07.14.1.22q.24.48.45,1c.06.12.11.25.16.38.15.35.28.7.41,1s.32.89.45,1.33.26.88.38,1.32.19.78.27,1.17q.08.3.12.6c.05.22.09.45.12.67s0,.2.05.3,0,.07,0,.1h0c.08.49.14,1,.18,1.48s.09.92.11,1.38v0C575.3,109.32,575.31,109.81,575.31,110.3Z"/><path class="cls-2" d="M604.22,112a29.56,29.56,0,0,1,10.83-11.84c2.76-1.68,7.15-4.72,6.3,2.8-.2,1.84-.87,2.59-.54,4.48a.77.77,0,0,0,.92.52,44.46,44.46,0,0,0,14.75-6c2.11-1.24,2.58-2,4.82-.5s.62,1.16,2,2.45c1,.89.83,1.37,2.32,1.61,1.06.18,2.21-1,3.05-.86.69.13,1.44,1.1,2.26,1.4,4.58,1.67,9.41-4.37,13.61-1.25a.76.76,0,0,0,1.11-.44,22.08,22.08,0,0,1,10-13.42l-1.13-.65q-.54,8.7-1.06,17.38c-.06,1,1.44,1,1.5,0Q675.5,99,676,90.27a.76.76,0,0,0-1.13-.64,23.66,23.66,0,0,0-6.74,6c-1.34,1.77-1.9,4.7-3.3,6.2-1.14,1.22-1.43.43-3.35.53-3.19.17-9.59,5.23-11.71.57a.75.75,0,0,0-1-.27c-4.21,2.93-4-2.48-6.62-3.73-1.34-.65-2.93-.11-4.18.42-4.21,1.77-7.51,4.66-12,6-3.8,1.17-3.77.49-2.65-3.22a8.79,8.79,0,0,0,.47-2.11c.23-4.8-3.81-4.1-6.94-2.6a30.63,30.63,0,0,0-13.91,13.76c-.45.85.85,1.61,1.29.75Z"/><path class="cls-2" d="M698.8,105.64c.53-.62,2-3,2.71-3.18,1.73-.46.47-.15,1.34.68,1.1,1,1.52,2.12,3,2.79a6.5,6.5,0,0,0,7.69-2c.63-.72-.42-1.79-1.06-1.06-2,2.27-5.37,2.85-7.57.53-.69-.73-.93-2.35-1.85-2.87-2.1-1.18-4.39,2.91-5.33,4-.62.73.44,1.8,1.06,1.06Z"/><path class="cls-10" d="M573.38,120.64c-.09.25-.19.5-.3.74a23.08,23.08,0,0,1-5.59-5.65c-3.27-4.81-3-11.37-6.64-15.8-4.17-5-12.13-4.56-17.26-8.49a12.53,12.53,0,0,1-5.11-8.54l.72-.2c.8,7.56,8.43,10.37,15,12.46,3.06,1,5.87,2.14,7.76,4.87,2.63,3.79,2.72,8.69,4.71,12.78A21.6,21.6,0,0,0,573.38,120.64Z"/><path class="cls-10" d="M575.16,107.44l-.29-.34c-2.87-3.49-2.83-8.24-5.56-11.66s-7.7-4.1-10.54-7.53a10.43,10.43,0,0,1-2.15-4.44c.29.1.58.22.87.34,1.72,5.78,8.4,6.26,12.48,11.11,1.71,2,1.95,4.5,2.8,6.91a15.29,15.29,0,0,0,2.2,4.11h0C575.06,106.45,575.12,106.94,575.16,107.44Z"/><path class="cls-10" d="M536.05,84c-3.44,6.3-.65,13.66-2.39,20.37a.38.38,0,0,1-.73-.2c1.74-6.65-.9-13.78,2.23-20.08l.48-.21.44-.17A.34.34,0,0,1,536.05,84Z"/><path class="cls-9" d="M772.84,61.78h-145a1,1,0,0,1,0-2h145a1,1,0,0,1,0,2Z"/><path class="cls-9" d="M607.35,61.78H530.67a1,1,0,0,1,0-2h76.68a1,1,0,0,1,0,2Z"/><path class="cls-14" d="M775.18,235.21H712.12a1,1,0,0,1,0-2h63.06a1,1,0,0,1,0,2Z"/><path class="cls-12" d="M340.17,197c.09-6.65,1.2-14.33-3.11-20-.58-.76-1.88,0-1.3.75,4.12,5.38,3,12.85,2.91,19.21a.75.75,0,0,0,1.5,0Z"/><path class="cls-12" d="M340.67,195.12c1.84-1.36,2-4.56,2.36-6.67a18.32,18.32,0,0,0-1.63-10.93c-3.68-8.05-7.64-12.52-16.22-14.94a.37.37,0,0,0-.2.72c7,2,10.85,5.25,14.28,11.66,1.66,3.09,3.24,6.34,3.31,9.93,0,2.35-.16,8-2.28,9.59-.39.28,0,.93.38.64Z"/><path class="cls-5" d="M408.81,565.61c2.9.61,13.7,2.75,18.62,1.58a.64.64,0,0,1,.8.69l-1,9.92a.63.63,0,0,1-.56.57c-2.4.29-12.64,1.31-18.95-1.24a.65.65,0,0,1-.4-.65L408,566.2A.64.64,0,0,1,408.81,565.61Z"/><path class="cls-5" d="M407.35,475.66c-2.27,13.84,1.54,30-1.76,39.61-1.18-6.34-2.36-12.68-3.12-19.08a147.85,147.85,0,0,1-.94-21.66c.11-4,.78-8.27-.78-12.07-1.8-4.4-6.38-6.94-10-9.66-1.48-1.11-3-2.24-4.49-3.31A78.57,78.57,0,0,0,401,449C415.67,447,410.37,457.33,407.35,475.66Z"/><path class="cls-10" d="M654.83,204.54a142.23,142.23,0,0,1,31-17.75q4-1.64,8-3c1.62-.55,2.79-1.64,4-.09s.17,3-.28,4.73c-.74,2.87-3.64,8.74-1.68,11.62,1.61,2.38,4.77,1.42,6.95.62,5.86-2.14,11.91-6.84,18.31-5.63,5,.93,8.9.56,13.91-.26,7.81-1.28,14.88.31,20.74,5.82,1,1,2.65-.59,1.59-1.59a24.84,24.84,0,0,0-15.05-7c-3.59-.29-7,.48-10.49,1.06-4.52.74-7.89-.3-12.29-.71-6.4-.6-11.43,5.36-17.47,6.15q-2.61,1.71-4.3-2c.33-1.25.65-2.5,1-3.75q.72-2.81,1.46-5.61c.6-2.29,1.73-4.49.48-6.64a1.13,1.13,0,0,0-1-.56c-3.81.13-7.77,2.07-11.3,3.42-3.83,1.47-7.61,3.1-11.3,4.9A143.67,143.67,0,0,0,653.7,202.6c-1.15.85,0,2.81,1.13,1.94Z"/><polygon class="cls-7" points="681.71 572.14 728.04 575.43 729.45 570.67 681.24 570.67 681.71 572.14"/><path class="cls-5" d="M215.74,221.63a20.74,20.74,0,0,1-.72,3.72l-43.67-2.95-.08-.61,0-.16Z"/><path class="cls-1" d="M225.89,175.41c-.48,6.16-3.28,12.94-6.3,14.37-2.09,1-5.86,1.67-9.31,2.14-1.54.2-3,.35-4.23.47-2,.19-3.33.27-3.33.27l3.47-10.52,0-.1a8.83,8.83,0,0,0,4.95.64l.3-.08c1.86-.61,3.34-2.52,2.7-7.44-1.45-11.12,7.17-13.75,10.55-7.62A14.35,14.35,0,0,1,225.89,175.41Z"/><path class="cls-3" d="M191.27,185.22c.24,7.38-6.09,10.67-12.28,10.93a122.3,122.3,0,0,1-4.08-19.55,7.88,7.88,0,0,1,1.64-.61,12.2,12.2,0,0,1,2.56-.24,12.07,12.07,0,0,1,2.55.27c3.89,1,6.89,3,8.55,6.64A9.61,9.61,0,0,1,191.27,185.22Z"/><path class="cls-1" d="M189.05,182.89c.29,8.77-8.71,11.77-15.71,10.77-2,0-3-2-3.82-2.63a13.48,13.48,0,0,1-1.56-1.74,8.27,8.27,0,0,1-1.62-6.63c1-4,4-8,8-9a12,12,0,0,1,2.55-.24,12.23,12.23,0,0,1,2.56.27c3.89,1,6.89,3,8.54,6.64A9.61,9.61,0,0,1,189.05,182.89Z"/><path class="cls-18" d="M191.7,150.91a17.7,17.7,0,0,0-.08-3c-.11-.95-1.61-1-1.5,0a17.7,17.7,0,0,1,.08,3c-.06,1,1.44,1,1.5,0Z"/><path class="cls-18" d="M193.31,157.46a5,5,0,0,1,1.28-1.43.75.75,0,0,0,0-1.06.76.76,0,0,0-1.06,0A6.1,6.1,0,0,0,192,156.7a.75.75,0,0,0,1.29.76Z"/><path class="cls-18" d="M194.61,164.6a12.64,12.64,0,0,0,2.49-1.8c.72-.65-.35-1.71-1.06-1.06a11.29,11.29,0,0,1-2.18,1.57c-.85.47-.09,1.76.75,1.29Z"/><path class="cls-18" d="M187.49,163.76a20.25,20.25,0,0,0-2.92-2.22c-.82-.51-1.57.78-.75,1.3a17.93,17.93,0,0,1,2.61,2c.71.65,1.77-.41,1.06-1.06Z"/><path class="cls-18" d="M188.42,156.09a17.43,17.43,0,0,1-.51-3.93.75.75,0,0,0-1.5,0,19.78,19.78,0,0,0,.57,4.33c.23.94,1.67.54,1.44-.4Z"/><path class="cls-18" d="M179.84,160.64a8.19,8.19,0,0,0-2.92-1.35c-.94-.23-1.34,1.22-.4,1.44a7,7,0,0,1,2.56,1.21c.78.57,1.53-.73.76-1.3Z"/><path class="cls-18" d="M182.76,155.51l-1.51-2.24c-.54-.79-1.84,0-1.3.76l1.52,2.24c.54.79,1.84,0,1.29-.76Z"/><path class="cls-18" d="M201.74,159.82c.54-.63,1.09-1.25,1.63-1.87s-.42-1.79-1.06-1.06l-1.63,1.86c-.63.73.42,1.79,1.06,1.07Z"/><path class="cls-18" d="M207.25,169.32a4.72,4.72,0,0,1,2.28-1.1c.95-.18.55-1.63-.4-1.44a6.09,6.09,0,0,0-2.94,1.48c-.72.65.34,1.71,1.06,1.06Z"/><path class="cls-18" d="M199,173.49a5.71,5.71,0,0,0,.14-3c-.21-.94-1.65-.54-1.45.4a4.07,4.07,0,0,1-.14,2.24c-.3.92,1.15,1.31,1.45.4Z"/><path class="cls-18" d="M190,172.5a10.55,10.55,0,0,0-2.05-1.84c-.79-.55-1.54.75-.76,1.3a8.86,8.86,0,0,1,1.75,1.6c.63.74,1.68-.33,1.06-1.06Z"/><path class="cls-18" d="M198.46,187.67l1.91-2.35a.8.8,0,0,0,0-1.07.78.78,0,0,0-1.07,0l-1.9,2.36a.78.78,0,0,0,0,1.06.76.76,0,0,0,1.06,0Z"/><path class="cls-18" d="M194.68,180.09c-.25-.75-.51-1.5-.77-2.25-.31-.9-1.76-.51-1.45.4l.78,2.25c.31.9,1.76.51,1.44-.4Z"/><path class="cls-18" d="M193.1,196.16a14.33,14.33,0,0,0-2-2.91c-.64-.73-1.69.33-1.06,1.06a13.48,13.48,0,0,1,1.74,2.61c.44.86,1.73.1,1.29-.76Z"/><path class="cls-18" d="M186.47,202a9.14,9.14,0,0,0-2.07-.92c-.92-.28-1.32,1.17-.4,1.45a7.49,7.49,0,0,1,1.71.76.75.75,0,0,0,.76-1.29Z"/><path class="cls-18" d="M200.5,202.58a4.83,4.83,0,0,1,1.78-1c.92-.28.53-1.73-.4-1.45a6.61,6.61,0,0,0-2.44,1.36c-.73.63.33,1.69,1.06,1.06Z"/><path class="cls-18" d="M205.71,194.8l1.76-.86c.87-.42.11-1.72-.76-1.29l-1.76.86c-.86.42-.1,1.71.76,1.29Z"/><path class="cls-18" d="M207.06,179.11a5.8,5.8,0,0,0,.39-2.7c-.08-.95-1.58-1-1.5,0a4.75,4.75,0,0,1-.33,2.3.75.75,0,1,0,1.44.4Z"/><path class="cls-18" d="M213.17,191.45a13,13,0,0,0,2.18,1.58.75.75,0,0,0,.75-1.29,11.25,11.25,0,0,1-1.87-1.35c-.72-.64-1.78.42-1.06,1.06Z"/><path class="cls-18" d="M219.89,187.64a5.57,5.57,0,0,0,2.07.27c1-.06,1-1.56,0-1.5a4.12,4.12,0,0,1-1.67-.22c-.92-.31-1.31,1.14-.4,1.45Z"/><path class="cls-18" d="M217.86,179.65l-1.24-2c-.51-.81-1.81-.06-1.3.76l1.25,2c.51.82,1.81.07,1.29-.76Z"/><path class="cls-18" d="M224.91,175.13a6.77,6.77,0,0,0,1.7-.8c.8-.53,0-1.83-.76-1.29a5.93,5.93,0,0,1-1.34.65c-.91.29-.52,1.74.4,1.44Z"/><path class="cls-18" d="M221.44,169.66l.28-2.62a.74.74,0,0,0-.75-.75.77.77,0,0,0-.75.75l-.28,2.62c-.05.4.38.74.75.75a.77.77,0,0,0,.75-.75Z"/><path class="cls-18" d="M185.94,210.05l-3.62-2c-.85-.47-1.61.82-.76,1.29l3.63,2c.84.47,1.6-.83.75-1.3Z"/><path class="cls-18" d="M200.22,210.57a10.57,10.57,0,0,1,3.06-.95c.95-.15.55-1.59-.39-1.45a12.17,12.17,0,0,0-3.43,1.1c-.86.43-.11,1.72.76,1.3Z"/><path class="cls-18" d="M206.17,202.54l4.63-.86c.94-.17.54-1.62-.4-1.44l-4.63.86c-1,.17-.55,1.62.4,1.44Z"/><path class="cls-18" d="M179.89,194.46l-.75.23c-.92.29-.53,1.73.4,1.45l.75-.23c.92-.28.53-1.73-.4-1.45Z"/><path class="cls-18" d="M173.83,192.41a2.06,2.06,0,0,1-.37.89c-.53.81.77,1.56,1.3.76a3.87,3.87,0,0,0,.57-1.65.76.76,0,0,0-.75-.75.77.77,0,0,0-.75.75Z"/><path class="cls-18" d="M168,188.31l-1.25.25c-.95.19-.54,1.63.4,1.44l1.25-.24c1-.19.55-1.64-.4-1.45Z"/><path class="cls-18" d="M171.21,180.91a8.38,8.38,0,0,1-2.3-1.7c-.67-.7-1.73.37-1.06,1.06a9.46,9.46,0,0,0,2.6,1.93c.86.44,1.62-.86.76-1.29Z"/><path class="cls-18" d="M179.75,185.32c.2-.25.41-.5.61-.76a.75.75,0,0,0-1.06-1.06c-.2.26-.41.51-.61.76a.76.76,0,0,0,0,1.06.75.75,0,0,0,1.06,0Z"/><path class="cls-18" d="M183.63,189.3l1.75.24a.79.79,0,0,0,.93-.52.75.75,0,0,0-.53-.92l-1.75-.25a.77.77,0,0,0-.92.52.76.76,0,0,0,.52.93Z"/><path class="cls-18" d="M179.74,177.42l1.11-1.89a.75.75,0,0,0-1.3-.75c-.37.62-.73,1.25-1.1,1.88a.75.75,0,0,0,1.29.76Z"/><path class="cls-18" d="M173.1,175.87l-1.5-1.12a.74.74,0,0,0-1,.27.76.76,0,0,0,.26,1l1.5,1.13a.76.76,0,0,0,1-.27.77.77,0,0,0-.27-1Z"/><path class="cls-3" d="M211.47,182.36a2.58,2.58,0,0,1-.87.72c-3.24,1.58-7.76-2.5-5.26-7.93a18.77,18.77,0,0,0,1.13-9.62,36.12,36.12,0,0,1,4.87,14.36A21.68,21.68,0,0,1,211.47,182.36Z"/><path class="cls-3" d="M225.89,175.41c-.48,6.16-3.28,12.94-6.3,14.37-2.09,1-5.86,1.67-9.31,2.14-.44,2-1,4.09-1.57,6.12-1.56-1.24-3.25-3.17-2.66-5.65a6,6,0,0,1,1-2.15c1.53-2.11,2.74-2.38,3.91-2.24h0c1.87.22,3.66,1.51,6.59-2.06C221.61,181.05,223.48,174.71,225.89,175.41Z"/><path class="cls-13" d="M132.25,587.07a2,2,0,0,1-1.44-.61C85.81,539.52,50,476.12,29.91,407.93,9.33,338,5.69,267.35,19.37,203.53,29,158.59,48.31,117.14,75.17,83.67c29.49-36.77,67.06-61.94,108.63-72.8C222.63.72,268.3,2.45,306,15.48c20.78,7.2,38.47,17.46,52.6,30.51a111.9,111.9,0,0,1,32.16,51.93,2,2,0,0,1-3.85,1.1C373.38,52,334.71,29.67,304.65,19.26,267.71,6.48,222.91,4.79,184.81,14.74,90.42,39.4,39.48,128.87,23.29,204.37-4,331.45,41.43,487.44,133.7,583.69a2,2,0,0,1-1.45,3.38Z"/><path class="cls-13" d="M385.12,70.91a1,1,0,0,1-.89-.55C365.86,34.18,326.51,9.9,273.43,2a1,1,0,0,1,.3-2C327.47,8,367.34,32.68,386,69.46a1,1,0,0,1-.44,1.34A.91.91,0,0,1,385.12,70.91Z"/><path class="cls-13" d="M146.42,582.07a1,1,0,0,1-.72-.31c-45.26-47.22-79.95-108.41-100.33-177a1,1,0,0,1,.68-1.25,1,1,0,0,1,1.24.68c20.28,68.25,54.81,129.16,99.85,176.15a1,1,0,0,1,0,1.41A1,1,0,0,1,146.42,582.07Z"/></g></g></svg>