<svg xmlns="http://www.w3.org/2000/svg" width="202.209" height="191.08" viewBox="0 0 202.209 191.08">
  <g id="profile" transform="translate(0.5 0.5)">
    <path id="Caminho_2" data-name="Caminho 2" d="M230.688,382.25h-29.4s-.238,20.46-10.321,33.187a4.139,4.139,0,0,0,3.285,6.673h43.469a4.139,4.139,0,0,0,3.285-6.673c-10.083-12.728-10.32-33.187-10.32-33.187Zm0,0" transform="translate(-115.384 -232.031)" fill="#bddff4" stroke="#707070" stroke-width="1"/>
    <path id="Caminho_3" data-name="Caminho 3" d="M284.083,422.109h-10.6a4.14,4.14,0,0,0,3.288-6.673c-10.084-12.724-10.32-33.186-10.32-33.186h10.592s.236,20.461,10.32,33.186A4.139,4.139,0,0,1,284.083,422.109Zm0,0" transform="translate(-161.741 -232.031)" fill="#adc9e2" stroke="#707070" stroke-width="1"/>
    <path id="Caminho_4" data-name="Caminho 4" d="M201.21,49.9V180.29a4.127,4.127,0,0,1-4.131,4.131H4.135A4.129,4.129,0,0,1,0,180.29V49.9a6.2,6.2,0,0,1,6.2-6.2H195.014a6.2,6.2,0,0,1,6.2,6.2Zm0,0" transform="translate(-0.002 -26.531)" fill="#e3f4ff" stroke="#707070" stroke-width="1"/>
    <path id="Caminho_5" data-name="Caminho 5" d="M44.332,43.711H210.7V164.644H44.332Zm0,0" transform="translate(-26.91 -26.533)" fill="#bddff4" stroke="#707070" stroke-width="1"/>
    <path id="Caminho_6" data-name="Caminho 6" d="M482.29,49.905V180.292a4.13,4.13,0,0,1-4.131,4.132H465.119a4.13,4.13,0,0,0,4.132-4.132V49.905a6.2,6.2,0,0,0-6.2-6.194h13.038A6.2,6.2,0,0,1,482.29,49.905Zm0,0" transform="translate(-281.081 -26.533)" fill="#bddff4" stroke="#707070" stroke-width="1"/>
    <path id="Caminho_7" data-name="Caminho 7" d="M201.209,339v20.538a4.13,4.13,0,0,1-4.131,4.132H4.131A4.13,4.13,0,0,1,0,359.534V339Zm0,0" transform="translate(0 -205.775)" fill="#4e7693" stroke="#707070" stroke-width="1"/>
    <path id="Caminho_8" data-name="Caminho 8" d="M485.479,339v20.538a4.13,4.13,0,0,1-4.131,4.132H468.309a4.13,4.13,0,0,0,4.133-4.132V339Zm0,0" transform="translate(-284.27 -205.775)" fill="#38627c" stroke="#707070" stroke-width="1"/>
    <path id="Caminho_9" data-name="Caminho 9" d="M56.769,4.074V133.221h156.59V4.074A4.074,4.074,0,0,0,209.285,0H60.843a4.074,4.074,0,0,0-4.074,4.074Zm0,0" transform="translate(-34.46 0)" fill="#fdb659" stroke="#707070" stroke-width="1"/>
    <path id="Caminho_10" data-name="Caminho 10" d="M431.445,0V133.221h9.349V4.074A4.075,4.075,0,0,0,436.718,0Zm0,0" transform="translate(-261.893)" fill="#fd9e28" stroke="#707070" stroke-width="1"/>
    <path id="Caminho_11" data-name="Caminho 11" d="M56.765,4.074V20.342H213.359V4.074A4.075,4.075,0,0,0,209.283,0H60.841a4.075,4.075,0,0,0-4.076,4.074Zm0,0" transform="translate(-34.458 0)" fill="#618baa" stroke="#707070" stroke-width="1"/>
    <path id="Caminho_12" data-name="Caminho 12" d="M56.766,4.074V20.342h45.967V0H60.841a4.075,4.075,0,0,0-4.076,4.074Zm0,0" transform="translate(-34.458 0)" fill="#fd9e28" stroke="#707070" stroke-width="1"/>
    <path id="Caminho_13" data-name="Caminho 13" d="M431.445,0V20.342h9.349V4.074A4.075,4.075,0,0,0,436.718,0Zm0,0" transform="translate(-261.893 0)" fill="#4e7693" stroke="#707070" stroke-width="1"/>
    <path id="Caminho_14" data-name="Caminho 14" d="M140.964,80.534H91.5a3.036,3.036,0,0,1,0-6.073h49.466a3.036,3.036,0,0,1,0,6.073Zm0,0" transform="translate(-53.697 -45.199)" fill="#e86c10" stroke="#707070" stroke-width="1"/>
    <path id="Caminho_15" data-name="Caminho 15" d="M278.553,80.534h-6.931a3.036,3.036,0,1,1,0-6.073h6.931a3.036,3.036,0,0,1,0,6.073Zm0,0" transform="translate(-163.035 -45.199)" fill="#e86c10" stroke="#707070" stroke-width="1"/>
    <path id="Caminho_16" data-name="Caminho 16" d="M319.174,80.534h-6.931a3.036,3.036,0,0,1,0-6.073h6.931a3.036,3.036,0,1,1,0,6.073Zm0,0" transform="translate(-187.693 -45.199)" fill="#e86c10" stroke="#707070" stroke-width="1"/>
    <path id="Caminho_17" data-name="Caminho 17" d="M359.8,80.534h-6.931a3.036,3.036,0,0,1,0-6.073H359.8a3.036,3.036,0,1,1,0,6.073Zm0,0" transform="translate(-212.35 -45.199)" fill="#e86c10" stroke="#707070" stroke-width="1"/>
    <path id="Caminho_18" data-name="Caminho 18" d="M400.417,80.534h-6.931a3.036,3.036,0,0,1,0-6.073h6.931a3.036,3.036,0,0,1,0,6.073Zm0,0" transform="translate(-237.008 -45.199)" fill="#e86c10" stroke="#707070" stroke-width="1"/>
    <path id="Caminho_19" data-name="Caminho 19" d="M89.311,24.565h-.018a3.053,3.053,0,0,1-3.035-3.055,3.022,3.022,0,0,1,3.02-3.018h.052a3.036,3.036,0,0,1-.018,6.073Zm0,0" transform="translate(-52.36 -11.225)" fill="#e86c10" stroke="#707070" stroke-width="1"/>
    <path id="Caminho_20" data-name="Caminho 20" d="M111.37,24.628a3.036,3.036,0,0,1-.034-6.073h.034a3.036,3.036,0,1,1,0,6.073Zm0,0" transform="translate(-65.75 -11.263)" fill="#e86c10" stroke="#707070" stroke-width="1"/>
    <path id="Caminho_21" data-name="Caminho 21" d="M133.429,24.69h-.018a3.036,3.036,0,0,1-.015-6.073h.051a3.036,3.036,0,0,1-.017,6.073Zm0,0" transform="translate(-79.14 -11.301)" fill="#e86c10" stroke="#707070" stroke-width="1"/>
    <path id="Caminho_22" data-name="Caminho 22" d="M129.17,152.237A13.038,13.038,0,1,1,116.131,139.2,13.038,13.038,0,0,1,129.17,152.237Zm0,0" transform="translate(-62.579 -84.496)" fill="#32dfb7" stroke="#707070" stroke-width="1"/>
    <path id="Caminho_23" data-name="Caminho 23" d="M368.627,152.237A13.038,13.038,0,1,1,355.59,139.2,13.038,13.038,0,0,1,368.627,152.237Zm0,0" transform="translate(-207.933 -84.496)" fill="#32dfb7" stroke="#707070" stroke-width="1"/>
    <path id="Caminho_24" data-name="Caminho 24" d="M246.678,135.577a17.113,17.113,0,1,1-17.113-17.112,17.1,17.1,0,0,1,17.113,17.112Zm0,0" transform="translate(-128.962 -71.91)" fill="#43a3f9" stroke="#707070" stroke-width="1"/>
    <path id="Caminho_25" data-name="Caminho 25" d="M252.05,181.7v3.362a17.149,17.149,0,0,1-14.5,0V181.7a7.252,7.252,0,1,1,14.5,0Zm0,0" transform="translate(-144.194 -105.893)" fill="#bddff4" stroke="#707070" stroke-width="1"/>
    <path id="Caminho_26" data-name="Caminho 26" d="M252.45,151.938a6.52,6.52,0,1,1-6.52-6.52A6.519,6.519,0,0,1,252.45,151.938Zm0,0" transform="translate(-145.325 -88.271)" fill="#fede93" stroke="#707070" stroke-width="1"/>
    <g id="Grupo_4" data-name="Grupo 4" transform="translate(37.478 90.373)">
      <path id="Caminho_27" data-name="Caminho 27" d="M244.21,236.038H218.134a3.036,3.036,0,0,1,0-6.073H244.21a3.036,3.036,0,0,1,0,6.073Zm0,0" transform="translate(-168.045 -229.965)" fill="#fd9e28" stroke="#707070" stroke-width="1"/>
      <path id="Caminho_28" data-name="Caminho 28" d="M245.984,271.288H226.427a3.036,3.036,0,1,1,0-6.073h19.557a3.036,3.036,0,1,1,0,6.073Zm0,0" transform="translate(-173.079 -251.362)" fill="#fd9e28" stroke="#707070" stroke-width="1"/>
      <path id="Caminho_29" data-name="Caminho 29" d="M247.762,294.1H234.723a3.036,3.036,0,0,1,0-6.073h13.039a3.036,3.036,0,1,1,0,6.073Zm0,0" transform="translate(-178.115 -265.207)" fill="#fd9e28" stroke="#707070" stroke-width="1"/>
      <path id="Caminho_30" data-name="Caminho 30" d="M363.937,236.038H337.86a3.036,3.036,0,0,1,0-6.073h26.077a3.036,3.036,0,0,1,0,6.073Zm0,0" transform="translate(-240.72 -229.965)" fill="#fd9e28" stroke="#707070" stroke-width="1"/>
      <path id="Caminho_31" data-name="Caminho 31" d="M365.715,271.288H346.157a3.036,3.036,0,0,1,0-6.073h19.557a3.036,3.036,0,0,1,0,6.073Zm0,0" transform="translate(-245.757 -251.362)" fill="#fd9e28" stroke="#707070" stroke-width="1"/>
      <path id="Caminho_32" data-name="Caminho 32" d="M367.488,294.1H354.45a3.036,3.036,0,1,1,0-6.073h13.038a3.036,3.036,0,1,1,0,6.073Zm0,0" transform="translate(-250.791 -265.207)" fill="#fd9e28" stroke="#707070" stroke-width="1"/>
      <path id="Caminho_33" data-name="Caminho 33" d="M124.48,236.038H98.4a3.036,3.036,0,0,1,0-6.073H124.48a3.036,3.036,0,1,1,0,6.073Zm0,0" transform="translate(-95.367 -229.965)" fill="#fd9e28" stroke="#707070" stroke-width="1"/>
      <path id="Caminho_34" data-name="Caminho 34" d="M126.253,271.288H106.7a3.036,3.036,0,1,1,0-6.073h19.557a3.036,3.036,0,1,1,0,6.073Zm0,0" transform="translate(-100.401 -251.362)" fill="#fd9e28" stroke="#707070" stroke-width="1"/>
      <path id="Caminho_35" data-name="Caminho 35" d="M128.031,294.1H114.993a3.036,3.036,0,0,1,0-6.073h13.038a3.036,3.036,0,1,1,0,6.073Zm0,0" transform="translate(-105.437 -265.207)" fill="#fd9e28" stroke="#707070" stroke-width="1"/>
    </g>
    <path id="Caminho_36" data-name="Caminho 36" d="M370.518,168.647H370.5a3.036,3.036,0,0,1-.015-6.073h.052a3.036,3.036,0,0,1-.018,6.073Zm0,0" transform="translate(-223.056 -98.685)" fill="#21c69c" stroke="#707070" stroke-width="1"/>
    <path id="Caminho_37" data-name="Caminho 37" d="M373.5,184.271v6.219a13.168,13.168,0,0,1-6.073-.106v-6.113a3.036,3.036,0,1,1,6.073,0Zm0,0" transform="translate(-223.033 -110.012)" fill="#21c69c" stroke="#707070" stroke-width="1"/>
    <path id="Caminho_38" data-name="Caminho 38" d="M131.6,168.647h-.018a3.036,3.036,0,0,1-.015-6.073h.052a3.036,3.036,0,0,1-.018,6.073Zm0,0" transform="translate(-78.028 -98.685)" fill="#21c69c" stroke="#707070" stroke-width="1"/>
    <path id="Caminho_39" data-name="Caminho 39" d="M134.577,184.271v6.17a13.037,13.037,0,0,1-3.02.352,13.235,13.235,0,0,1-3.053-.356v-6.165a3.036,3.036,0,0,1,6.073,0Zm0,0" transform="translate(-78.004 -110.012)" fill="#21c69c" stroke="#707070" stroke-width="1"/>
    <path id="Caminho_40" data-name="Caminho 40" d="M249.313,368.729h-7.335a3.036,3.036,0,0,1,0-6.073h7.335a3.036,3.036,0,0,1,0,6.073Zm0,0" transform="translate(-145.041 -220.137)" fill="#38627c" stroke="#707070" stroke-width="1"/>
  </g>
</svg>
