<svg xmlns="http://www.w3.org/2000/svg" width="247.242" height="207.455" viewBox="0 0 247.242 207.455">
  <g id="repaired" transform="translate(0 -36.153)">
    <path id="Caminho_95" data-name="Caminho 95" d="M246.711,274.776v-135.8c0-6.751-5.2-12.225-11.618-12.225H37c-6.416,0-11.618,5.473-11.618,12.225v135.8l111.45,20.829Z" transform="translate(-12.164 -57.119)" fill="#4e7693"/>
    <path id="Caminho_96" data-name="Caminho 96" d="M434.765,126.752H419.143a12.225,12.225,0,0,1,12.225,12.225v135.8H446.99v-135.8A12.225,12.225,0,0,0,434.765,126.752Z" transform="translate(-212.443 -57.119)" fill="#38627c"/>
    <path id="Caminho_97" data-name="Caminho 97" d="M60.381,291.551V168.664a6.718,6.718,0,0,1,6.5-6.912H238.234a6.718,6.718,0,0,1,6.5,6.912V291.551L152.8,312.38Z" transform="translate(-28.939 -73.893)" fill="#fff"/>
    <path id="Caminho_98" data-name="Caminho 98" d="M408.967,161.752H393.345a6.912,6.912,0,0,1,6.912,6.912V291.551h15.622V168.664A6.912,6.912,0,0,0,408.967,161.752Z" transform="translate(-200.079 -73.893)" fill="#f1f0f0"/>
    <path id="Caminho_99" data-name="Caminho 99" d="M227.794,436.949H7.472A7.662,7.662,0,0,1,0,429.11V417.619a6.486,6.486,0,0,1,6.324-6.635H92.713L123.34,421.4l30.628-10.415h74.973a6.485,6.485,0,0,1,6.324,6.635V429.11A7.661,7.661,0,0,1,227.794,436.949Z" transform="translate(0 -193.342)" fill="#bddff4"/>
    <path id="Caminho_100" data-name="Caminho 100" d="M468.772,410.984H453.15a6.635,6.635,0,0,1,6.635,6.635V429.11a7.839,7.839,0,0,1-7.839,7.839h15.622a7.839,7.839,0,0,0,7.839-7.839V417.619A6.635,6.635,0,0,0,468.772,410.984Z" transform="translate(-228.165 -193.342)" fill="#adc9e2"/>
    <path id="Caminho_101" data-name="Caminho 101" d="M238.076,423.966h-38.3a12.983,12.983,0,0,1-12.983-12.983h64.265A12.982,12.982,0,0,1,238.076,423.966Z" transform="translate(-95.305 -193.341)" fill="#adc9e2"/>
    <path id="Caminho_102" data-name="Caminho 102" d="M190.765,36.153a61.259,61.259,0,0,0-61.259,61.259v28.595a14.583,14.583,0,0,0,14.583,14.583h29.179l12.411,27.746a5.871,5.871,0,0,0,10.169,0l12.411-27.746H237.44a14.583,14.583,0,0,0,14.583-14.583V97.412a61.258,61.258,0,0,0-61.258-61.259Z" transform="translate(-67.789)" fill="#05e39c"/>
    <path id="Caminho_103" data-name="Caminho 103" d="M239.956,36.153a61.86,61.86,0,0,0-7.811.494,61.27,61.27,0,0,1,53.448,60.766v28.594a14.583,14.583,0,0,1-14.583,14.583h15.622a14.583,14.583,0,0,0,14.583-14.583V97.412a61.259,61.259,0,0,0-61.259-61.259Z" transform="translate(-118.626)" fill="#00c285"/>
    <path id="Caminho_104" data-name="Caminho 104" d="M240.007,346.764H158.381a12.682,12.682,0,1,1,0-25.364h81.626a12.682,12.682,0,1,1,0,25.364Z" transform="translate(-75.607 -147.101)" fill="#fdb659"/>
    <path id="Caminho_105" data-name="Caminho 105" d="M312.426,321.4H296.8a12.682,12.682,0,1,1,0,25.364h15.622a12.682,12.682,0,0,0,0-25.364Z" transform="translate(-150.001 -147.101)" fill="#fd9e28"/>
    <path id="Caminho_106" data-name="Caminho 106" d="M220.421,321.4h28.907v25.364H220.421Z" transform="translate(-111.413 -147.101)" fill="#fd9e28"/>
    <circle id="Elipse_10" data-name="Elipse 10" cx="30.203" cy="30.203" r="30.203" transform="translate(92.754 61.478)" fill="#fff3ef"/>
    <path id="Caminho_107" data-name="Caminho 107" d="M232.079,141.939c-.058,0-.118,0-.177,0a3.9,3.9,0,0,1-2.857-1.442l-5.382-6.64a3.906,3.906,0,1,1,6.068-4.918l2.614,3.224,12.69-13.048a3.905,3.905,0,1,1,5.6,5.446l-15.755,16.2A3.9,3.9,0,0,1,232.079,141.939Z" transform="translate(-112.612 -42.151)" fill="#07b27b"/>
  </g>
</svg>
